solid OpenSCAD_Model
  facet normal 0 -0 1
    outer loop
      vertex -3.97299 -1.21481 0.4
      vertex -3.97299 3.09818 0.4
      vertex -5.125 3.09818 0.4
    endloop
  endfacet
  facet normal 0 0 1
    outer loop
      vertex -3.97299 -1.21481 0.4
      vertex -5.125 3.09818 0.4
      vertex -5.125 -2.58482 0.4
    endloop
  endfacet
  facet normal -0 0 1
    outer loop
      vertex -3.97299 -1.21481 0.4
      vertex 5.37099 -2.58482 0.4
      vertex 5.37099 -1.21481 0.4
    endloop
  endfacet
  facet normal 0 0 1
    outer loop
      vertex -3.97299 -1.21481 0.4
      vertex -5.125 -2.58482 0.4
      vertex 5.37099 -2.58482 0.4
    endloop
  endfacet
  facet normal 0 0 -1
    outer loop
      vertex -5.125 3.09818 -5.96046e-09
      vertex -3.97299 3.09818 -5.96046e-09
      vertex -3.97299 -1.21481 -5.96046e-09
    endloop
  endfacet
  facet normal 0 0 -1
    outer loop
      vertex -5.125 -2.58482 -5.96046e-09
      vertex -5.125 3.09818 -5.96046e-09
      vertex -3.97299 -1.21481 -5.96046e-09
    endloop
  endfacet
  facet normal -0 -0 -1
    outer loop
      vertex 5.37099 -1.21481 -5.96046e-09
      vertex 5.37099 -2.58482 -5.96046e-09
      vertex -3.97299 -1.21481 -5.96046e-09
    endloop
  endfacet
  facet normal 0 0 -1
    outer loop
      vertex 5.37099 -2.58482 -5.96046e-09
      vertex -5.125 -2.58482 -5.96046e-09
      vertex -3.97299 -1.21481 -5.96046e-09
    endloop
  endfacet
  facet normal 1 -0 0
    outer loop
      vertex -3.97299 -1.21481 0.4
      vertex -3.97299 3.09818 -5.96046e-09
      vertex -3.97299 3.09818 0.4
    endloop
  endfacet
  facet normal 1 0 0
    outer loop
      vertex -3.97299 -1.21481 0.4
      vertex -3.97299 -1.21481 -5.96046e-09
      vertex -3.97299 3.09818 -5.96046e-09
    endloop
  endfacet
  facet normal 0 1 0
    outer loop
      vertex 5.37099 -1.21481 0.4
      vertex -3.97299 -1.21481 -5.96046e-09
      vertex -3.97299 -1.21481 0.4
    endloop
  endfacet
  facet normal 0 1 0
    outer loop
      vertex 5.37099 -1.21481 0.4
      vertex 5.37099 -1.21481 -5.96046e-09
      vertex -3.97299 -1.21481 -5.96046e-09
    endloop
  endfacet
  facet normal 1 -0 0
    outer loop
      vertex 5.37099 -2.58482 0.4
      vertex 5.37099 -1.21481 -5.96046e-09
      vertex 5.37099 -1.21481 0.4
    endloop
  endfacet
  facet normal 1 0 0
    outer loop
      vertex 5.37099 -2.58482 0.4
      vertex 5.37099 -2.58482 -5.96046e-09
      vertex 5.37099 -1.21481 -5.96046e-09
    endloop
  endfacet
  facet normal 0 -1 0
    outer loop
      vertex -5.125 -2.58482 0.4
      vertex 5.37099 -2.58482 -5.96046e-09
      vertex 5.37099 -2.58482 0.4
    endloop
  endfacet
  facet normal 0 -1 0
    outer loop
      vertex -5.125 -2.58482 0.4
      vertex -5.125 -2.58482 -5.96046e-09
      vertex 5.37099 -2.58482 -5.96046e-09
    endloop
  endfacet
  facet normal -1 -0 0
    outer loop
      vertex -5.125 3.09818 0.4
      vertex -5.125 -2.58482 -5.96046e-09
      vertex -5.125 -2.58482 0.4
    endloop
  endfacet
  facet normal -1 0 -0
    outer loop
      vertex -5.125 3.09818 0.4
      vertex -5.125 3.09818 -5.96046e-09
      vertex -5.125 -2.58482 -5.96046e-09
    endloop
  endfacet
  facet normal 0 1 0
    outer loop
      vertex -3.97299 3.09818 0.4
      vertex -5.125 3.09818 -5.96046e-09
      vertex -5.125 3.09818 0.4
    endloop
  endfacet
  facet normal 0 1 0
    outer loop
      vertex -3.97299 3.09818 0.4
      vertex -3.97299 3.09818 -5.96046e-09
      vertex -5.125 3.09818 -5.96046e-09
    endloop
  endfacet
endsolid OpenSCAD_Model
