solid OpenSCAD_Model
  facet normal 0 0 1
    outer loop
      vertex 3.08099 -0.0278168 0.4
      vertex 2.00899 -0.156815 0.4
      vertex 5.37099 -0.542816 0.4
    endloop
  endfacet
  facet normal 0 0 1
    outer loop
      vertex -5.125 2.80017 0.4
      vertex -5.125 1.50517 0.4
      vertex -2.28299 2.12917 0.4
    endloop
  endfacet
  facet normal 0 0 1
    outer loop
      vertex 2.00899 -0.156815 0.4
      vertex -1.019 -1.64882 0.4
      vertex 5.37099 -0.542816 0.4
    endloop
  endfacet
  facet normal 0 0 1
    outer loop
      vertex -5.125 1.50517 0.4
      vertex -1.26599 1.96617 0.4
      vertex -2.28299 2.09517 0.4
    endloop
  endfacet
  facet normal 0 0 1
    outer loop
      vertex -5.125 2.80017 0.4
      vertex -2.28299 2.12917 0.4
      vertex -1.26199 2.21017 0.4
    endloop
  endfacet
  facet normal 0 0 1
    outer loop
      vertex 2.00899 -0.156815 0.4
      vertex -5.125 -1.37782 0.4
      vertex -2.06599 -1.78381 0.4
    endloop
  endfacet
  facet normal -0 0 1
    outer loop
      vertex -5.125 2.80017 0.4
      vertex -1.26199 2.21017 0.4
      vertex 5.37099 4.07516 0.4
    endloop
  endfacet
  facet normal -0 0 1
    outer loop
      vertex -5.125 1.50517 0.4
      vertex 2.00899 0.148163 0.4
      vertex -1.26599 1.96617 0.4
    endloop
  endfacet
  facet normal 0 0 1
    outer loop
      vertex 5.37099 4.07516 0.4
      vertex -1.26199 2.21017 0.4
      vertex 5.37099 3.00317 0.4
    endloop
  endfacet
  facet normal 0 0 1
    outer loop
      vertex 2.00899 -0.156815 0.4
      vertex -2.06599 -1.78381 0.4
      vertex -1.019 -1.64882 0.4
    endloop
  endfacet
  facet normal 0 0 1
    outer loop
      vertex -5.125 1.50517 0.4
      vertex -2.28299 2.09517 0.4
      vertex -2.28299 2.12917 0.4
    endloop
  endfacet
  facet normal -0 0 1
    outer loop
      vertex 3.08099 -0.0278168 0.4
      vertex 5.37099 -0.542816 0.4
      vertex 3.08099 0.00616455 0.4
    endloop
  endfacet
  facet normal 0 0 1
    outer loop
      vertex 5.37099 0.704163 0.4
      vertex 3.08099 0.00616455 0.4
      vertex 5.37099 -0.542816 0.4
    endloop
  endfacet
  facet normal 0 -0 1
    outer loop
      vertex 2.00899 0.148163 0.4
      vertex 5.37099 0.704163 0.4
      vertex -1.26599 1.96617 0.4
    endloop
  endfacet
  facet normal 0 -0 1
    outer loop
      vertex 3.08099 0.00616455 0.4
      vertex 5.37099 0.704163 0.4
      vertex 2.00899 0.148163 0.4
    endloop
  endfacet
  facet normal 0 0 1
    outer loop
      vertex -2.06599 -1.78381 0.4
      vertex -5.125 -1.37782 0.4
      vertex -2.06599 -1.81781 0.4
    endloop
  endfacet
  facet normal 0 0 1
    outer loop
      vertex -2.06599 -1.81781 0.4
      vertex -5.125 -2.65881 0.4
      vertex -1.00099 -1.91281 0.4
    endloop
  endfacet
  facet normal 0 0 1
    outer loop
      vertex -1.00099 -1.91281 0.4
      vertex 5.37099 -3.87982 0.4
      vertex 5.37099 -2.63182 0.4
    endloop
  endfacet
  facet normal 0 0 1
    outer loop
      vertex -1.00099 -1.91281 0.4
      vertex -5.125 -2.65881 0.4
      vertex 5.37099 -3.87982 0.4
    endloop
  endfacet
  facet normal 0 0 1
    outer loop
      vertex -2.06599 -1.81781 0.4
      vertex -5.125 -1.37782 0.4
      vertex -5.125 -2.65881 0.4
    endloop
  endfacet
  facet normal 0 0 -1
    outer loop
      vertex 5.37099 -0.542816 -5.96046e-09
      vertex 2.00899 -0.156815 -5.96046e-09
      vertex 3.08099 -0.0278168 -5.96046e-09
    endloop
  endfacet
  facet normal -0 0 -1
    outer loop
      vertex -2.28299 2.12917 -5.96046e-09
      vertex -5.125 1.50517 -5.96046e-09
      vertex -5.125 2.80017 -5.96046e-09
    endloop
  endfacet
  facet normal -0 0 -1
    outer loop
      vertex 5.37099 -0.542816 -5.96046e-09
      vertex -1.019 -1.64882 -5.96046e-09
      vertex 2.00899 -0.156815 -5.96046e-09
    endloop
  endfacet
  facet normal 0 -0 -1
    outer loop
      vertex -2.28299 2.09517 -5.96046e-09
      vertex -1.26599 1.96617 -5.96046e-09
      vertex -5.125 1.50517 -5.96046e-09
    endloop
  endfacet
  facet normal -0 0 -1
    outer loop
      vertex -1.26199 2.21017 -5.96046e-09
      vertex -2.28299 2.12917 -5.96046e-09
      vertex -5.125 2.80017 -5.96046e-09
    endloop
  endfacet
  facet normal 0 0 -1
    outer loop
      vertex -2.06599 -1.78381 -5.96046e-09
      vertex -5.125 -1.37782 -5.96046e-09
      vertex 2.00899 -0.156815 -5.96046e-09
    endloop
  endfacet
  facet normal 0 0 -1
    outer loop
      vertex 5.37099 4.07516 -5.96046e-09
      vertex -1.26199 2.21017 -5.96046e-09
      vertex -5.125 2.80017 -5.96046e-09
    endloop
  endfacet
  facet normal 0 -0 -1
    outer loop
      vertex -1.26599 1.96617 -5.96046e-09
      vertex 2.00899 0.148163 -5.96046e-09
      vertex -5.125 1.50517 -5.96046e-09
    endloop
  endfacet
  facet normal -0 0 -1
    outer loop
      vertex 5.37099 3.00317 -5.96046e-09
      vertex -1.26199 2.21017 -5.96046e-09
      vertex 5.37099 4.07516 -5.96046e-09
    endloop
  endfacet
  facet normal -0 0 -1
    outer loop
      vertex -1.019 -1.64882 -5.96046e-09
      vertex -2.06599 -1.78381 -5.96046e-09
      vertex 2.00899 -0.156815 -5.96046e-09
    endloop
  endfacet
  facet normal 0 -0 -1
    outer loop
      vertex -2.28299 2.12917 -5.96046e-09
      vertex -2.28299 2.09517 -5.96046e-09
      vertex -5.125 1.50517 -5.96046e-09
    endloop
  endfacet
  facet normal 0 0 -1
    outer loop
      vertex 3.08099 0.00616455 -5.96046e-09
      vertex 5.37099 -0.542816 -5.96046e-09
      vertex 3.08099 -0.0278168 -5.96046e-09
    endloop
  endfacet
  facet normal 0 0 -1
    outer loop
      vertex 5.37099 -0.542816 -5.96046e-09
      vertex 3.08099 0.00616455 -5.96046e-09
      vertex 5.37099 0.704163 -5.96046e-09
    endloop
  endfacet
  facet normal 0 0 -1
    outer loop
      vertex -1.26599 1.96617 -5.96046e-09
      vertex 5.37099 0.704163 -5.96046e-09
      vertex 2.00899 0.148163 -5.96046e-09
    endloop
  endfacet
  facet normal 0 0 -1
    outer loop
      vertex 2.00899 0.148163 -5.96046e-09
      vertex 5.37099 0.704163 -5.96046e-09
      vertex 3.08099 0.00616455 -5.96046e-09
    endloop
  endfacet
  facet normal 0 0 -1
    outer loop
      vertex -2.06599 -1.81781 -5.96046e-09
      vertex -5.125 -1.37782 -5.96046e-09
      vertex -2.06599 -1.78381 -5.96046e-09
    endloop
  endfacet
  facet normal -0 0 -1
    outer loop
      vertex -1.00099 -1.91281 -5.96046e-09
      vertex -5.125 -2.65881 -5.96046e-09
      vertex -2.06599 -1.81781 -5.96046e-09
    endloop
  endfacet
  facet normal -0 -0 -1
    outer loop
      vertex 5.37099 -2.63182 -5.96046e-09
      vertex 5.37099 -3.87982 -5.96046e-09
      vertex -1.00099 -1.91281 -5.96046e-09
    endloop
  endfacet
  facet normal 0 0 -1
    outer loop
      vertex 5.37099 -3.87982 -5.96046e-09
      vertex -5.125 -2.65881 -5.96046e-09
      vertex -1.00099 -1.91281 -5.96046e-09
    endloop
  endfacet
  facet normal 0 0 -1
    outer loop
      vertex -5.125 -2.65881 -5.96046e-09
      vertex -5.125 -1.37782 -5.96046e-09
      vertex -2.06599 -1.81781 -5.96046e-09
    endloop
  endfacet
  facet normal -0.119472 0.992838 0
    outer loop
      vertex 3.08099 -0.0278168 0.4
      vertex 2.00899 -0.156815 -5.96046e-09
      vertex 2.00899 -0.156815 0.4
    endloop
  endfacet
  facet normal -0.119472 0.992838 0
    outer loop
      vertex 3.08099 -0.0278168 0.4
      vertex 3.08099 -0.0278168 -5.96046e-09
      vertex 2.00899 -0.156815 -5.96046e-09
    endloop
  endfacet
  facet normal -1 -0 0
    outer loop
      vertex 3.08099 0.00616455 0.4
      vertex 3.08099 -0.0278168 -5.96046e-09
      vertex 3.08099 -0.0278168 0.4
    endloop
  endfacet
  facet normal -1 0 -0
    outer loop
      vertex 3.08099 0.00616455 0.4
      vertex 3.08099 0.00616455 -5.96046e-09
      vertex 3.08099 -0.0278168 -5.96046e-09
    endloop
  endfacet
  facet normal -0.131314 -0.991341 0
    outer loop
      vertex 2.00899 0.148163 0.4
      vertex 3.08099 0.00616455 -5.96046e-09
      vertex 3.08099 0.00616455 0.4
    endloop
  endfacet
  facet normal -0.131314 -0.991341 -0
    outer loop
      vertex 2.00899 0.148163 0.4
      vertex 2.00899 0.148163 -5.96046e-09
      vertex 3.08099 0.00616455 -5.96046e-09
    endloop
  endfacet
  facet normal -0.186867 -0.982385 0
    outer loop
      vertex -5.125 1.50517 0.4
      vertex 2.00899 0.148163 -5.96046e-09
      vertex 2.00899 0.148163 0.4
    endloop
  endfacet
  facet normal -0.186867 -0.982385 -0
    outer loop
      vertex -5.125 1.50517 0.4
      vertex -5.125 1.50517 -5.96046e-09
      vertex 2.00899 0.148163 -5.96046e-09
    endloop
  endfacet
  facet normal -1 -0 0
    outer loop
      vertex -5.125 2.80017 0.4
      vertex -5.125 1.50517 -5.96046e-09
      vertex -5.125 1.50517 0.4
    endloop
  endfacet
  facet normal -1 0 -0
    outer loop
      vertex -5.125 2.80017 0.4
      vertex -5.125 2.80017 -5.96046e-09
      vertex -5.125 1.50517 -5.96046e-09
    endloop
  endfacet
  facet normal -0.120588 0.992703 0
    outer loop
      vertex 5.37099 4.07516 0.4
      vertex -5.125 2.80017 -5.96046e-09
      vertex -5.125 2.80017 0.4
    endloop
  endfacet
  facet normal -0.120588 0.992703 0
    outer loop
      vertex 5.37099 4.07516 0.4
      vertex 5.37099 4.07516 -5.96046e-09
      vertex -5.125 2.80017 -5.96046e-09
    endloop
  endfacet
  facet normal 1 -0 0
    outer loop
      vertex 5.37099 3.00317 0.4
      vertex 5.37099 4.07516 -5.96046e-09
      vertex 5.37099 4.07516 0.4
    endloop
  endfacet
  facet normal 1 0 0
    outer loop
      vertex 5.37099 3.00317 0.4
      vertex 5.37099 3.00317 -5.96046e-09
      vertex 5.37099 4.07516 -5.96046e-09
    endloop
  endfacet
  facet normal 0.118709 -0.992929 0
    outer loop
      vertex -1.26199 2.21017 0.4
      vertex 5.37099 3.00317 -5.96046e-09
      vertex 5.37099 3.00317 0.4
    endloop
  endfacet
  facet normal 0.118709 -0.992929 0
    outer loop
      vertex -1.26199 2.21017 0.4
      vertex -1.26199 2.21017 -5.96046e-09
      vertex 5.37099 3.00317 -5.96046e-09
    endloop
  endfacet
  facet normal 0.0790855 -0.996868 0
    outer loop
      vertex -2.28299 2.12917 0.4
      vertex -1.26199 2.21017 -5.96046e-09
      vertex -1.26199 2.21017 0.4
    endloop
  endfacet
  facet normal 0.0790855 -0.996868 0
    outer loop
      vertex -2.28299 2.12917 0.4
      vertex -2.28299 2.12917 -5.96046e-09
      vertex -1.26199 2.21017 -5.96046e-09
    endloop
  endfacet
  facet normal 1 -0 0
    outer loop
      vertex -2.28299 2.09517 0.4
      vertex -2.28299 2.12917 -5.96046e-09
      vertex -2.28299 2.12917 0.4
    endloop
  endfacet
  facet normal 1 0 0
    outer loop
      vertex -2.28299 2.09517 0.4
      vertex -2.28299 2.09517 -5.96046e-09
      vertex -2.28299 2.12917 -5.96046e-09
    endloop
  endfacet
  facet normal 0.125835 0.992051 0
    outer loop
      vertex -1.26599 1.96617 0.4
      vertex -2.28299 2.09517 -5.96046e-09
      vertex -2.28299 2.09517 0.4
    endloop
  endfacet
  facet normal 0.125835 0.992051 0
    outer loop
      vertex -1.26599 1.96617 0.4
      vertex -1.26599 1.96617 -5.96046e-09
      vertex -2.28299 2.09517 -5.96046e-09
    endloop
  endfacet
  facet normal 0.186801 0.982398 0
    outer loop
      vertex 5.37099 0.704163 0.4
      vertex -1.26599 1.96617 -5.96046e-09
      vertex -1.26599 1.96617 0.4
    endloop
  endfacet
  facet normal 0.186801 0.982398 0
    outer loop
      vertex 5.37099 0.704163 0.4
      vertex 5.37099 0.704163 -5.96046e-09
      vertex -1.26599 1.96617 -5.96046e-09
    endloop
  endfacet
  facet normal 1 -0 0
    outer loop
      vertex 5.37099 -0.542816 0.4
      vertex 5.37099 0.704163 -5.96046e-09
      vertex 5.37099 0.704163 0.4
    endloop
  endfacet
  facet normal 1 0 0
    outer loop
      vertex 5.37099 -0.542816 0.4
      vertex 5.37099 -0.542816 -5.96046e-09
      vertex 5.37099 0.704163 -5.96046e-09
    endloop
  endfacet
  facet normal 0.170548 -0.985349 0
    outer loop
      vertex -1.019 -1.64882 0.4
      vertex 5.37099 -0.542816 -5.96046e-09
      vertex 5.37099 -0.542816 0.4
    endloop
  endfacet
  facet normal 0.170548 -0.985349 0
    outer loop
      vertex -1.019 -1.64882 0.4
      vertex -1.019 -1.64882 -5.96046e-09
      vertex 5.37099 -0.542816 -5.96046e-09
    endloop
  endfacet
  facet normal 0.127873 -0.991791 0
    outer loop
      vertex -2.06599 -1.78381 0.4
      vertex -1.019 -1.64882 -5.96046e-09
      vertex -1.019 -1.64882 0.4
    endloop
  endfacet
  facet normal 0.127873 -0.991791 0
    outer loop
      vertex -2.06599 -1.78381 0.4
      vertex -2.06599 -1.78381 -5.96046e-09
      vertex -1.019 -1.64882 -5.96046e-09
    endloop
  endfacet
  facet normal 1 -0 0
    outer loop
      vertex -2.06599 -1.81781 0.4
      vertex -2.06599 -1.78381 -5.96046e-09
      vertex -2.06599 -1.78381 0.4
    endloop
  endfacet
  facet normal 1 0 0
    outer loop
      vertex -2.06599 -1.81781 0.4
      vertex -2.06599 -1.81781 -5.96046e-09
      vertex -2.06599 -1.78381 -5.96046e-09
    endloop
  endfacet
  facet normal 0.0888491 0.996045 0
    outer loop
      vertex -1.00099 -1.91281 0.4
      vertex -2.06599 -1.81781 -5.96046e-09
      vertex -2.06599 -1.81781 0.4
    endloop
  endfacet
  facet normal 0.0888491 0.996045 0
    outer loop
      vertex -1.00099 -1.91281 0.4
      vertex -1.00099 -1.91281 -5.96046e-09
      vertex -2.06599 -1.81781 -5.96046e-09
    endloop
  endfacet
  facet normal 0.112128 0.993694 0
    outer loop
      vertex 5.37099 -2.63182 0.4
      vertex -1.00099 -1.91281 -5.96046e-09
      vertex -1.00099 -1.91281 0.4
    endloop
  endfacet
  facet normal 0.112128 0.993694 0
    outer loop
      vertex 5.37099 -2.63182 0.4
      vertex 5.37099 -2.63182 -5.96046e-09
      vertex -1.00099 -1.91281 -5.96046e-09
    endloop
  endfacet
  facet normal 1 -0 0
    outer loop
      vertex 5.37099 -3.87982 0.4
      vertex 5.37099 -2.63182 -5.96046e-09
      vertex 5.37099 -2.63182 0.4
    endloop
  endfacet
  facet normal 1 0 0
    outer loop
      vertex 5.37099 -3.87982 0.4
      vertex 5.37099 -3.87982 -5.96046e-09
      vertex 5.37099 -2.63182 -5.96046e-09
    endloop
  endfacet
  facet normal -0.115552 -0.993301 0
    outer loop
      vertex -5.125 -2.65881 0.4
      vertex 5.37099 -3.87982 -5.96046e-09
      vertex 5.37099 -3.87982 0.4
    endloop
  endfacet
  facet normal -0.115552 -0.993301 -0
    outer loop
      vertex -5.125 -2.65881 0.4
      vertex -5.125 -2.65881 -5.96046e-09
      vertex 5.37099 -3.87982 -5.96046e-09
    endloop
  endfacet
  facet normal -1 -0 0
    outer loop
      vertex -5.125 -1.37782 0.4
      vertex -5.125 -2.65881 -5.96046e-09
      vertex -5.125 -2.65881 0.4
    endloop
  endfacet
  facet normal -1 0 -0
    outer loop
      vertex -5.125 -1.37782 0.4
      vertex -5.125 -1.37782 -5.96046e-09
      vertex -5.125 -2.65881 -5.96046e-09
    endloop
  endfacet
  facet normal -0.1687 0.985667 0
    outer loop
      vertex 2.00899 -0.156815 0.4
      vertex -5.125 -1.37782 -5.96046e-09
      vertex -5.125 -1.37782 0.4
    endloop
  endfacet
  facet normal -0.1687 0.985667 0
    outer loop
      vertex 2.00899 -0.156815 0.4
      vertex 2.00899 -0.156815 -5.96046e-09
      vertex -5.125 -1.37782 -5.96046e-09
    endloop
  endfacet
endsolid OpenSCAD_Model
