solid OpenSCAD_Model
  facet normal 0 0 1
    outer loop
      vertex -3.07686 4.125 0.4
      vertex -0.483856 -4.323 0.4
      vertex -1.19385 1.50099 0.4
    endloop
  endfacet
  facet normal 0 0 1
    outer loop
      vertex 1.50713 2.33299 0.4
      vertex -1.19385 1.50099 0.4
      vertex 1.26314 1.50099 0.4
    endloop
  endfacet
  facet normal 0 0 1
    outer loop
      vertex 1.50713 2.33299 0.4
      vertex 3.23813 4.125 0.4
      vertex 2.08214 4.125 0.4
    endloop
  endfacet
  facet normal -0 0 1
    outer loop
      vertex 1.26314 1.50099 0.4
      vertex 0.629135 -4.323 0.4
      vertex 3.23813 4.125 0.4
    endloop
  endfacet
  facet normal 0 0 1
    outer loop
      vertex -3.07686 4.125 0.4
      vertex -1.19385 1.50099 0.4
      vertex -1.45485 2.33299 0.4
    endloop
  endfacet
  facet normal 0 0 1
    outer loop
      vertex -2.02385 4.125 0.4
      vertex -3.07686 4.125 0.4
      vertex -1.45485 2.33299 0.4
    endloop
  endfacet
  facet normal -0 0 1
    outer loop
      vertex 1.50713 2.33299 0.4
      vertex 1.26314 1.50099 0.4
      vertex 3.23813 4.125 0.4
    endloop
  endfacet
  facet normal 0 0 1
    outer loop
      vertex -0.201859 -1.77299 0.4
      vertex -0.483856 -4.323 0.4
      vertex 0.0101318 -2.653 0.4
    endloop
  endfacet
  facet normal -0 0 1
    outer loop
      vertex -1.45485 2.33299 0.4
      vertex -1.19385 1.50099 0.4
      vertex 1.50713 2.33299 0.4
    endloop
  endfacet
  facet normal 0 0 1
    outer loop
      vertex -1.19385 1.50099 0.4
      vertex -0.483856 -4.323 0.4
      vertex -0.201859 -1.77299 0.4
    endloop
  endfacet
  facet normal -0 0 1
    outer loop
      vertex 0.0101318 -2.653 0.4
      vertex 0.629135 -4.323 0.4
      vertex 0.24913 -1.767 0.4
    endloop
  endfacet
  facet normal 0 0 1
    outer loop
      vertex 0.0101318 -2.653 0.4
      vertex -0.483856 -4.323 0.4
      vertex 0.629135 -4.323 0.4
    endloop
  endfacet
  facet normal -0 0 1
    outer loop
      vertex 0.24913 -1.767 0.4
      vertex 0.629135 -4.323 0.4
      vertex 1.26314 1.50099 0.4
    endloop
  endfacet
  facet normal -0 -0 -1
    outer loop
      vertex -1.19385 1.50099 -5.96046e-09
      vertex -0.483856 -4.323 -5.96046e-09
      vertex -3.07686 4.125 -5.96046e-09
    endloop
  endfacet
  facet normal 0 0 -1
    outer loop
      vertex 1.26314 1.50099 -5.96046e-09
      vertex -1.19385 1.50099 -5.96046e-09
      vertex 1.50713 2.33299 -5.96046e-09
    endloop
  endfacet
  facet normal 0 -0 -1
    outer loop
      vertex 2.08214 4.125 -5.96046e-09
      vertex 3.23813 4.125 -5.96046e-09
      vertex 1.50713 2.33299 -5.96046e-09
    endloop
  endfacet
  facet normal 0 0 -1
    outer loop
      vertex 3.23813 4.125 -5.96046e-09
      vertex 0.629135 -4.323 -5.96046e-09
      vertex 1.26314 1.50099 -5.96046e-09
    endloop
  endfacet
  facet normal -0 -0 -1
    outer loop
      vertex -1.45485 2.33299 -5.96046e-09
      vertex -1.19385 1.50099 -5.96046e-09
      vertex -3.07686 4.125 -5.96046e-09
    endloop
  endfacet
  facet normal 0 0 -1
    outer loop
      vertex -1.45485 2.33299 -5.96046e-09
      vertex -3.07686 4.125 -5.96046e-09
      vertex -2.02385 4.125 -5.96046e-09
    endloop
  endfacet
  facet normal 0 0 -1
    outer loop
      vertex 3.23813 4.125 -5.96046e-09
      vertex 1.26314 1.50099 -5.96046e-09
      vertex 1.50713 2.33299 -5.96046e-09
    endloop
  endfacet
  facet normal -0 0 -1
    outer loop
      vertex 0.0101318 -2.653 -5.96046e-09
      vertex -0.483856 -4.323 -5.96046e-09
      vertex -0.201859 -1.77299 -5.96046e-09
    endloop
  endfacet
  facet normal -0 0 -1
    outer loop
      vertex 1.50713 2.33299 -5.96046e-09
      vertex -1.19385 1.50099 -5.96046e-09
      vertex -1.45485 2.33299 -5.96046e-09
    endloop
  endfacet
  facet normal -0 0 -1
    outer loop
      vertex -0.201859 -1.77299 -5.96046e-09
      vertex -0.483856 -4.323 -5.96046e-09
      vertex -1.19385 1.50099 -5.96046e-09
    endloop
  endfacet
  facet normal 0 -0 -1
    outer loop
      vertex 0.24913 -1.767 -5.96046e-09
      vertex 0.629135 -4.323 -5.96046e-09
      vertex 0.0101318 -2.653 -5.96046e-09
    endloop
  endfacet
  facet normal 0 0 -1
    outer loop
      vertex 0.629135 -4.323 -5.96046e-09
      vertex -0.483856 -4.323 -5.96046e-09
      vertex 0.0101318 -2.653 -5.96046e-09
    endloop
  endfacet
  facet normal 0 0 -1
    outer loop
      vertex 1.26314 1.50099 -5.96046e-09
      vertex 0.629135 -4.323 -5.96046e-09
      vertex 0.24913 -1.767 -5.96046e-09
    endloop
  endfacet
  facet normal 0 1 0
    outer loop
      vertex 1.50713 2.33299 0.4
      vertex -1.45485 2.33299 -5.96046e-09
      vertex -1.45485 2.33299 0.4
    endloop
  endfacet
  facet normal 0 1 0
    outer loop
      vertex 1.50713 2.33299 0.4
      vertex 1.50713 2.33299 -5.96046e-09
      vertex -1.45485 2.33299 -5.96046e-09
    endloop
  endfacet
  facet normal -0.952182 0.305531 0
    outer loop
      vertex 2.08214 4.125 0.4
      vertex 1.50713 2.33299 -5.96046e-09
      vertex 1.50713 2.33299 0.4
    endloop
  endfacet
  facet normal -0.952182 0.305531 0
    outer loop
      vertex 2.08214 4.125 0.4
      vertex 2.08214 4.125 -5.96046e-09
      vertex 1.50713 2.33299 -5.96046e-09
    endloop
  endfacet
  facet normal 0 1 0
    outer loop
      vertex 3.23813 4.125 0.4
      vertex 2.08214 4.125 -5.96046e-09
      vertex 2.08214 4.125 0.4
    endloop
  endfacet
  facet normal 0 1 0
    outer loop
      vertex 3.23813 4.125 0.4
      vertex 3.23813 4.125 -5.96046e-09
      vertex 2.08214 4.125 -5.96046e-09
    endloop
  endfacet
  facet normal 0.955473 -0.295079 0
    outer loop
      vertex 0.629135 -4.323 0.4
      vertex 3.23813 4.125 -5.96046e-09
      vertex 3.23813 4.125 0.4
    endloop
  endfacet
  facet normal 0.955473 -0.295079 0
    outer loop
      vertex 0.629135 -4.323 0.4
      vertex 0.629135 -4.323 -5.96046e-09
      vertex 3.23813 4.125 -5.96046e-09
    endloop
  endfacet
  facet normal 0 -1 0
    outer loop
      vertex -0.483856 -4.323 0.4
      vertex 0.629135 -4.323 -5.96046e-09
      vertex 0.629135 -4.323 0.4
    endloop
  endfacet
  facet normal 0 -1 0
    outer loop
      vertex -0.483856 -4.323 0.4
      vertex -0.483856 -4.323 -5.96046e-09
      vertex 0.629135 -4.323 -5.96046e-09
    endloop
  endfacet
  facet normal -0.955982 -0.293426 0
    outer loop
      vertex -3.07686 4.125 0.4
      vertex -0.483856 -4.323 -5.96046e-09
      vertex -0.483856 -4.323 0.4
    endloop
  endfacet
  facet normal -0.955982 -0.293426 -0
    outer loop
      vertex -3.07686 4.125 0.4
      vertex -3.07686 4.125 -5.96046e-09
      vertex -0.483856 -4.323 -5.96046e-09
    endloop
  endfacet
  facet normal 0 1 0
    outer loop
      vertex -2.02385 4.125 0.4
      vertex -3.07686 4.125 -5.96046e-09
      vertex -3.07686 4.125 0.4
    endloop
  endfacet
  facet normal 0 1 0
    outer loop
      vertex -2.02385 4.125 0.4
      vertex -2.02385 4.125 -5.96046e-09
      vertex -3.07686 4.125 -5.96046e-09
    endloop
  endfacet
  facet normal 0.953108 0.302631 0
    outer loop
      vertex -1.45485 2.33299 0.4
      vertex -2.02385 4.125 -5.96046e-09
      vertex -2.02385 4.125 0.4
    endloop
  endfacet
  facet normal 0.953108 0.302631 0
    outer loop
      vertex -1.45485 2.33299 0.4
      vertex -1.45485 2.33299 -5.96046e-09
      vertex -2.02385 4.125 -5.96046e-09
    endloop
  endfacet
  facet normal 0.957034 0.289974 0
    outer loop
      vertex -0.201859 -1.77299 0.4
      vertex -0.201859 -1.77299 -5.96046e-09
      vertex -1.19385 1.50099 0.4
    endloop
  endfacet
  facet normal 0.957034 0.289974 -0
    outer loop
      vertex -1.19385 1.50099 -5.96046e-09
      vertex -1.19385 1.50099 0.4
      vertex -0.201859 -1.77299 -5.96046e-09
    endloop
  endfacet
  facet normal 0.972189 0.234196 0
    outer loop
      vertex 0.0101318 -2.653 0.4
      vertex 0.0101318 -2.653 -5.96046e-09
      vertex -0.201859 -1.77299 0.4
    endloop
  endfacet
  facet normal 0.972189 0.234196 -0
    outer loop
      vertex -0.201859 -1.77299 -5.96046e-09
      vertex -0.201859 -1.77299 0.4
      vertex 0.0101318 -2.653 -5.96046e-09
    endloop
  endfacet
  facet normal -0.96549 0.260441 0
    outer loop
      vertex 0.24913 -1.767 0.4
      vertex 0.24913 -1.767 -5.96046e-09
      vertex 0.0101318 -2.653 0.4
    endloop
  endfacet
  facet normal -0.96549 0.260441 0
    outer loop
      vertex 0.0101318 -2.653 -5.96046e-09
      vertex 0.0101318 -2.653 0.4
      vertex 0.24913 -1.767 -5.96046e-09
    endloop
  endfacet
  facet normal -0.95508 0.296348 0
    outer loop
      vertex 1.26314 1.50099 0.4
      vertex 1.26314 1.50099 -5.96046e-09
      vertex 0.24913 -1.767 0.4
    endloop
  endfacet
  facet normal -0.95508 0.296348 0
    outer loop
      vertex 0.24913 -1.767 -5.96046e-09
      vertex 0.24913 -1.767 0.4
      vertex 1.26314 1.50099 -5.96046e-09
    endloop
  endfacet
  facet normal 0 -1 0
    outer loop
      vertex -1.19385 1.50099 0.4
      vertex -1.19385 1.50099 -5.96046e-09
      vertex 1.26314 1.50099 0.4
    endloop
  endfacet
  facet normal 0 -1 0
    outer loop
      vertex 1.26314 1.50099 -5.96046e-09
      vertex 1.26314 1.50099 0.4
      vertex -1.19385 1.50099 -5.96046e-09
    endloop
  endfacet
endsolid OpenSCAD_Model
