solid OpenSCAD_Model
  facet normal 0 0 1
    outer loop
      vertex -2.51755 1.94897 0.4
      vertex -3.21924 3.02605 0.4
      vertex -2.88524 1.75842 0.4
    endloop
  endfacet
  facet normal 0 0 1
    outer loop
      vertex -2.10199 2.09717 0.4
      vertex -2.65999 3.27116 0.4
      vertex -2.51755 1.94897 0.4
    endloop
  endfacet
  facet normal 0 0 1
    outer loop
      vertex -2.88524 1.75842 0.4
      vertex -3.70999 2.73466 0.4
      vertex -3.20505 1.52548 0.4
    endloop
  endfacet
  facet normal 0 -0 1
    outer loop
      vertex -3.47699 1.25017 0.4
      vertex -3.20505 1.52548 0.4
      vertex -4.13225 2.39705 0.4
    endloop
  endfacet
  facet normal -0 0 1
    outer loop
      vertex -2.65999 3.27116 0.4
      vertex -2.10199 2.09717 0.4
      vertex -2.04262 3.46542 0.4
    endloop
  endfacet
  facet normal -0 0 1
    outer loop
      vertex -2.04262 3.46542 0.4
      vertex -1.62024 2.20872 0.4
      vertex -1.37749 3.60417 0.4
    endloop
  endfacet
  facet normal 0 0 1
    outer loop
      vertex -3.69398 0.903793 0.4
      vertex -4.76555 1.54942 0.4
      vertex -4.96524 0.972168 0.4
    endloop
  endfacet
  facet normal 0 0 1
    outer loop
      vertex -0.664612 3.68742 0.4
      vertex -1.37749 3.60417 0.4
      vertex -1.05499 2.28842 0.4
    endloop
  endfacet
  facet normal 0 0 1
    outer loop
      vertex 0.095993 3.71516 0.4
      vertex -0.664612 3.68742 0.4
      vertex -0.40625 2.33623 0.4
    endloop
  endfacet
  facet normal 0 0 1
    outer loop
      vertex 0.896561 3.68886 0.4
      vertex 0.325989 2.35217 0.4
      vertex 1.03975 2.33348 0.4
    endloop
  endfacet
  facet normal 0 0 1
    outer loop
      vertex 1.64124 3.60992 0.4
      vertex 1.66599 2.27742 0.4
      vertex 2.33005 3.47836 0.4
    endloop
  endfacet
  facet normal 0 -0 1
    outer loop
      vertex 3.03993 1.88805 0.4
      vertex 3.53018 3.05804 0.4
      vertex 2.65599 2.05316 0.4
    endloop
  endfacet
  facet normal 0 0 1
    outer loop
      vertex 3.909 1.19917 0.4
      vertex 5.03406 1.56236 0.4
      vertex 4.77199 2.03616 0.4
    endloop
  endfacet
  facet normal 0 -0 1
    outer loop
      vertex 4.31961 -0.0353241 0.4
      vertex 5.33356 0.282852 0.4
      vertex 4.23749 0.465164 0.4
    endloop
  endfacet
  facet normal -0 0 1
    outer loop
      vertex 4.23749 0.465164 0.4
      vertex 5.33356 0.282852 0.4
      vertex 5.22124 0.977921 0.4
    endloop
  endfacet
  facet normal -0 0 1
    outer loop
      vertex 4.31961 -0.0353241 0.4
      vertex 5.37099 -0.522812 0.4
      vertex 5.33356 0.282852 0.4
    endloop
  endfacet
  facet normal 0 -0 1
    outer loop
      vertex 4.23749 0.465164 0.4
      vertex 5.22124 0.977921 0.4
      vertex 4.10062 0.876663 0.4
    endloop
  endfacet
  facet normal 0 0 1
    outer loop
      vertex 5.37099 -0.522812 0.4
      vertex 4.31961 -0.0353241 0.4
      vertex 4.34698 -0.624817 0.4
    endloop
  endfacet
  facet normal -0 0 1
    outer loop
      vertex 4.34698 -0.624817 0.4
      vertex 4.34698 -1.64882 0.4
      vertex 5.37099 -0.522812 0.4
    endloop
  endfacet
  facet normal 0 -0 1
    outer loop
      vertex 3.37674 1.69067 0.4
      vertex 4.02074 2.76967 0.4
      vertex 3.03993 1.88805 0.4
    endloop
  endfacet
  facet normal 0 0 1
    outer loop
      vertex 2.65599 2.05316 0.4
      vertex 3.53018 3.05804 0.4
      vertex 2.963 3.29417 0.4
    endloop
  endfacet
  facet normal 0 0 1
    outer loop
      vertex -5.08505 0.281418 0.4
      vertex -5.125 -0.522812 0.4
      vertex -3.94199 -0.0881958 0.4
    endloop
  endfacet
  facet normal 0 0 1
    outer loop
      vertex -3.97299 -0.73381 0.4
      vertex -5.125 -0.522812 0.4
      vertex -3.97299 -1.64882 0.4
    endloop
  endfacet
  facet normal 0 0 1
    outer loop
      vertex -5.125 -0.522812 0.4
      vertex -5.125 -3.01881 0.4
      vertex -3.97299 -1.64882 0.4
    endloop
  endfacet
  facet normal 0 0 1
    outer loop
      vertex -3.97299 -1.64882 0.4
      vertex -5.125 -3.01881 0.4
      vertex 5.37099 -3.01881 0.4
    endloop
  endfacet
  facet normal 0 0 1
    outer loop
      vertex 5.37099 -0.522812 0.4
      vertex 4.34698 -1.64882 0.4
      vertex 5.37099 -3.01881 0.4
    endloop
  endfacet
  facet normal 0 0 1
    outer loop
      vertex 4.34698 -1.64882 0.4
      vertex -3.97299 -1.64882 0.4
      vertex 5.37099 -3.01881 0.4
    endloop
  endfacet
  facet normal 0 0 1
    outer loop
      vertex 4.10062 0.876663 0.4
      vertex 5.22124 0.977921 0.4
      vertex 5.03406 1.56236 0.4
    endloop
  endfacet
  facet normal -0 0 1
    outer loop
      vertex 3.909 1.19917 0.4
      vertex 4.10062 0.876663 0.4
      vertex 5.03406 1.56236 0.4
    endloop
  endfacet
  facet normal -0 0 1
    outer loop
      vertex 3.66643 1.46104 0.4
      vertex 3.909 1.19917 0.4
      vertex 4.77199 2.03616 0.4
    endloop
  endfacet
  facet normal 0 0 1
    outer loop
      vertex 4.43468 2.42905 0.4
      vertex 3.37674 1.69067 0.4
      vertex 3.66643 1.46104 0.4
    endloop
  endfacet
  facet normal 0 0 1
    outer loop
      vertex 4.43468 2.42905 0.4
      vertex 3.66643 1.46104 0.4
      vertex 4.77199 2.03616 0.4
    endloop
  endfacet
  facet normal 0 0 1
    outer loop
      vertex 4.43468 2.42905 0.4
      vertex 4.02074 2.76967 0.4
      vertex 3.37674 1.69067 0.4
    endloop
  endfacet
  facet normal 0 0 1
    outer loop
      vertex 4.02074 2.76967 0.4
      vertex 3.53018 3.05804 0.4
      vertex 3.03993 1.88805 0.4
    endloop
  endfacet
  facet normal 0 0 1
    outer loop
      vertex 2.33005 3.47836 0.4
      vertex 2.20474 2.18398 0.4
      vertex 2.963 3.29417 0.4
    endloop
  endfacet
  facet normal -0 0 1
    outer loop
      vertex 2.20474 2.18398 0.4
      vertex 2.65599 2.05316 0.4
      vertex 2.963 3.29417 0.4
    endloop
  endfacet
  facet normal -0 0 1
    outer loop
      vertex 1.66599 2.27742 0.4
      vertex 2.20474 2.18398 0.4
      vertex 2.33005 3.47836 0.4
    endloop
  endfacet
  facet normal -0 0 1
    outer loop
      vertex 1.03975 2.33348 0.4
      vertex 1.66599 2.27742 0.4
      vertex 1.64124 3.60992 0.4
    endloop
  endfacet
  facet normal 0 0 1
    outer loop
      vertex 0.896561 3.68886 0.4
      vertex 1.03975 2.33348 0.4
      vertex 1.64124 3.60992 0.4
    endloop
  endfacet
  facet normal 0 0 1
    outer loop
      vertex 0.095993 3.71516 0.4
      vertex 0.325989 2.35217 0.4
      vertex 0.896561 3.68886 0.4
    endloop
  endfacet
  facet normal 0 0 1
    outer loop
      vertex 0.095993 3.71516 0.4
      vertex -0.40625 2.33623 0.4
      vertex 0.325989 2.35217 0.4
    endloop
  endfacet
  facet normal 0 0 1
    outer loop
      vertex -0.664612 3.68742 0.4
      vertex -1.05499 2.28842 0.4
      vertex -0.40625 2.33623 0.4
    endloop
  endfacet
  facet normal 0 0 1
    outer loop
      vertex -1.37749 3.60417 0.4
      vertex -1.62024 2.20872 0.4
      vertex -1.05499 2.28842 0.4
    endloop
  endfacet
  facet normal 0 0 1
    outer loop
      vertex -2.04262 3.46542 0.4
      vertex -2.10199 2.09717 0.4
      vertex -1.62024 2.20872 0.4
    endloop
  endfacet
  facet normal -0 0 1
    outer loop
      vertex -3.21924 3.02605 0.4
      vertex -2.51755 1.94897 0.4
      vertex -2.65999 3.27116 0.4
    endloop
  endfacet
  facet normal -0 0 1
    outer loop
      vertex -3.70999 2.73466 0.4
      vertex -2.88524 1.75842 0.4
      vertex -3.21924 3.02605 0.4
    endloop
  endfacet
  facet normal -0 0 1
    outer loop
      vertex -4.13225 2.39705 0.4
      vertex -3.20505 1.52548 0.4
      vertex -3.70999 2.73466 0.4
    endloop
  endfacet
  facet normal -0 0 1
    outer loop
      vertex -4.48599 2.01317 0.4
      vertex -3.47699 1.25017 0.4
      vertex -4.13225 2.39705 0.4
    endloop
  endfacet
  facet normal 0 0 1
    outer loop
      vertex -4.48599 2.01317 0.4
      vertex -4.76555 1.54942 0.4
      vertex -3.47699 1.25017 0.4
    endloop
  endfacet
  facet normal 0 0 1
    outer loop
      vertex -3.47699 1.25017 0.4
      vertex -4.76555 1.54942 0.4
      vertex -3.69398 0.903793 0.4
    endloop
  endfacet
  facet normal 0 0 1
    outer loop
      vertex -3.69398 0.903793 0.4
      vertex -4.96524 0.972168 0.4
      vertex -3.849 0.457672 0.4
    endloop
  endfacet
  facet normal 0 0 1
    outer loop
      vertex -3.849 0.457672 0.4
      vertex -4.96524 0.972168 0.4
      vertex -5.08505 0.281418 0.4
    endloop
  endfacet
  facet normal 0 -0 1
    outer loop
      vertex -3.97299 -0.73381 0.4
      vertex -3.94199 -0.0881958 0.4
      vertex -5.125 -0.522812 0.4
    endloop
  endfacet
  facet normal 0 -0 1
    outer loop
      vertex -3.94199 -0.0881958 0.4
      vertex -3.849 0.457672 0.4
      vertex -5.08505 0.281418 0.4
    endloop
  endfacet
  facet normal 0 0 -1
    outer loop
      vertex -2.88524 1.75842 -5.96046e-09
      vertex -3.21924 3.02605 -5.96046e-09
      vertex -2.51755 1.94897 -5.96046e-09
    endloop
  endfacet
  facet normal 0 0 -1
    outer loop
      vertex -2.51755 1.94897 -5.96046e-09
      vertex -2.65999 3.27116 -5.96046e-09
      vertex -2.10199 2.09717 -5.96046e-09
    endloop
  endfacet
  facet normal 0 0 -1
    outer loop
      vertex -3.20505 1.52548 -5.96046e-09
      vertex -3.70999 2.73466 -5.96046e-09
      vertex -2.88524 1.75842 -5.96046e-09
    endloop
  endfacet
  facet normal 0 0 -1
    outer loop
      vertex -4.13225 2.39705 -5.96046e-09
      vertex -3.20505 1.52548 -5.96046e-09
      vertex -3.47699 1.25017 -5.96046e-09
    endloop
  endfacet
  facet normal 0 0 -1
    outer loop
      vertex -2.04262 3.46542 -5.96046e-09
      vertex -2.10199 2.09717 -5.96046e-09
      vertex -2.65999 3.27116 -5.96046e-09
    endloop
  endfacet
  facet normal 0 0 -1
    outer loop
      vertex -1.37749 3.60417 -5.96046e-09
      vertex -1.62024 2.20872 -5.96046e-09
      vertex -2.04262 3.46542 -5.96046e-09
    endloop
  endfacet
  facet normal 0 0 -1
    outer loop
      vertex -4.96524 0.972168 -5.96046e-09
      vertex -4.76555 1.54942 -5.96046e-09
      vertex -3.69398 0.903793 -5.96046e-09
    endloop
  endfacet
  facet normal 0 0 -1
    outer loop
      vertex -1.05499 2.28842 -5.96046e-09
      vertex -1.37749 3.60417 -5.96046e-09
      vertex -0.664612 3.68742 -5.96046e-09
    endloop
  endfacet
  facet normal 0 0 -1
    outer loop
      vertex -0.40625 2.33623 -5.96046e-09
      vertex -0.664612 3.68742 -5.96046e-09
      vertex 0.095993 3.71516 -5.96046e-09
    endloop
  endfacet
  facet normal 0 0 -1
    outer loop
      vertex 1.03975 2.33348 -5.96046e-09
      vertex 0.325989 2.35217 -5.96046e-09
      vertex 0.896561 3.68886 -5.96046e-09
    endloop
  endfacet
  facet normal -0 0 -1
    outer loop
      vertex 2.33005 3.47836 -5.96046e-09
      vertex 1.66599 2.27742 -5.96046e-09
      vertex 1.64124 3.60992 -5.96046e-09
    endloop
  endfacet
  facet normal 0 0 -1
    outer loop
      vertex 2.65599 2.05316 -5.96046e-09
      vertex 3.53018 3.05804 -5.96046e-09
      vertex 3.03993 1.88805 -5.96046e-09
    endloop
  endfacet
  facet normal 0 -0 -1
    outer loop
      vertex 4.77199 2.03616 -5.96046e-09
      vertex 5.03406 1.56236 -5.96046e-09
      vertex 3.909 1.19917 -5.96046e-09
    endloop
  endfacet
  facet normal 0 0 -1
    outer loop
      vertex 4.23749 0.465164 -5.96046e-09
      vertex 5.33356 0.282852 -5.96046e-09
      vertex 4.31961 -0.0353241 -5.96046e-09
    endloop
  endfacet
  facet normal 0 -0 -1
    outer loop
      vertex 5.22124 0.977921 -5.96046e-09
      vertex 5.33356 0.282852 -5.96046e-09
      vertex 4.23749 0.465164 -5.96046e-09
    endloop
  endfacet
  facet normal 0 -0 -1
    outer loop
      vertex 5.33356 0.282852 -5.96046e-09
      vertex 5.37099 -0.522812 -5.96046e-09
      vertex 4.31961 -0.0353241 -5.96046e-09
    endloop
  endfacet
  facet normal 0 0 -1
    outer loop
      vertex 4.10062 0.876663 -5.96046e-09
      vertex 5.22124 0.977921 -5.96046e-09
      vertex 4.23749 0.465164 -5.96046e-09
    endloop
  endfacet
  facet normal 0 0 -1
    outer loop
      vertex 4.34698 -0.624817 -5.96046e-09
      vertex 4.31961 -0.0353241 -5.96046e-09
      vertex 5.37099 -0.522812 -5.96046e-09
    endloop
  endfacet
  facet normal 0 0 -1
    outer loop
      vertex 5.37099 -0.522812 -5.96046e-09
      vertex 4.34698 -1.64882 -5.96046e-09
      vertex 4.34698 -0.624817 -5.96046e-09
    endloop
  endfacet
  facet normal 0 0 -1
    outer loop
      vertex 3.03993 1.88805 -5.96046e-09
      vertex 4.02074 2.76967 -5.96046e-09
      vertex 3.37674 1.69067 -5.96046e-09
    endloop
  endfacet
  facet normal 0 -0 -1
    outer loop
      vertex 2.963 3.29417 -5.96046e-09
      vertex 3.53018 3.05804 -5.96046e-09
      vertex 2.65599 2.05316 -5.96046e-09
    endloop
  endfacet
  facet normal -0 0 -1
    outer loop
      vertex -3.94199 -0.0881958 -5.96046e-09
      vertex -5.125 -0.522812 -5.96046e-09
      vertex -5.08505 0.281418 -5.96046e-09
    endloop
  endfacet
  facet normal 0 0 -1
    outer loop
      vertex -3.97299 -1.64882 -5.96046e-09
      vertex -5.125 -0.522812 -5.96046e-09
      vertex -3.97299 -0.73381 -5.96046e-09
    endloop
  endfacet
  facet normal -0 0 -1
    outer loop
      vertex -3.97299 -1.64882 -5.96046e-09
      vertex -5.125 -3.01881 -5.96046e-09
      vertex -5.125 -0.522812 -5.96046e-09
    endloop
  endfacet
  facet normal 0 0 -1
    outer loop
      vertex 5.37099 -3.01881 -5.96046e-09
      vertex -5.125 -3.01881 -5.96046e-09
      vertex -3.97299 -1.64882 -5.96046e-09
    endloop
  endfacet
  facet normal 0 0 -1
    outer loop
      vertex 5.37099 -3.01881 -5.96046e-09
      vertex 4.34698 -1.64882 -5.96046e-09
      vertex 5.37099 -0.522812 -5.96046e-09
    endloop
  endfacet
  facet normal 0 0 -1
    outer loop
      vertex 5.37099 -3.01881 -5.96046e-09
      vertex -3.97299 -1.64882 -5.96046e-09
      vertex 4.34698 -1.64882 -5.96046e-09
    endloop
  endfacet
  facet normal 0 -0 -1
    outer loop
      vertex 5.03406 1.56236 -5.96046e-09
      vertex 5.22124 0.977921 -5.96046e-09
      vertex 4.10062 0.876663 -5.96046e-09
    endloop
  endfacet
  facet normal 0 0 -1
    outer loop
      vertex 5.03406 1.56236 -5.96046e-09
      vertex 4.10062 0.876663 -5.96046e-09
      vertex 3.909 1.19917 -5.96046e-09
    endloop
  endfacet
  facet normal 0 0 -1
    outer loop
      vertex 4.77199 2.03616 -5.96046e-09
      vertex 3.909 1.19917 -5.96046e-09
      vertex 3.66643 1.46104 -5.96046e-09
    endloop
  endfacet
  facet normal 0 0 -1
    outer loop
      vertex 3.66643 1.46104 -5.96046e-09
      vertex 3.37674 1.69067 -5.96046e-09
      vertex 4.43468 2.42905 -5.96046e-09
    endloop
  endfacet
  facet normal -0 0 -1
    outer loop
      vertex 4.77199 2.03616 -5.96046e-09
      vertex 3.66643 1.46104 -5.96046e-09
      vertex 4.43468 2.42905 -5.96046e-09
    endloop
  endfacet
  facet normal 0 0 -1
    outer loop
      vertex 3.37674 1.69067 -5.96046e-09
      vertex 4.02074 2.76967 -5.96046e-09
      vertex 4.43468 2.42905 -5.96046e-09
    endloop
  endfacet
  facet normal 0 0 -1
    outer loop
      vertex 3.03993 1.88805 -5.96046e-09
      vertex 3.53018 3.05804 -5.96046e-09
      vertex 4.02074 2.76967 -5.96046e-09
    endloop
  endfacet
  facet normal -0 0 -1
    outer loop
      vertex 2.963 3.29417 -5.96046e-09
      vertex 2.20474 2.18398 -5.96046e-09
      vertex 2.33005 3.47836 -5.96046e-09
    endloop
  endfacet
  facet normal 0 0 -1
    outer loop
      vertex 2.963 3.29417 -5.96046e-09
      vertex 2.65599 2.05316 -5.96046e-09
      vertex 2.20474 2.18398 -5.96046e-09
    endloop
  endfacet
  facet normal 0 0 -1
    outer loop
      vertex 2.33005 3.47836 -5.96046e-09
      vertex 2.20474 2.18398 -5.96046e-09
      vertex 1.66599 2.27742 -5.96046e-09
    endloop
  endfacet
  facet normal 0 -0 -1
    outer loop
      vertex 1.64124 3.60992 -5.96046e-09
      vertex 1.66599 2.27742 -5.96046e-09
      vertex 1.03975 2.33348 -5.96046e-09
    endloop
  endfacet
  facet normal -0 0 -1
    outer loop
      vertex 1.64124 3.60992 -5.96046e-09
      vertex 1.03975 2.33348 -5.96046e-09
      vertex 0.896561 3.68886 -5.96046e-09
    endloop
  endfacet
  facet normal -0 0 -1
    outer loop
      vertex 0.896561 3.68886 -5.96046e-09
      vertex 0.325989 2.35217 -5.96046e-09
      vertex 0.095993 3.71516 -5.96046e-09
    endloop
  endfacet
  facet normal -0 0 -1
    outer loop
      vertex 0.325989 2.35217 -5.96046e-09
      vertex -0.40625 2.33623 -5.96046e-09
      vertex 0.095993 3.71516 -5.96046e-09
    endloop
  endfacet
  facet normal -0 0 -1
    outer loop
      vertex -0.40625 2.33623 -5.96046e-09
      vertex -1.05499 2.28842 -5.96046e-09
      vertex -0.664612 3.68742 -5.96046e-09
    endloop
  endfacet
  facet normal -0 0 -1
    outer loop
      vertex -1.05499 2.28842 -5.96046e-09
      vertex -1.62024 2.20872 -5.96046e-09
      vertex -1.37749 3.60417 -5.96046e-09
    endloop
  endfacet
  facet normal -0 0 -1
    outer loop
      vertex -1.62024 2.20872 -5.96046e-09
      vertex -2.10199 2.09717 -5.96046e-09
      vertex -2.04262 3.46542 -5.96046e-09
    endloop
  endfacet
  facet normal 0 -0 -1
    outer loop
      vertex -2.65999 3.27116 -5.96046e-09
      vertex -2.51755 1.94897 -5.96046e-09
      vertex -3.21924 3.02605 -5.96046e-09
    endloop
  endfacet
  facet normal 0 -0 -1
    outer loop
      vertex -3.21924 3.02605 -5.96046e-09
      vertex -2.88524 1.75842 -5.96046e-09
      vertex -3.70999 2.73466 -5.96046e-09
    endloop
  endfacet
  facet normal 0 -0 -1
    outer loop
      vertex -3.70999 2.73466 -5.96046e-09
      vertex -3.20505 1.52548 -5.96046e-09
      vertex -4.13225 2.39705 -5.96046e-09
    endloop
  endfacet
  facet normal 0 -0 -1
    outer loop
      vertex -4.13225 2.39705 -5.96046e-09
      vertex -3.47699 1.25017 -5.96046e-09
      vertex -4.48599 2.01317 -5.96046e-09
    endloop
  endfacet
  facet normal 0 0 -1
    outer loop
      vertex -3.47699 1.25017 -5.96046e-09
      vertex -4.76555 1.54942 -5.96046e-09
      vertex -4.48599 2.01317 -5.96046e-09
    endloop
  endfacet
  facet normal 0 0 -1
    outer loop
      vertex -3.69398 0.903793 -5.96046e-09
      vertex -4.76555 1.54942 -5.96046e-09
      vertex -3.47699 1.25017 -5.96046e-09
    endloop
  endfacet
  facet normal 0 0 -1
    outer loop
      vertex -3.849 0.457672 -5.96046e-09
      vertex -4.96524 0.972168 -5.96046e-09
      vertex -3.69398 0.903793 -5.96046e-09
    endloop
  endfacet
  facet normal 0 0 -1
    outer loop
      vertex -5.08505 0.281418 -5.96046e-09
      vertex -4.96524 0.972168 -5.96046e-09
      vertex -3.849 0.457672 -5.96046e-09
    endloop
  endfacet
  facet normal 0 0 -1
    outer loop
      vertex -5.125 -0.522812 -5.96046e-09
      vertex -3.94199 -0.0881958 -5.96046e-09
      vertex -3.97299 -0.73381 -5.96046e-09
    endloop
  endfacet
  facet normal 0 0 -1
    outer loop
      vertex -5.08505 0.281418 -5.96046e-09
      vertex -3.849 0.457672 -5.96046e-09
      vertex -3.94199 -0.0881958 -5.96046e-09
    endloop
  endfacet
  facet normal -0.985289 0.170898 0
    outer loop
      vertex -4.96524 0.972168 0.4
      vertex -5.08505 0.281418 -5.96046e-09
      vertex -5.08505 0.281418 0.4
    endloop
  endfacet
  facet normal -0.985289 0.170898 0
    outer loop
      vertex -4.96524 0.972168 0.4
      vertex -4.96524 0.972168 -5.96046e-09
      vertex -5.08505 0.281418 -5.96046e-09
    endloop
  endfacet
  facet normal -0.945051 0.326923 0
    outer loop
      vertex -4.76555 1.54942 0.4
      vertex -4.96524 0.972168 -5.96046e-09
      vertex -4.96524 0.972168 0.4
    endloop
  endfacet
  facet normal -0.945051 0.326923 0
    outer loop
      vertex -4.76555 1.54942 0.4
      vertex -4.76555 1.54942 -5.96046e-09
      vertex -4.96524 0.972168 -5.96046e-09
    endloop
  endfacet
  facet normal -0.856424 0.516273 0
    outer loop
      vertex -4.48599 2.01317 0.4
      vertex -4.76555 1.54942 -5.96046e-09
      vertex -4.76555 1.54942 0.4
    endloop
  endfacet
  facet normal -0.856424 0.516273 0
    outer loop
      vertex -4.48599 2.01317 0.4
      vertex -4.48599 2.01317 -5.96046e-09
      vertex -4.76555 1.54942 -5.96046e-09
    endloop
  endfacet
  facet normal -0.735386 0.677648 0
    outer loop
      vertex -4.13225 2.39705 0.4
      vertex -4.48599 2.01317 -5.96046e-09
      vertex -4.48599 2.01317 0.4
    endloop
  endfacet
  facet normal -0.735386 0.677648 0
    outer loop
      vertex -4.13225 2.39705 0.4
      vertex -4.13225 2.39705 -5.96046e-09
      vertex -4.48599 2.01317 -5.96046e-09
    endloop
  endfacet
  facet normal -0.624472 0.781047 0
    outer loop
      vertex -3.70999 2.73466 0.4
      vertex -4.13225 2.39705 -5.96046e-09
      vertex -4.13225 2.39705 0.4
    endloop
  endfacet
  facet normal -0.624472 0.781047 0
    outer loop
      vertex -3.70999 2.73466 0.4
      vertex -3.70999 2.73466 -5.96046e-09
      vertex -4.13225 2.39705 -5.96046e-09
    endloop
  endfacet
  facet normal -0.510548 0.859849 0
    outer loop
      vertex -3.21924 3.02605 0.4
      vertex -3.70999 2.73466 -5.96046e-09
      vertex -3.70999 2.73466 0.4
    endloop
  endfacet
  facet normal -0.510548 0.859849 0
    outer loop
      vertex -3.21924 3.02605 0.4
      vertex -3.21924 3.02605 -5.96046e-09
      vertex -3.70999 2.73466 -5.96046e-09
    endloop
  endfacet
  facet normal -0.401421 0.915894 0
    outer loop
      vertex -2.65999 3.27116 0.4
      vertex -3.21924 3.02605 -5.96046e-09
      vertex -3.21924 3.02605 0.4
    endloop
  endfacet
  facet normal -0.401421 0.915894 0
    outer loop
      vertex -2.65999 3.27116 0.4
      vertex -2.65999 3.27116 -5.96046e-09
      vertex -3.21924 3.02605 -5.96046e-09
    endloop
  endfacet
  facet normal -0.300149 0.953892 0
    outer loop
      vertex -2.04262 3.46542 0.4
      vertex -2.65999 3.27116 -5.96046e-09
      vertex -2.65999 3.27116 0.4
    endloop
  endfacet
  facet normal -0.300149 0.953892 0
    outer loop
      vertex -2.04262 3.46542 0.4
      vertex -2.04262 3.46542 -5.96046e-09
      vertex -2.65999 3.27116 -5.96046e-09
    endloop
  endfacet
  facet normal -0.20421 0.978927 0
    outer loop
      vertex -1.37749 3.60417 0.4
      vertex -2.04262 3.46542 -5.96046e-09
      vertex -2.04262 3.46542 0.4
    endloop
  endfacet
  facet normal -0.20421 0.978927 0
    outer loop
      vertex -1.37749 3.60417 0.4
      vertex -1.37749 3.60417 -5.96046e-09
      vertex -2.04262 3.46542 -5.96046e-09
    endloop
  endfacet
  facet normal -0.115992 0.99325 0
    outer loop
      vertex -0.664612 3.68742 0.4
      vertex -1.37749 3.60417 -5.96046e-09
      vertex -1.37749 3.60417 0.4
    endloop
  endfacet
  facet normal -0.115992 0.99325 0
    outer loop
      vertex -0.664612 3.68742 0.4
      vertex -0.664612 3.68742 -5.96046e-09
      vertex -1.37749 3.60417 -5.96046e-09
    endloop
  endfacet
  facet normal -0.0364467 0.999336 0
    outer loop
      vertex 0.095993 3.71516 0.4
      vertex -0.664612 3.68742 -5.96046e-09
      vertex -0.664612 3.68742 0.4
    endloop
  endfacet
  facet normal -0.0364467 0.999336 0
    outer loop
      vertex 0.095993 3.71516 0.4
      vertex 0.095993 3.71516 -5.96046e-09
      vertex -0.664612 3.68742 -5.96046e-09
    endloop
  endfacet
  facet normal 0.032834 0.999461 0
    outer loop
      vertex 0.896561 3.68886 0.4
      vertex 0.095993 3.71516 -5.96046e-09
      vertex 0.095993 3.71516 0.4
    endloop
  endfacet
  facet normal 0.032834 0.999461 0
    outer loop
      vertex 0.896561 3.68886 0.4
      vertex 0.896561 3.68886 -5.96046e-09
      vertex 0.095993 3.71516 -5.96046e-09
    endloop
  endfacet
  facet normal 0.105415 0.994428 0
    outer loop
      vertex 1.64124 3.60992 0.4
      vertex 0.896561 3.68886 -5.96046e-09
      vertex 0.896561 3.68886 0.4
    endloop
  endfacet
  facet normal 0.105415 0.994428 0
    outer loop
      vertex 1.64124 3.60992 0.4
      vertex 1.64124 3.60992 -5.96046e-09
      vertex 0.896561 3.68886 -5.96046e-09
    endloop
  endfacet
  facet normal 0.187605 0.982245 0
    outer loop
      vertex 2.33005 3.47836 0.4
      vertex 1.64124 3.60992 -5.96046e-09
      vertex 1.64124 3.60992 0.4
    endloop
  endfacet
  facet normal 0.187605 0.982245 0
    outer loop
      vertex 2.33005 3.47836 0.4
      vertex 2.33005 3.47836 -5.96046e-09
      vertex 1.64124 3.60992 -5.96046e-09
    endloop
  endfacet
  facet normal 0.279412 0.960171 0
    outer loop
      vertex 2.963 3.29417 0.4
      vertex 2.33005 3.47836 -5.96046e-09
      vertex 2.33005 3.47836 0.4
    endloop
  endfacet
  facet normal 0.279412 0.960171 0
    outer loop
      vertex 2.963 3.29417 0.4
      vertex 2.963 3.29417 -5.96046e-09
      vertex 2.33005 3.47836 -5.96046e-09
    endloop
  endfacet
  facet normal 0.384345 0.92319 0
    outer loop
      vertex 3.53018 3.05804 0.4
      vertex 2.963 3.29417 -5.96046e-09
      vertex 2.963 3.29417 0.4
    endloop
  endfacet
  facet normal 0.384345 0.92319 0
    outer loop
      vertex 3.53018 3.05804 0.4
      vertex 3.53018 3.05804 -5.96046e-09
      vertex 2.963 3.29417 -5.96046e-09
    endloop
  endfacet
  facet normal 0.506766 0.862084 0
    outer loop
      vertex 4.02074 2.76967 0.4
      vertex 3.53018 3.05804 -5.96046e-09
      vertex 3.53018 3.05804 0.4
    endloop
  endfacet
  facet normal 0.506766 0.862084 0
    outer loop
      vertex 4.02074 2.76967 0.4
      vertex 4.02074 2.76967 -5.96046e-09
      vertex 3.53018 3.05804 -5.96046e-09
    endloop
  endfacet
  facet normal 0.635405 0.772179 0
    outer loop
      vertex 4.43468 2.42905 0.4
      vertex 4.02074 2.76967 -5.96046e-09
      vertex 4.02074 2.76967 0.4
    endloop
  endfacet
  facet normal 0.635405 0.772179 0
    outer loop
      vertex 4.43468 2.42905 0.4
      vertex 4.43468 2.42905 -5.96046e-09
      vertex 4.02074 2.76967 -5.96046e-09
    endloop
  endfacet
  facet normal 0.758734 0.6514 0
    outer loop
      vertex 4.77199 2.03616 0.4
      vertex 4.43468 2.42905 -5.96046e-09
      vertex 4.43468 2.42905 0.4
    endloop
  endfacet
  facet normal 0.758734 0.6514 0
    outer loop
      vertex 4.77199 2.03616 0.4
      vertex 4.77199 2.03616 -5.96046e-09
      vertex 4.43468 2.42905 -5.96046e-09
    endloop
  endfacet
  facet normal 0.875059 0.484016 0
    outer loop
      vertex 5.03406 1.56236 0.4
      vertex 4.77199 2.03616 -5.96046e-09
      vertex 4.77199 2.03616 0.4
    endloop
  endfacet
  facet normal 0.875059 0.484016 0
    outer loop
      vertex 5.03406 1.56236 0.4
      vertex 5.03406 1.56236 -5.96046e-09
      vertex 4.77199 2.03616 -5.96046e-09
    endloop
  endfacet
  facet normal 0.952349 0.305012 0
    outer loop
      vertex 5.22124 0.977921 0.4
      vertex 5.03406 1.56236 -5.96046e-09
      vertex 5.03406 1.56236 0.4
    endloop
  endfacet
  facet normal 0.952349 0.305012 0
    outer loop
      vertex 5.22124 0.977921 0.4
      vertex 5.22124 0.977921 -5.96046e-09
      vertex 5.03406 1.56236 -5.96046e-09
    endloop
  endfacet
  facet normal 0.987194 0.159526 0
    outer loop
      vertex 5.33356 0.282852 0.4
      vertex 5.22124 0.977921 -5.96046e-09
      vertex 5.22124 0.977921 0.4
    endloop
  endfacet
  facet normal 0.987194 0.159526 0
    outer loop
      vertex 5.33356 0.282852 0.4
      vertex 5.33356 0.282852 -5.96046e-09
      vertex 5.22124 0.977921 -5.96046e-09
    endloop
  endfacet
  facet normal 0.998923 0.0464085 0
    outer loop
      vertex 5.37099 -0.522812 0.4
      vertex 5.33356 0.282852 -5.96046e-09
      vertex 5.33356 0.282852 0.4
    endloop
  endfacet
  facet normal 0.998923 0.0464085 0
    outer loop
      vertex 5.37099 -0.522812 0.4
      vertex 5.37099 -0.522812 -5.96046e-09
      vertex 5.33356 0.282852 -5.96046e-09
    endloop
  endfacet
  facet normal 1 -0 0
    outer loop
      vertex 5.37099 -3.01881 0.4
      vertex 5.37099 -0.522812 -5.96046e-09
      vertex 5.37099 -0.522812 0.4
    endloop
  endfacet
  facet normal 1 0 0
    outer loop
      vertex 5.37099 -3.01881 0.4
      vertex 5.37099 -3.01881 -5.96046e-09
      vertex 5.37099 -0.522812 -5.96046e-09
    endloop
  endfacet
  facet normal 0 -1 0
    outer loop
      vertex -5.125 -3.01881 0.4
      vertex 5.37099 -3.01881 -5.96046e-09
      vertex 5.37099 -3.01881 0.4
    endloop
  endfacet
  facet normal 0 -1 0
    outer loop
      vertex -5.125 -3.01881 0.4
      vertex -5.125 -3.01881 -5.96046e-09
      vertex 5.37099 -3.01881 -5.96046e-09
    endloop
  endfacet
  facet normal -1 -0 0
    outer loop
      vertex -5.125 -0.522812 0.4
      vertex -5.125 -3.01881 -5.96046e-09
      vertex -5.125 -3.01881 0.4
    endloop
  endfacet
  facet normal -1 0 -0
    outer loop
      vertex -5.125 -0.522812 0.4
      vertex -5.125 -0.522812 -5.96046e-09
      vertex -5.125 -3.01881 -5.96046e-09
    endloop
  endfacet
  facet normal -0.998768 0.0496137 0
    outer loop
      vertex -5.08505 0.281418 0.4
      vertex -5.125 -0.522812 -5.96046e-09
      vertex -5.125 -0.522812 0.4
    endloop
  endfacet
  facet normal -0.998768 0.0496137 0
    outer loop
      vertex -5.08505 0.281418 0.4
      vertex -5.08505 0.281418 -5.96046e-09
      vertex -5.125 -0.522812 -5.96046e-09
    endloop
  endfacet
  facet normal 0 1 0
    outer loop
      vertex 4.34698 -1.64882 0.4
      vertex 4.34698 -1.64882 -5.96046e-09
      vertex -3.97299 -1.64882 0.4
    endloop
  endfacet
  facet normal 0 1 0
    outer loop
      vertex -3.97299 -1.64882 -5.96046e-09
      vertex -3.97299 -1.64882 0.4
      vertex 4.34698 -1.64882 -5.96046e-09
    endloop
  endfacet
  facet normal -1 -0 -0
    outer loop
      vertex 4.34698 -0.624817 0.4
      vertex 4.34698 -0.624817 -5.96046e-09
      vertex 4.34698 -1.64882 0.4
    endloop
  endfacet
  facet normal -1 0 0
    outer loop
      vertex 4.34698 -1.64882 -5.96046e-09
      vertex 4.34698 -1.64882 0.4
      vertex 4.34698 -0.624817 -5.96046e-09
    endloop
  endfacet
  facet normal -0.998924 -0.0463798 -0
    outer loop
      vertex 4.31961 -0.0353241 0.4
      vertex 4.31961 -0.0353241 -5.96046e-09
      vertex 4.34698 -0.624817 0.4
    endloop
  endfacet
  facet normal -0.998924 -0.0463798 0
    outer loop
      vertex 4.34698 -0.624817 -5.96046e-09
      vertex 4.34698 -0.624817 0.4
      vertex 4.31961 -0.0353241 -5.96046e-09
    endloop
  endfacet
  facet normal -0.986805 -0.161915 -0
    outer loop
      vertex 4.23749 0.465164 0.4
      vertex 4.23749 0.465164 -5.96046e-09
      vertex 4.31961 -0.0353241 0.4
    endloop
  endfacet
  facet normal -0.986805 -0.161915 0
    outer loop
      vertex 4.31961 -0.0353241 -5.96046e-09
      vertex 4.31961 -0.0353241 0.4
      vertex 4.23749 0.465164 -5.96046e-09
    endloop
  endfacet
  facet normal -0.948888 -0.315613 -0
    outer loop
      vertex 4.10062 0.876663 0.4
      vertex 4.10062 0.876663 -5.96046e-09
      vertex 4.23749 0.465164 0.4
    endloop
  endfacet
  facet normal -0.948888 -0.315613 0
    outer loop
      vertex 4.23749 0.465164 -5.96046e-09
      vertex 4.23749 0.465164 0.4
      vertex 4.10062 0.876663 -5.96046e-09
    endloop
  endfacet
  facet normal -0.859701 -0.510798 -0
    outer loop
      vertex 3.909 1.19917 0.4
      vertex 3.909 1.19917 -5.96046e-09
      vertex 4.10062 0.876663 0.4
    endloop
  endfacet
  facet normal -0.859701 -0.510798 0
    outer loop
      vertex 4.10062 0.876663 -5.96046e-09
      vertex 4.10062 0.876663 0.4
      vertex 3.909 1.19917 -5.96046e-09
    endloop
  endfacet
  facet normal -0.733624 -0.679555 -0
    outer loop
      vertex 3.66643 1.46104 0.4
      vertex 3.66643 1.46104 -5.96046e-09
      vertex 3.909 1.19917 0.4
    endloop
  endfacet
  facet normal -0.733624 -0.679555 0
    outer loop
      vertex 3.909 1.19917 -5.96046e-09
      vertex 3.909 1.19917 0.4
      vertex 3.66643 1.46104 -5.96046e-09
    endloop
  endfacet
  facet normal -0.621189 -0.783661 -0
    outer loop
      vertex 3.37674 1.69067 0.4
      vertex 3.37674 1.69067 -5.96046e-09
      vertex 3.66643 1.46104 0.4
    endloop
  endfacet
  facet normal -0.621189 -0.783661 0
    outer loop
      vertex 3.66643 1.46104 -5.96046e-09
      vertex 3.66643 1.46104 0.4
      vertex 3.37674 1.69067 -5.96046e-09
    endloop
  endfacet
  facet normal -0.505604 -0.862765 -0
    outer loop
      vertex 3.03993 1.88805 0.4
      vertex 3.03993 1.88805 -5.96046e-09
      vertex 3.37674 1.69067 0.4
    endloop
  endfacet
  facet normal -0.505604 -0.862765 0
    outer loop
      vertex 3.37674 1.69067 -5.96046e-09
      vertex 3.37674 1.69067 0.4
      vertex 3.03993 1.88805 -5.96046e-09
    endloop
  endfacet
  facet normal -0.39506 -0.918655 -0
    outer loop
      vertex 2.65599 2.05316 0.4
      vertex 2.65599 2.05316 -5.96046e-09
      vertex 3.03993 1.88805 0.4
    endloop
  endfacet
  facet normal -0.39506 -0.918655 0
    outer loop
      vertex 3.03993 1.88805 -5.96046e-09
      vertex 3.03993 1.88805 0.4
      vertex 2.65599 2.05316 -5.96046e-09
    endloop
  endfacet
  facet normal -0.278441 -0.960453 -0
    outer loop
      vertex 2.20474 2.18398 0.4
      vertex 2.20474 2.18398 -5.96046e-09
      vertex 2.65599 2.05316 0.4
    endloop
  endfacet
  facet normal -0.278441 -0.960453 0
    outer loop
      vertex 2.65599 2.05316 -5.96046e-09
      vertex 2.65599 2.05316 0.4
      vertex 2.20474 2.18398 -5.96046e-09
    endloop
  endfacet
  facet normal -0.170887 -0.985291 -0
    outer loop
      vertex 1.66599 2.27742 0.4
      vertex 1.66599 2.27742 -5.96046e-09
      vertex 2.20474 2.18398 0.4
    endloop
  endfacet
  facet normal -0.170887 -0.985291 0
    outer loop
      vertex 2.20474 2.18398 -5.96046e-09
      vertex 2.20474 2.18398 0.4
      vertex 1.66599 2.27742 -5.96046e-09
    endloop
  endfacet
  facet normal -0.0891619 -0.996017 -0
    outer loop
      vertex 1.03975 2.33348 0.4
      vertex 1.03975 2.33348 -5.96046e-09
      vertex 1.66599 2.27742 0.4
    endloop
  endfacet
  facet normal -0.0891619 -0.996017 0
    outer loop
      vertex 1.66599 2.27742 -5.96046e-09
      vertex 1.66599 2.27742 0.4
      vertex 1.03975 2.33348 -5.96046e-09
    endloop
  endfacet
  facet normal -0.0261763 -0.999657 -0
    outer loop
      vertex 0.325989 2.35217 0.4
      vertex 0.325989 2.35217 -5.96046e-09
      vertex 1.03975 2.33348 0.4
    endloop
  endfacet
  facet normal -0.0261763 -0.999657 0
    outer loop
      vertex 1.03975 2.33348 -5.96046e-09
      vertex 1.03975 2.33348 0.4
      vertex 0.325989 2.35217 -5.96046e-09
    endloop
  endfacet
  facet normal 0.0217637 -0.999763 0
    outer loop
      vertex -0.40625 2.33623 0.4
      vertex -0.40625 2.33623 -5.96046e-09
      vertex 0.325989 2.35217 0.4
    endloop
  endfacet
  facet normal 0.0217637 -0.999763 0
    outer loop
      vertex 0.325989 2.35217 -5.96046e-09
      vertex 0.325989 2.35217 0.4
      vertex -0.40625 2.33623 -5.96046e-09
    endloop
  endfacet
  facet normal 0.0734974 -0.997295 0
    outer loop
      vertex -1.05499 2.28842 0.4
      vertex -1.05499 2.28842 -5.96046e-09
      vertex -0.40625 2.33623 0.4
    endloop
  endfacet
  facet normal 0.0734974 -0.997295 0
    outer loop
      vertex -0.40625 2.33623 -5.96046e-09
      vertex -0.40625 2.33623 0.4
      vertex -1.05499 2.28842 -5.96046e-09
    endloop
  endfacet
  facet normal 0.139619 -0.990205 0
    outer loop
      vertex -1.62024 2.20872 0.4
      vertex -1.62024 2.20872 -5.96046e-09
      vertex -1.05499 2.28842 0.4
    endloop
  endfacet
  facet normal 0.139619 -0.990205 0
    outer loop
      vertex -1.05499 2.28842 -5.96046e-09
      vertex -1.05499 2.28842 0.4
      vertex -1.62024 2.20872 -5.96046e-09
    endloop
  endfacet
  facet normal 0.225583 -0.974224 0
    outer loop
      vertex -2.10199 2.09717 0.4
      vertex -2.10199 2.09717 -5.96046e-09
      vertex -1.62024 2.20872 0.4
    endloop
  endfacet
  facet normal 0.225583 -0.974224 0
    outer loop
      vertex -1.62024 2.20872 -5.96046e-09
      vertex -1.62024 2.20872 0.4
      vertex -2.10199 2.09717 -5.96046e-09
    endloop
  endfacet
  facet normal 0.335906 -0.941896 0
    outer loop
      vertex -2.51755 1.94897 0.4
      vertex -2.51755 1.94897 -5.96046e-09
      vertex -2.10199 2.09717 0.4
    endloop
  endfacet
  facet normal 0.335906 -0.941896 0
    outer loop
      vertex -2.10199 2.09717 -5.96046e-09
      vertex -2.10199 2.09717 0.4
      vertex -2.51755 1.94897 -5.96046e-09
    endloop
  endfacet
  facet normal 0.460119 -0.887857 0
    outer loop
      vertex -2.88524 1.75842 0.4
      vertex -2.88524 1.75842 -5.96046e-09
      vertex -2.51755 1.94897 0.4
    endloop
  endfacet
  facet normal 0.460119 -0.887857 0
    outer loop
      vertex -2.51755 1.94897 -5.96046e-09
      vertex -2.51755 1.94897 0.4
      vertex -2.88524 1.75842 -5.96046e-09
    endloop
  endfacet
  facet normal 0.588752 -0.808314 0
    outer loop
      vertex -3.20505 1.52548 0.4
      vertex -3.20505 1.52548 -5.96046e-09
      vertex -2.88524 1.75842 0.4
    endloop
  endfacet
  facet normal 0.588752 -0.808314 0
    outer loop
      vertex -2.88524 1.75842 -5.96046e-09
      vertex -2.88524 1.75842 0.4
      vertex -3.20505 1.52548 -5.96046e-09
    endloop
  endfacet
  facet normal 0.711448 -0.702739 0
    outer loop
      vertex -3.47699 1.25017 0.4
      vertex -3.47699 1.25017 -5.96046e-09
      vertex -3.20505 1.52548 0.4
    endloop
  endfacet
  facet normal 0.711448 -0.702739 0
    outer loop
      vertex -3.20505 1.52548 -5.96046e-09
      vertex -3.20505 1.52548 0.4
      vertex -3.47699 1.25017 -5.96046e-09
    endloop
  endfacet
  facet normal 0.847443 -0.530886 0
    outer loop
      vertex -3.69398 0.903793 0.4
      vertex -3.69398 0.903793 -5.96046e-09
      vertex -3.47699 1.25017 0.4
    endloop
  endfacet
  facet normal 0.847443 -0.530886 0
    outer loop
      vertex -3.47699 1.25017 -5.96046e-09
      vertex -3.47699 1.25017 0.4
      vertex -3.69398 0.903793 -5.96046e-09
    endloop
  endfacet
  facet normal 0.944597 -0.328233 0
    outer loop
      vertex -3.849 0.457672 0.4
      vertex -3.849 0.457672 -5.96046e-09
      vertex -3.69398 0.903793 0.4
    endloop
  endfacet
  facet normal 0.944597 -0.328233 0
    outer loop
      vertex -3.69398 0.903793 -5.96046e-09
      vertex -3.69398 0.903793 0.4
      vertex -3.849 0.457672 -5.96046e-09
    endloop
  endfacet
  facet normal 0.985798 -0.167933 0
    outer loop
      vertex -3.94199 -0.0881958 0.4
      vertex -3.94199 -0.0881958 -5.96046e-09
      vertex -3.849 0.457672 0.4
    endloop
  endfacet
  facet normal 0.985798 -0.167933 0
    outer loop
      vertex -3.849 0.457672 -5.96046e-09
      vertex -3.849 0.457672 0.4
      vertex -3.94199 -0.0881958 -5.96046e-09
    endloop
  endfacet
  facet normal 0.998849 -0.047961 0
    outer loop
      vertex -3.97299 -0.73381 0.4
      vertex -3.97299 -0.73381 -5.96046e-09
      vertex -3.94199 -0.0881958 0.4
    endloop
  endfacet
  facet normal 0.998849 -0.047961 0
    outer loop
      vertex -3.94199 -0.0881958 -5.96046e-09
      vertex -3.94199 -0.0881958 0.4
      vertex -3.97299 -0.73381 -5.96046e-09
    endloop
  endfacet
  facet normal 1 -0 0
    outer loop
      vertex -3.97299 -1.64882 0.4
      vertex -3.97299 -1.64882 -5.96046e-09
      vertex -3.97299 -0.73381 0.4
    endloop
  endfacet
  facet normal 1 0 -0
    outer loop
      vertex -3.97299 -0.73381 -5.96046e-09
      vertex -3.97299 -0.73381 0.4
      vertex -3.97299 -1.64882 -5.96046e-09
    endloop
  endfacet
endsolid OpenSCAD_Model
