solid OpenSCAD_Model
  facet normal -1 0 0
    outer loop
      vertex 0.65 0.65 2
      vertex 0.65 2.2 7.56
      vertex 0.65 2.2 2
    endloop
  endfacet
  facet normal -1 -0 0
    outer loop
      vertex 0.65 2.2 7.56
      vertex 0.65 0.65 2
      vertex 0.65 0.65 7.56
    endloop
  endfacet
  facet normal -1 0 0
    outer loop
      vertex 0.65 -2.2 2
      vertex 0.65 -0.65 7.56
      vertex 0.65 -0.65 2
    endloop
  endfacet
  facet normal -1 -0 0
    outer loop
      vertex 0.65 -0.65 7.56
      vertex 0.65 -2.2 2
      vertex 0.65 -2.2 7.56
    endloop
  endfacet
  facet normal 1 -0 0
    outer loop
      vertex -0.65 -2.2 7.56
      vertex -0.65 -0.65 2
      vertex -0.65 -0.65 7.56
    endloop
  endfacet
  facet normal 1 0 0
    outer loop
      vertex -0.65 -0.65 2
      vertex -0.65 -2.2 7.56
      vertex -0.65 -2.2 2
    endloop
  endfacet
  facet normal 1 -0 0
    outer loop
      vertex -0.65 0.65 7.56
      vertex -0.65 2.2 2
      vertex -0.65 2.2 7.56
    endloop
  endfacet
  facet normal 1 0 0
    outer loop
      vertex -0.65 2.2 2
      vertex -0.65 0.65 7.56
      vertex -0.65 0.65 2
    endloop
  endfacet
  facet normal 0 -1 0
    outer loop
      vertex -0.65 2.2 2
      vertex 0.65 2.2 7.56
      vertex -0.65 2.2 7.56
    endloop
  endfacet
  facet normal 0 -1 -0
    outer loop
      vertex 0.65 2.2 7.56
      vertex -0.65 2.2 2
      vertex 0.65 2.2 2
    endloop
  endfacet
  facet normal 0 1 -0
    outer loop
      vertex 0.65 -2.2 2
      vertex -0.65 -2.2 7.56
      vertex 0.65 -2.2 7.56
    endloop
  endfacet
  facet normal 0 1 0
    outer loop
      vertex -0.65 -2.2 7.56
      vertex 0.65 -2.2 2
      vertex -0.65 -2.2 2
    endloop
  endfacet
  facet normal -1 0 0
    outer loop
      vertex 2.2 -0.65 2
      vertex 2.2 0.65 7.56
      vertex 2.2 0.65 2
    endloop
  endfacet
  facet normal -1 -0 0
    outer loop
      vertex 2.2 0.65 7.56
      vertex 2.2 -0.65 2
      vertex 2.2 -0.65 7.56
    endloop
  endfacet
  facet normal 1 -0 0
    outer loop
      vertex -2.2 -0.65 7.56
      vertex -2.2 0.65 2
      vertex -2.2 0.65 7.56
    endloop
  endfacet
  facet normal 1 0 0
    outer loop
      vertex -2.2 0.65 2
      vertex -2.2 -0.65 7.56
      vertex -2.2 -0.65 2
    endloop
  endfacet
  facet normal 0 -1 0
    outer loop
      vertex -2.2 0.65 2
      vertex -0.65 0.65 7.56
      vertex -2.2 0.65 7.56
    endloop
  endfacet
  facet normal 0 -1 -0
    outer loop
      vertex -0.65 0.65 7.56
      vertex -2.2 0.65 2
      vertex -0.65 0.65 2
    endloop
  endfacet
  facet normal 0 -1 0
    outer loop
      vertex 0.65 0.65 2
      vertex 2.2 0.65 7.56
      vertex 0.65 0.65 7.56
    endloop
  endfacet
  facet normal 0 -1 -0
    outer loop
      vertex 2.2 0.65 7.56
      vertex 0.65 0.65 2
      vertex 2.2 0.65 2
    endloop
  endfacet
  facet normal 0 1 -0
    outer loop
      vertex -0.65 -0.65 2
      vertex -2.2 -0.65 7.56
      vertex -0.65 -0.65 7.56
    endloop
  endfacet
  facet normal 0 1 0
    outer loop
      vertex -2.2 -0.65 7.56
      vertex -0.65 -0.65 2
      vertex -2.2 -0.65 2
    endloop
  endfacet
  facet normal 0 1 -0
    outer loop
      vertex 2.2 -0.65 2
      vertex 0.65 -0.65 7.56
      vertex 2.2 -0.65 7.56
    endloop
  endfacet
  facet normal 0 1 0
    outer loop
      vertex 0.65 -0.65 7.56
      vertex 2.2 -0.65 2
      vertex 0.65 -0.65 2
    endloop
  endfacet
  facet normal 0.130545 0.991442 -0
    outer loop
      vertex 2.20588 3.21728 2
      vertex 2.03333 3.24 7.56
      vertex 2.20588 3.21728 7.56
    endloop
  endfacet
  facet normal 0.130545 0.991442 0
    outer loop
      vertex 2.03333 3.24 7.56
      vertex 2.20588 3.21728 2
      vertex 2.03333 3.24 2
    endloop
  endfacet
  facet normal 0.991442 0.130545 0
    outer loop
      vertex 2.7 2.57333 7.56
      vertex 2.67728 2.74588 2
      vertex 2.67728 2.74588 7.56
    endloop
  endfacet
  facet normal 0.991442 0.130545 0
    outer loop
      vertex 2.67728 2.74588 2
      vertex 2.7 2.57333 7.56
      vertex 2.7 2.57333 2
    endloop
  endfacet
  facet normal 0.923882 0.382677 0
    outer loop
      vertex 2.67728 2.74588 7.56
      vertex 2.61068 2.90667 2
      vertex 2.61068 2.90667 7.56
    endloop
  endfacet
  facet normal 0.923882 0.382677 0
    outer loop
      vertex 2.61068 2.90667 2
      vertex 2.67728 2.74588 7.56
      vertex 2.67728 2.74588 2
    endloop
  endfacet
  facet normal 0.793367 0.608744 0
    outer loop
      vertex 2.61068 2.90667 7.56
      vertex 2.50474 3.04474 2
      vertex 2.50474 3.04474 7.56
    endloop
  endfacet
  facet normal 0.793367 0.608744 0
    outer loop
      vertex 2.50474 3.04474 2
      vertex 2.61068 2.90667 7.56
      vertex 2.61068 2.90667 2
    endloop
  endfacet
  facet normal 0.608744 0.793367 -0
    outer loop
      vertex 2.50474 3.04474 2
      vertex 2.36667 3.15068 7.56
      vertex 2.50474 3.04474 7.56
    endloop
  endfacet
  facet normal 0.608744 0.793367 0
    outer loop
      vertex 2.36667 3.15068 7.56
      vertex 2.50474 3.04474 2
      vertex 2.36667 3.15068 2
    endloop
  endfacet
  facet normal 0.382677 0.923882 -0
    outer loop
      vertex 2.36667 3.15068 2
      vertex 2.20588 3.21728 7.56
      vertex 2.36667 3.15068 7.56
    endloop
  endfacet
  facet normal 0.382677 0.923882 0
    outer loop
      vertex 2.20588 3.21728 7.56
      vertex 2.36667 3.15068 2
      vertex 2.20588 3.21728 2
    endloop
  endfacet
  facet normal -0 0 1
    outer loop
      vertex -2.2 -0.65 7.56
      vertex -0.65 -2.2 7.56
      vertex -0.65 -0.65 7.56
    endloop
  endfacet
  facet normal 0 0 1
    outer loop
      vertex -0.65 -2.2 7.56
      vertex -2.2 -0.65 7.56
      vertex -2.7 -2.57333 7.56
    endloop
  endfacet
  facet normal 0 0 1
    outer loop
      vertex -0.65 -2.2 7.56
      vertex -2.7 -2.57333 7.56
      vertex -2.03333 -3.24 7.56
    endloop
  endfacet
  facet normal 0 0 1
    outer loop
      vertex -2.2 0.65 7.56
      vertex -2.7 2.57333 7.56
      vertex -2.2 -0.65 7.56
    endloop
  endfacet
  facet normal 0 0 1
    outer loop
      vertex -2.7 2.57333 7.56
      vertex -2.20588 3.21728 7.56
      vertex -2.36667 3.15068 7.56
    endloop
  endfacet
  facet normal 0 0 1
    outer loop
      vertex -2.7 -2.57333 7.56
      vertex -2.2 -0.65 7.56
      vertex -2.7 2.57333 7.56
    endloop
  endfacet
  facet normal 0 0 1
    outer loop
      vertex -2.7 2.57333 7.56
      vertex -2.36667 3.15068 7.56
      vertex -2.50474 3.04474 7.56
    endloop
  endfacet
  facet normal 0 0 1
    outer loop
      vertex -2.03333 -3.24 7.56
      vertex -2.7 -2.57333 7.56
      vertex -2.20588 -3.21728 7.56
    endloop
  endfacet
  facet normal 0 0 1
    outer loop
      vertex -2.7 2.57333 7.56
      vertex -2.50474 3.04474 7.56
      vertex -2.61068 2.90667 7.56
    endloop
  endfacet
  facet normal 0 0 1
    outer loop
      vertex -2.20588 -3.21728 7.56
      vertex -2.7 -2.57333 7.56
      vertex -2.36667 -3.15068 7.56
    endloop
  endfacet
  facet normal 0 0 1
    outer loop
      vertex -2.7 2.57333 7.56
      vertex -2.61068 2.90667 7.56
      vertex -2.67728 2.74588 7.56
    endloop
  endfacet
  facet normal 0 0 1
    outer loop
      vertex -2.36667 -3.15068 7.56
      vertex -2.7 -2.57333 7.56
      vertex -2.50474 -3.04474 7.56
    endloop
  endfacet
  facet normal 0 0 1
    outer loop
      vertex -2.50474 -3.04474 7.56
      vertex -2.7 -2.57333 7.56
      vertex -2.61068 -2.90667 7.56
    endloop
  endfacet
  facet normal 0 0 1
    outer loop
      vertex -2.61068 -2.90667 7.56
      vertex -2.7 -2.57333 7.56
      vertex -2.67728 -2.74588 7.56
    endloop
  endfacet
  facet normal 0 0 1
    outer loop
      vertex 2.03333 3.24 7.56
      vertex -0.65 2.2 7.56
      vertex 0.65 2.2 7.56
    endloop
  endfacet
  facet normal -0 0 1
    outer loop
      vertex -2.03333 3.24 7.56
      vertex -0.65 2.2 7.56
      vertex 2.03333 3.24 7.56
    endloop
  endfacet
  facet normal -0 0 1
    outer loop
      vertex -2.7 2.57333 7.56
      vertex -0.65 2.2 7.56
      vertex -2.03333 3.24 7.56
    endloop
  endfacet
  facet normal 0 0 1
    outer loop
      vertex -0.65 2.2 7.56
      vertex -2.2 0.65 7.56
      vertex -0.65 0.65 7.56
    endloop
  endfacet
  facet normal 0 0 1
    outer loop
      vertex -0.65 2.2 7.56
      vertex -2.7 2.57333 7.56
      vertex -2.2 0.65 7.56
    endloop
  endfacet
  facet normal 0 0 1
    outer loop
      vertex -2.7 2.57333 7.56
      vertex -2.03333 3.24 7.56
      vertex -2.20588 3.21728 7.56
    endloop
  endfacet
  facet normal 0 0 1
    outer loop
      vertex 2.03333 3.24 7.56
      vertex 2.7 2.57333 7.56
      vertex 2.67728 2.74588 7.56
    endloop
  endfacet
  facet normal 0 0 1
    outer loop
      vertex 2.7 2.57333 7.56
      vertex 2.2 0.65 7.56
      vertex 2.7 -2.57333 7.56
    endloop
  endfacet
  facet normal 0 0 1
    outer loop
      vertex 2.03333 3.24 7.56
      vertex 2.67728 2.74588 7.56
      vertex 2.61068 2.90667 7.56
    endloop
  endfacet
  facet normal -0 0 1
    outer loop
      vertex 2.2 -0.65 7.56
      vertex 2.7 -2.57333 7.56
      vertex 2.2 0.65 7.56
    endloop
  endfacet
  facet normal 0 0 1
    outer loop
      vertex 2.03333 3.24 7.56
      vertex 2.61068 2.90667 7.56
      vertex 2.50474 3.04474 7.56
    endloop
  endfacet
  facet normal -0 0 1
    outer loop
      vertex 0.65 -2.2 7.56
      vertex 2.7 -2.57333 7.56
      vertex 2.2 -0.65 7.56
    endloop
  endfacet
  facet normal 0 0 1
    outer loop
      vertex 2.03333 3.24 7.56
      vertex 2.50474 3.04474 7.56
      vertex 2.36667 3.15068 7.56
    endloop
  endfacet
  facet normal 0 -0 1
    outer loop
      vertex 2.03333 -3.24 7.56
      vertex 2.7 -2.57333 7.56
      vertex 0.65 -2.2 7.56
    endloop
  endfacet
  facet normal 0 0 1
    outer loop
      vertex 2.03333 3.24 7.56
      vertex 2.36667 3.15068 7.56
      vertex 2.20588 3.21728 7.56
    endloop
  endfacet
  facet normal 0 0 1
    outer loop
      vertex 2.7 -2.57333 7.56
      vertex 2.03333 -3.24 7.56
      vertex 2.67728 -2.74588 7.56
    endloop
  endfacet
  facet normal 0 0 1
    outer loop
      vertex 2.67728 -2.74588 7.56
      vertex 2.03333 -3.24 7.56
      vertex 2.61068 -2.90667 7.56
    endloop
  endfacet
  facet normal 0 0 1
    outer loop
      vertex 2.7 2.57333 7.56
      vertex 2.03333 3.24 7.56
      vertex 0.65 2.2 7.56
    endloop
  endfacet
  facet normal 0 0 1
    outer loop
      vertex 2.7 2.57333 7.56
      vertex 0.65 2.2 7.56
      vertex 2.2 0.65 7.56
    endloop
  endfacet
  facet normal 0 0 1
    outer loop
      vertex 2.2 0.65 7.56
      vertex 0.65 2.2 7.56
      vertex 0.65 0.65 7.56
    endloop
  endfacet
  facet normal 0 0 1
    outer loop
      vertex 2.61068 -2.90667 7.56
      vertex 2.03333 -3.24 7.56
      vertex 2.50474 -3.04474 7.56
    endloop
  endfacet
  facet normal 0 0 1
    outer loop
      vertex 2.36667 -3.15068 7.56
      vertex 2.03333 -3.24 7.56
      vertex 2.20588 -3.21728 7.56
    endloop
  endfacet
  facet normal 0 0 1
    outer loop
      vertex 0.65 -2.2 7.56
      vertex 2.2 -0.65 7.56
      vertex 0.65 -0.65 7.56
    endloop
  endfacet
  facet normal 0 0 1
    outer loop
      vertex 2.50474 -3.04474 7.56
      vertex 2.03333 -3.24 7.56
      vertex 2.36667 -3.15068 7.56
    endloop
  endfacet
  facet normal -0 0 1
    outer loop
      vertex -0.65 -2.2 7.56
      vertex 2.03333 -3.24 7.56
      vertex 0.65 -2.2 7.56
    endloop
  endfacet
  facet normal 0 0 1
    outer loop
      vertex 2.03333 -3.24 7.56
      vertex -0.65 -2.2 7.56
      vertex -2.03333 -3.24 7.56
    endloop
  endfacet
  facet normal -0.793367 0.608744 0
    outer loop
      vertex -2.61068 2.90667 2
      vertex -2.50474 3.04474 7.56
      vertex -2.50474 3.04474 2
    endloop
  endfacet
  facet normal -0.793367 0.608744 0
    outer loop
      vertex -2.50474 3.04474 7.56
      vertex -2.61068 2.90667 2
      vertex -2.61068 2.90667 7.56
    endloop
  endfacet
  facet normal -0.608744 0.793367 0
    outer loop
      vertex -2.36667 3.15068 2
      vertex -2.50474 3.04474 7.56
      vertex -2.36667 3.15068 7.56
    endloop
  endfacet
  facet normal -0.608744 0.793367 0
    outer loop
      vertex -2.50474 3.04474 7.56
      vertex -2.36667 3.15068 2
      vertex -2.50474 3.04474 2
    endloop
  endfacet
  facet normal -0.382677 0.923882 0
    outer loop
      vertex -2.20588 3.21728 2
      vertex -2.36667 3.15068 7.56
      vertex -2.20588 3.21728 7.56
    endloop
  endfacet
  facet normal -0.382677 0.923882 0
    outer loop
      vertex -2.36667 3.15068 7.56
      vertex -2.20588 3.21728 2
      vertex -2.36667 3.15068 2
    endloop
  endfacet
  facet normal -0.130545 0.991442 0
    outer loop
      vertex -2.03333 3.24 2
      vertex -2.20588 3.21728 7.56
      vertex -2.03333 3.24 7.56
    endloop
  endfacet
  facet normal -0.130545 0.991442 0
    outer loop
      vertex -2.20588 3.21728 7.56
      vertex -2.03333 3.24 2
      vertex -2.20588 3.21728 2
    endloop
  endfacet
  facet normal -0.991442 0.130545 0
    outer loop
      vertex -2.7 2.57333 2
      vertex -2.67728 2.74588 7.56
      vertex -2.67728 2.74588 2
    endloop
  endfacet
  facet normal -0.991442 0.130545 0
    outer loop
      vertex -2.67728 2.74588 7.56
      vertex -2.7 2.57333 2
      vertex -2.7 2.57333 7.56
    endloop
  endfacet
  facet normal -0.923882 0.382677 0
    outer loop
      vertex -2.67728 2.74588 2
      vertex -2.61068 2.90667 7.56
      vertex -2.61068 2.90667 2
    endloop
  endfacet
  facet normal -0.923882 0.382677 0
    outer loop
      vertex -2.61068 2.90667 7.56
      vertex -2.67728 2.74588 2
      vertex -2.67728 2.74588 7.56
    endloop
  endfacet
  facet normal 0.382677 -0.923882 0
    outer loop
      vertex 2.20588 -3.21728 2
      vertex 2.36667 -3.15068 7.56
      vertex 2.20588 -3.21728 7.56
    endloop
  endfacet
  facet normal 0.382677 -0.923882 0
    outer loop
      vertex 2.36667 -3.15068 7.56
      vertex 2.20588 -3.21728 2
      vertex 2.36667 -3.15068 2
    endloop
  endfacet
  facet normal 0.608744 -0.793367 0
    outer loop
      vertex 2.36667 -3.15068 2
      vertex 2.50474 -3.04474 7.56
      vertex 2.36667 -3.15068 7.56
    endloop
  endfacet
  facet normal 0.608744 -0.793367 0
    outer loop
      vertex 2.50474 -3.04474 7.56
      vertex 2.36667 -3.15068 2
      vertex 2.50474 -3.04474 2
    endloop
  endfacet
  facet normal 0.991442 -0.130545 0
    outer loop
      vertex 2.67728 -2.74588 7.56
      vertex 2.7 -2.57333 2
      vertex 2.7 -2.57333 7.56
    endloop
  endfacet
  facet normal 0.991442 -0.130545 0
    outer loop
      vertex 2.7 -2.57333 2
      vertex 2.67728 -2.74588 7.56
      vertex 2.67728 -2.74588 2
    endloop
  endfacet
  facet normal 0.793367 -0.608744 0
    outer loop
      vertex 2.50474 -3.04474 7.56
      vertex 2.61068 -2.90667 2
      vertex 2.61068 -2.90667 7.56
    endloop
  endfacet
  facet normal 0.793367 -0.608744 0
    outer loop
      vertex 2.61068 -2.90667 2
      vertex 2.50474 -3.04474 7.56
      vertex 2.50474 -3.04474 2
    endloop
  endfacet
  facet normal 0.130545 -0.991442 0
    outer loop
      vertex 2.03333 -3.24 2
      vertex 2.20588 -3.21728 7.56
      vertex 2.03333 -3.24 7.56
    endloop
  endfacet
  facet normal 0.130545 -0.991442 0
    outer loop
      vertex 2.20588 -3.21728 7.56
      vertex 2.03333 -3.24 2
      vertex 2.20588 -3.21728 2
    endloop
  endfacet
  facet normal 0.923882 -0.382677 0
    outer loop
      vertex 2.61068 -2.90667 7.56
      vertex 2.67728 -2.74588 2
      vertex 2.67728 -2.74588 7.56
    endloop
  endfacet
  facet normal 0.923882 -0.382677 0
    outer loop
      vertex 2.67728 -2.74588 2
      vertex 2.61068 -2.90667 7.56
      vertex 2.61068 -2.90667 2
    endloop
  endfacet
  facet normal -0.608744 -0.793367 0
    outer loop
      vertex -2.50474 -3.04474 2
      vertex -2.36667 -3.15068 7.56
      vertex -2.50474 -3.04474 7.56
    endloop
  endfacet
  facet normal -0.608744 -0.793367 -0
    outer loop
      vertex -2.36667 -3.15068 7.56
      vertex -2.50474 -3.04474 2
      vertex -2.36667 -3.15068 2
    endloop
  endfacet
  facet normal -0.793367 -0.608744 0
    outer loop
      vertex -2.50474 -3.04474 2
      vertex -2.61068 -2.90667 7.56
      vertex -2.61068 -2.90667 2
    endloop
  endfacet
  facet normal -0.793367 -0.608744 0
    outer loop
      vertex -2.61068 -2.90667 7.56
      vertex -2.50474 -3.04474 2
      vertex -2.50474 -3.04474 7.56
    endloop
  endfacet
  facet normal -0.382677 -0.923882 0
    outer loop
      vertex -2.36667 -3.15068 2
      vertex -2.20588 -3.21728 7.56
      vertex -2.36667 -3.15068 7.56
    endloop
  endfacet
  facet normal -0.382677 -0.923882 -0
    outer loop
      vertex -2.20588 -3.21728 7.56
      vertex -2.36667 -3.15068 2
      vertex -2.20588 -3.21728 2
    endloop
  endfacet
  facet normal -0.991442 -0.130545 0
    outer loop
      vertex -2.67728 -2.74588 2
      vertex -2.7 -2.57333 7.56
      vertex -2.7 -2.57333 2
    endloop
  endfacet
  facet normal -0.991442 -0.130545 0
    outer loop
      vertex -2.7 -2.57333 7.56
      vertex -2.67728 -2.74588 2
      vertex -2.67728 -2.74588 7.56
    endloop
  endfacet
  facet normal -0.130545 -0.991442 0
    outer loop
      vertex -2.20588 -3.21728 2
      vertex -2.03333 -3.24 7.56
      vertex -2.20588 -3.21728 7.56
    endloop
  endfacet
  facet normal -0.130545 -0.991442 -0
    outer loop
      vertex -2.03333 -3.24 7.56
      vertex -2.20588 -3.21728 2
      vertex -2.03333 -3.24 2
    endloop
  endfacet
  facet normal -0.923882 -0.382677 0
    outer loop
      vertex -2.61068 -2.90667 2
      vertex -2.67728 -2.74588 7.56
      vertex -2.67728 -2.74588 2
    endloop
  endfacet
  facet normal -0.923882 -0.382677 0
    outer loop
      vertex -2.67728 -2.74588 7.56
      vertex -2.61068 -2.90667 2
      vertex -2.61068 -2.90667 7.56
    endloop
  endfacet
  facet normal 0 1 -0
    outer loop
      vertex 2.03333 3.24 2
      vertex -2.03333 3.24 7.56
      vertex 2.03333 3.24 7.56
    endloop
  endfacet
  facet normal 0 1 0
    outer loop
      vertex -2.03333 3.24 7.56
      vertex 2.03333 3.24 2
      vertex -2.03333 3.24 2
    endloop
  endfacet
  facet normal 0 -1 0
    outer loop
      vertex -2.03333 -3.24 2
      vertex 2.03333 -3.24 7.56
      vertex -2.03333 -3.24 7.56
    endloop
  endfacet
  facet normal 0 -1 -0
    outer loop
      vertex 2.03333 -3.24 7.56
      vertex -2.03333 -3.24 2
      vertex 2.03333 -3.24 2
    endloop
  endfacet
  facet normal 1 -0 0
    outer loop
      vertex 2.7 -2.57333 7.56
      vertex 2.7 2.57333 2
      vertex 2.7 2.57333 7.56
    endloop
  endfacet
  facet normal 1 0 0
    outer loop
      vertex 2.7 2.57333 2
      vertex 2.7 -2.57333 7.56
      vertex 2.7 -2.57333 2
    endloop
  endfacet
  facet normal -1 0 0
    outer loop
      vertex -2.7 -2.57333 2
      vertex -2.7 2.57333 7.56
      vertex -2.7 2.57333 2
    endloop
  endfacet
  facet normal -1 -0 0
    outer loop
      vertex -2.7 2.57333 7.56
      vertex -2.7 -2.57333 2
      vertex -2.7 -2.57333 7.56
    endloop
  endfacet
  facet normal 0.92388 0.382683 0
    outer loop
      vertex 9.11185 7.69764 7.56
      vertex 8.91205 8.18 2.67029e-07
      vertex 8.91205 8.18 7.56
    endloop
  endfacet
  facet normal 0.92388 0.382683 0
    outer loop
      vertex 8.91205 8.18 2.67029e-07
      vertex 9.11185 7.69764 7.56
      vertex 9.11185 7.69764 2.67029e-07
    endloop
  endfacet
  facet normal 0.991445 0.130529 0
    outer loop
      vertex 9.18 7.18 7.56
      vertex 9.11185 7.69764 2.67029e-07
      vertex 9.11185 7.69764 7.56
    endloop
  endfacet
  facet normal 0.991445 0.130529 0
    outer loop
      vertex 9.11185 7.69764 2.67029e-07
      vertex 9.18 7.18 7.56
      vertex 9.18 7.18 2.67029e-07
    endloop
  endfacet
  facet normal 0.793348 0.608768 0
    outer loop
      vertex 8.91205 8.18 7.56
      vertex 8.59421 8.59421 2.67029e-07
      vertex 8.59421 8.59421 7.56
    endloop
  endfacet
  facet normal 0.793348 0.608768 0
    outer loop
      vertex 8.59421 8.59421 2.67029e-07
      vertex 8.91205 8.18 7.56
      vertex 8.91205 8.18 2.67029e-07
    endloop
  endfacet
  facet normal 0.608768 0.793348 -0
    outer loop
      vertex 8.59421 8.59421 2.67029e-07
      vertex 8.18 8.91205 7.56
      vertex 8.59421 8.59421 7.56
    endloop
  endfacet
  facet normal 0.608768 0.793348 0
    outer loop
      vertex 8.18 8.91205 7.56
      vertex 8.59421 8.59421 2.67029e-07
      vertex 8.18 8.91205 2.67029e-07
    endloop
  endfacet
  facet normal 0.130529 0.991445 -0
    outer loop
      vertex 7.69764 9.11185 2.67029e-07
      vertex 7.18 9.18 7.56
      vertex 7.69764 9.11185 7.56
    endloop
  endfacet
  facet normal 0.130529 0.991445 0
    outer loop
      vertex 7.18 9.18 7.56
      vertex 7.69764 9.11185 2.67029e-07
      vertex 7.18 9.18 2.67029e-07
    endloop
  endfacet
  facet normal 0 0 1
    outer loop
      vertex 9.18 7.18 7.56
      vertex 7.11185 5.69764 7.56
      vertex 7.18 5.18 7.56
    endloop
  endfacet
  facet normal 0 0 1
    outer loop
      vertex 7.69764 9.11185 7.56
      vertex 6.91205 6.18 7.56
      vertex 7.11185 5.69764 7.56
    endloop
  endfacet
  facet normal 0 0 1
    outer loop
      vertex 7.69764 9.11185 7.56
      vertex 6.59421 6.59421 7.56
      vertex 6.91205 6.18 7.56
    endloop
  endfacet
  facet normal 0 0 1
    outer loop
      vertex 7.18 9.18 7.56
      vertex 6.18 6.91205 7.56
      vertex 6.59421 6.59421 7.56
    endloop
  endfacet
  facet normal 0 0 1
    outer loop
      vertex 7.18 9.18 7.56
      vertex 5.69764 7.11185 7.56
      vertex 6.18 6.91205 7.56
    endloop
  endfacet
  facet normal 0 0 1
    outer loop
      vertex 7.18 9.18 7.56
      vertex 5.18 7.18 7.56
      vertex 5.69764 7.11185 7.56
    endloop
  endfacet
  facet normal 0 0 1
    outer loop
      vertex 7.18 9.18 7.56
      vertex -5.18 7.18 7.56
      vertex 5.18 7.18 7.56
    endloop
  endfacet
  facet normal -0 0 1
    outer loop
      vertex -7.18 9.18 7.56
      vertex -5.18 7.18 7.56
      vertex 7.18 9.18 7.56
    endloop
  endfacet
  facet normal 0 0 1
    outer loop
      vertex -5.18 7.18 7.56
      vertex -7.18 9.18 7.56
      vertex -5.69764 7.11185 7.56
    endloop
  endfacet
  facet normal 0 0 1
    outer loop
      vertex -7.18 9.18 7.56
      vertex -6.18 6.91205 7.56
      vertex -5.69764 7.11185 7.56
    endloop
  endfacet
  facet normal 0 0 1
    outer loop
      vertex -7.18 9.18 7.56
      vertex -6.59421 6.59421 7.56
      vertex -6.18 6.91205 7.56
    endloop
  endfacet
  facet normal -0 0 1
    outer loop
      vertex -7.69764 9.11185 7.56
      vertex -6.59421 6.59421 7.56
      vertex -7.18 9.18 7.56
    endloop
  endfacet
  facet normal -0 0 1
    outer loop
      vertex -8.18 8.91205 7.56
      vertex -6.59421 6.59421 7.56
      vertex -7.69764 9.11185 7.56
    endloop
  endfacet
  facet normal -0 0 1
    outer loop
      vertex -8.59421 8.59421 7.56
      vertex -6.59421 6.59421 7.56
      vertex -8.18 8.91205 7.56
    endloop
  endfacet
  facet normal 0 0 1
    outer loop
      vertex -7.11185 5.69764 7.56
      vertex -9.18 7.18 7.56
      vertex -7.18 5.18 7.56
    endloop
  endfacet
  facet normal 0 0 1
    outer loop
      vertex -7.18 5.18 7.56
      vertex -9.18 7.18 7.56
      vertex -7.18 -5.18 7.56
    endloop
  endfacet
  facet normal -0 0 1
    outer loop
      vertex -8.91205 8.18 7.56
      vertex -6.59421 6.59421 7.56
      vertex -8.59421 8.59421 7.56
    endloop
  endfacet
  facet normal 0 0 1
    outer loop
      vertex -9.18 -7.18 7.56
      vertex -7.18 -5.18 7.56
      vertex -9.18 7.18 7.56
    endloop
  endfacet
  facet normal -0 0 1
    outer loop
      vertex -9.11185 7.69764 7.56
      vertex -6.59421 6.59421 7.56
      vertex -8.91205 8.18 7.56
    endloop
  endfacet
  facet normal 0 0 1
    outer loop
      vertex -7.18 -5.18 7.56
      vertex -9.18 -7.18 7.56
      vertex -7.18 -9.18 7.56
    endloop
  endfacet
  facet normal -0 0 1
    outer loop
      vertex -9.18 7.18 7.56
      vertex -6.59421 6.59421 7.56
      vertex -9.11185 7.69764 7.56
    endloop
  endfacet
  facet normal 0 0 1
    outer loop
      vertex -7.18 -9.18 7.56
      vertex -9.18 -7.18 7.56
      vertex -7.69764 -9.11185 7.56
    endloop
  endfacet
  facet normal 0 0 1
    outer loop
      vertex -6.59421 6.59421 7.56
      vertex -9.18 7.18 7.56
      vertex -6.91205 6.18 7.56
    endloop
  endfacet
  facet normal 0 0 1
    outer loop
      vertex -7.69764 -9.11185 7.56
      vertex -9.18 -7.18 7.56
      vertex -8.18 -8.91205 7.56
    endloop
  endfacet
  facet normal 0 0 1
    outer loop
      vertex -6.91205 6.18 7.56
      vertex -9.18 7.18 7.56
      vertex -7.11185 5.69764 7.56
    endloop
  endfacet
  facet normal 0 0 1
    outer loop
      vertex -8.18 -8.91205 7.56
      vertex -9.18 -7.18 7.56
      vertex -8.59421 -8.59421 7.56
    endloop
  endfacet
  facet normal 0 0 1
    outer loop
      vertex -8.59421 -8.59421 7.56
      vertex -9.18 -7.18 7.56
      vertex -8.91205 -8.18 7.56
    endloop
  endfacet
  facet normal 0 0 1
    outer loop
      vertex -8.91205 -8.18 7.56
      vertex -9.18 -7.18 7.56
      vertex -9.11185 -7.69764 7.56
    endloop
  endfacet
  facet normal 0 0 1
    outer loop
      vertex 7.11185 5.69764 7.56
      vertex 9.18 7.18 7.56
      vertex 9.11185 7.69764 7.56
    endloop
  endfacet
  facet normal 0 0 1
    outer loop
      vertex 9.18 7.18 7.56
      vertex 7.18 5.18 7.56
      vertex 9.18 -7.18 7.56
    endloop
  endfacet
  facet normal 0 0 1
    outer loop
      vertex 7.11185 5.69764 7.56
      vertex 9.11185 7.69764 7.56
      vertex 8.91205 8.18 7.56
    endloop
  endfacet
  facet normal -0 0 1
    outer loop
      vertex 7.18 -5.18 7.56
      vertex 9.18 -7.18 7.56
      vertex 7.18 5.18 7.56
    endloop
  endfacet
  facet normal 0 0 1
    outer loop
      vertex 7.11185 5.69764 7.56
      vertex 8.91205 8.18 7.56
      vertex 8.59421 8.59421 7.56
    endloop
  endfacet
  facet normal -0 0 1
    outer loop
      vertex 7.11185 -5.69764 7.56
      vertex 9.18 -7.18 7.56
      vertex 7.18 -5.18 7.56
    endloop
  endfacet
  facet normal 0 0 1
    outer loop
      vertex 7.11185 5.69764 7.56
      vertex 8.59421 8.59421 7.56
      vertex 8.18 8.91205 7.56
    endloop
  endfacet
  facet normal -0 0 1
    outer loop
      vertex 6.91205 -6.18 7.56
      vertex 9.18 -7.18 7.56
      vertex 7.11185 -5.69764 7.56
    endloop
  endfacet
  facet normal 0 0 1
    outer loop
      vertex 7.11185 5.69764 7.56
      vertex 8.18 8.91205 7.56
      vertex 7.69764 9.11185 7.56
    endloop
  endfacet
  facet normal -0 0 1
    outer loop
      vertex 6.59421 -6.59421 7.56
      vertex 9.18 -7.18 7.56
      vertex 6.91205 -6.18 7.56
    endloop
  endfacet
  facet normal 0 0 1
    outer loop
      vertex 6.59421 6.59421 7.56
      vertex 7.69764 9.11185 7.56
      vertex 7.18 9.18 7.56
    endloop
  endfacet
  facet normal 0 0 1
    outer loop
      vertex 9.18 -7.18 7.56
      vertex 6.59421 -6.59421 7.56
      vertex 9.11185 -7.69764 7.56
    endloop
  endfacet
  facet normal 0 0 1
    outer loop
      vertex 9.11185 -7.69764 7.56
      vertex 6.59421 -6.59421 7.56
      vertex 8.91205 -8.18 7.56
    endloop
  endfacet
  facet normal 0 0 1
    outer loop
      vertex 8.91205 -8.18 7.56
      vertex 6.59421 -6.59421 7.56
      vertex 8.59421 -8.59421 7.56
    endloop
  endfacet
  facet normal 0 0 1
    outer loop
      vertex 8.59421 -8.59421 7.56
      vertex 6.59421 -6.59421 7.56
      vertex 8.18 -8.91205 7.56
    endloop
  endfacet
  facet normal 0 0 1
    outer loop
      vertex 8.18 -8.91205 7.56
      vertex 6.59421 -6.59421 7.56
      vertex 7.69764 -9.11185 7.56
    endloop
  endfacet
  facet normal 0 0 1
    outer loop
      vertex 7.69764 -9.11185 7.56
      vertex 6.59421 -6.59421 7.56
      vertex 7.18 -9.18 7.56
    endloop
  endfacet
  facet normal -0 0 1
    outer loop
      vertex 6.18 -6.91205 7.56
      vertex 7.18 -9.18 7.56
      vertex 6.59421 -6.59421 7.56
    endloop
  endfacet
  facet normal -0 0 1
    outer loop
      vertex 5.69764 -7.11185 7.56
      vertex 7.18 -9.18 7.56
      vertex 6.18 -6.91205 7.56
    endloop
  endfacet
  facet normal -0 0 1
    outer loop
      vertex 5.18 -7.18 7.56
      vertex 7.18 -9.18 7.56
      vertex 5.69764 -7.11185 7.56
    endloop
  endfacet
  facet normal -0 0 1
    outer loop
      vertex -5.18 -7.18 7.56
      vertex 7.18 -9.18 7.56
      vertex 5.18 -7.18 7.56
    endloop
  endfacet
  facet normal 0 0 1
    outer loop
      vertex -7.18 -9.18 7.56
      vertex -5.18 -7.18 7.56
      vertex -5.69764 -7.11185 7.56
    endloop
  endfacet
  facet normal 0 0 1
    outer loop
      vertex -5.18 -7.18 7.56
      vertex -7.18 -9.18 7.56
      vertex 7.18 -9.18 7.56
    endloop
  endfacet
  facet normal 0 0 1
    outer loop
      vertex -6.18 -6.91205 7.56
      vertex -7.18 -9.18 7.56
      vertex -5.69764 -7.11185 7.56
    endloop
  endfacet
  facet normal 0 0 1
    outer loop
      vertex -6.59421 -6.59421 7.56
      vertex -7.18 -9.18 7.56
      vertex -6.18 -6.91205 7.56
    endloop
  endfacet
  facet normal 0 0 1
    outer loop
      vertex -6.91205 -6.18 7.56
      vertex -7.18 -9.18 7.56
      vertex -6.59421 -6.59421 7.56
    endloop
  endfacet
  facet normal 0 0 1
    outer loop
      vertex -7.11185 -5.69764 7.56
      vertex -7.18 -9.18 7.56
      vertex -6.91205 -6.18 7.56
    endloop
  endfacet
  facet normal 0 0 1
    outer loop
      vertex -7.18 -9.18 7.56
      vertex -7.11185 -5.69764 7.56
      vertex -7.18 -5.18 7.56
    endloop
  endfacet
  facet normal 0.382683 0.92388 -0
    outer loop
      vertex 8.18 8.91205 2.67029e-07
      vertex 7.69764 9.11185 7.56
      vertex 8.18 8.91205 7.56
    endloop
  endfacet
  facet normal 0.382683 0.92388 0
    outer loop
      vertex 7.69764 9.11185 7.56
      vertex 8.18 8.91205 2.67029e-07
      vertex 7.69764 9.11185 2.67029e-07
    endloop
  endfacet
  facet normal 0 0 -1
    outer loop
      vertex -1.26599 1.96617 2.67029e-07
      vertex 5.37099 3.00317 2.67029e-07
      vertex 5.37099 0.704163 2.67029e-07
    endloop
  endfacet
  facet normal 0 0 -1
    outer loop
      vertex 5.37099 3.00317 2.67029e-07
      vertex -1.26599 1.96617 2.67029e-07
      vertex -1.26199 2.21017 2.67029e-07
    endloop
  endfacet
  facet normal 0 0 -1
    outer loop
      vertex -2.28299 2.09517 2.67029e-07
      vertex -1.26199 2.21017 2.67029e-07
      vertex -1.26599 1.96617 2.67029e-07
    endloop
  endfacet
  facet normal 0 0 -1
    outer loop
      vertex -1.26199 2.21017 2.67029e-07
      vertex -2.28299 2.09517 2.67029e-07
      vertex -2.28299 2.12917 2.67029e-07
    endloop
  endfacet
  facet normal 0 0 -1
    outer loop
      vertex -1.00099 -1.91281 2.67029e-07
      vertex 5.37099 -0.542816 2.67029e-07
      vertex 5.37099 -2.63182 2.67029e-07
    endloop
  endfacet
  facet normal 0 0 -1
    outer loop
      vertex -1.00099 -1.91281 2.67029e-07
      vertex -1.019 -1.64882 2.67029e-07
      vertex 5.37099 -0.542816 2.67029e-07
    endloop
  endfacet
  facet normal 0 0 -1
    outer loop
      vertex -2.06599 -1.81781 2.67029e-07
      vertex -1.019 -1.64882 2.67029e-07
      vertex -1.00099 -1.91281 2.67029e-07
    endloop
  endfacet
  facet normal 0 0 -1
    outer loop
      vertex -1.019 -1.64882 2.67029e-07
      vertex -2.06599 -1.81781 2.67029e-07
      vertex -2.06599 -1.78381 2.67029e-07
    endloop
  endfacet
  facet normal 0 0 -1
    outer loop
      vertex 7.18 -9.18 2.67029e-07
      vertex 9.18 -7.18 2.67029e-07
      vertex 9.11185 -7.69764 2.67029e-07
    endloop
  endfacet
  facet normal 0 0 -1
    outer loop
      vertex 9.18 -7.18 2.67029e-07
      vertex 5.37099 -0.542816 2.67029e-07
      vertex 9.18 7.18 2.67029e-07
    endloop
  endfacet
  facet normal 0 0 -1
    outer loop
      vertex 7.18 -9.18 2.67029e-07
      vertex 9.11185 -7.69764 2.67029e-07
      vertex 8.91205 -8.18 2.67029e-07
    endloop
  endfacet
  facet normal 0 0 -1
    outer loop
      vertex 5.37099 0.704163 2.67029e-07
      vertex 9.18 7.18 2.67029e-07
      vertex 5.37099 -0.542816 2.67029e-07
    endloop
  endfacet
  facet normal 0 0 -1
    outer loop
      vertex 7.18 -9.18 2.67029e-07
      vertex 8.91205 -8.18 2.67029e-07
      vertex 8.59421 -8.59421 2.67029e-07
    endloop
  endfacet
  facet normal 0 0 -1
    outer loop
      vertex 5.37099 3.00317 2.67029e-07
      vertex 9.18 7.18 2.67029e-07
      vertex 5.37099 0.704163 2.67029e-07
    endloop
  endfacet
  facet normal 0 0 -1
    outer loop
      vertex 7.18 -9.18 2.67029e-07
      vertex 8.59421 -8.59421 2.67029e-07
      vertex 8.18 -8.91205 2.67029e-07
    endloop
  endfacet
  facet normal 0 0 -1
    outer loop
      vertex 5.37099 4.07516 2.67029e-07
      vertex 9.18 7.18 2.67029e-07
      vertex 5.37099 3.00317 2.67029e-07
    endloop
  endfacet
  facet normal 0 0 -1
    outer loop
      vertex 7.18 -9.18 2.67029e-07
      vertex 8.18 -8.91205 2.67029e-07
      vertex 7.69764 -9.11185 2.67029e-07
    endloop
  endfacet
  facet normal 0 -0 -1
    outer loop
      vertex 7.18 9.18 2.67029e-07
      vertex 9.18 7.18 2.67029e-07
      vertex 5.37099 4.07516 2.67029e-07
    endloop
  endfacet
  facet normal -0 0 -1
    outer loop
      vertex 9.18 -7.18 2.67029e-07
      vertex 7.18 -9.18 2.67029e-07
      vertex 5.37099 -3.87982 2.67029e-07
    endloop
  endfacet
  facet normal 0 0 -1
    outer loop
      vertex 9.18 7.18 2.67029e-07
      vertex 7.18 9.18 2.67029e-07
      vertex 9.11185 7.69764 2.67029e-07
    endloop
  endfacet
  facet normal 0 0 -1
    outer loop
      vertex 9.18 -7.18 2.67029e-07
      vertex 5.37099 -3.87982 2.67029e-07
      vertex 5.37099 -2.63182 2.67029e-07
    endloop
  endfacet
  facet normal 0 0 -1
    outer loop
      vertex -7.18 -9.18 2.67029e-07
      vertex 5.37099 -3.87982 2.67029e-07
      vertex 7.18 -9.18 2.67029e-07
    endloop
  endfacet
  facet normal 0 0 -1
    outer loop
      vertex -9.18 -7.18 2.67029e-07
      vertex -5.125 -1.37782 2.67029e-07
      vertex -5.125 -2.65881 2.67029e-07
    endloop
  endfacet
  facet normal 0 0 -1
    outer loop
      vertex -9.18 7.18 2.67029e-07
      vertex -5.125 -1.37782 2.67029e-07
      vertex -9.18 -7.18 2.67029e-07
    endloop
  endfacet
  facet normal 0 0 -1
    outer loop
      vertex -9.18 -7.18 2.67029e-07
      vertex -5.125 -2.65881 2.67029e-07
      vertex -7.18 -9.18 2.67029e-07
    endloop
  endfacet
  facet normal -0 0 -1
    outer loop
      vertex 5.37099 -3.87982 2.67029e-07
      vertex -7.18 -9.18 2.67029e-07
      vertex -5.125 -2.65881 2.67029e-07
    endloop
  endfacet
  facet normal 0 0 -1
    outer loop
      vertex 9.18 -7.18 2.67029e-07
      vertex 5.37099 -2.63182 2.67029e-07
      vertex 5.37099 -0.542816 2.67029e-07
    endloop
  endfacet
  facet normal 0 0 -1
    outer loop
      vertex 9.11185 7.69764 2.67029e-07
      vertex 7.18 9.18 2.67029e-07
      vertex 8.91205 8.18 2.67029e-07
    endloop
  endfacet
  facet normal 0 0 -1
    outer loop
      vertex 8.91205 8.18 2.67029e-07
      vertex 7.18 9.18 2.67029e-07
      vertex 8.59421 8.59421 2.67029e-07
    endloop
  endfacet
  facet normal 0 0 -1
    outer loop
      vertex 8.59421 8.59421 2.67029e-07
      vertex 7.18 9.18 2.67029e-07
      vertex 8.18 8.91205 2.67029e-07
    endloop
  endfacet
  facet normal 0 0 -1
    outer loop
      vertex 8.18 8.91205 2.67029e-07
      vertex 7.18 9.18 2.67029e-07
      vertex 7.69764 9.11185 2.67029e-07
    endloop
  endfacet
  facet normal 0 0 -1
    outer loop
      vertex -7.18 9.18 2.67029e-07
      vertex 5.37099 4.07516 2.67029e-07
      vertex -5.125 2.80017 2.67029e-07
    endloop
  endfacet
  facet normal 0 0 -1
    outer loop
      vertex 5.37099 4.07516 2.67029e-07
      vertex -7.18 9.18 2.67029e-07
      vertex 7.18 9.18 2.67029e-07
    endloop
  endfacet
  facet normal 0 0 -1
    outer loop
      vertex -5.125 -1.37782 2.67029e-07
      vertex -9.18 7.18 2.67029e-07
      vertex -5.125 1.50517 2.67029e-07
    endloop
  endfacet
  facet normal 0 0 -1
    outer loop
      vertex -9.18 -7.18 2.67029e-07
      vertex -7.18 -9.18 2.67029e-07
      vertex -7.69764 -9.11185 2.67029e-07
    endloop
  endfacet
  facet normal 0 0 -1
    outer loop
      vertex -5.125 1.50517 2.67029e-07
      vertex -9.18 7.18 2.67029e-07
      vertex -5.125 2.80017 2.67029e-07
    endloop
  endfacet
  facet normal 0 0 -1
    outer loop
      vertex -9.18 -7.18 2.67029e-07
      vertex -7.69764 -9.11185 2.67029e-07
      vertex -8.18 -8.91205 2.67029e-07
    endloop
  endfacet
  facet normal 0 0 -1
    outer loop
      vertex -5.125 2.80017 2.67029e-07
      vertex -9.18 7.18 2.67029e-07
      vertex -7.18 9.18 2.67029e-07
    endloop
  endfacet
  facet normal 0 0 -1
    outer loop
      vertex -9.18 -7.18 2.67029e-07
      vertex -8.18 -8.91205 2.67029e-07
      vertex -8.59421 -8.59421 2.67029e-07
    endloop
  endfacet
  facet normal 0 0 -1
    outer loop
      vertex -7.18 9.18 2.67029e-07
      vertex -9.18 7.18 2.67029e-07
      vertex -7.69764 9.11185 2.67029e-07
    endloop
  endfacet
  facet normal 0 0 -1
    outer loop
      vertex -9.18 -7.18 2.67029e-07
      vertex -8.59421 -8.59421 2.67029e-07
      vertex -8.91205 -8.18 2.67029e-07
    endloop
  endfacet
  facet normal 0 0 -1
    outer loop
      vertex -7.69764 9.11185 2.67029e-07
      vertex -9.18 7.18 2.67029e-07
      vertex -8.18 8.91205 2.67029e-07
    endloop
  endfacet
  facet normal 0 0 -1
    outer loop
      vertex -9.18 -7.18 2.67029e-07
      vertex -8.91205 -8.18 2.67029e-07
      vertex -9.11185 -7.69764 2.67029e-07
    endloop
  endfacet
  facet normal 0 0 -1
    outer loop
      vertex -8.18 8.91205 2.67029e-07
      vertex -9.18 7.18 2.67029e-07
      vertex -8.59421 8.59421 2.67029e-07
    endloop
  endfacet
  facet normal 0 0 -1
    outer loop
      vertex -8.59421 8.59421 2.67029e-07
      vertex -9.18 7.18 2.67029e-07
      vertex -8.91205 8.18 2.67029e-07
    endloop
  endfacet
  facet normal 0 0 -1
    outer loop
      vertex -8.91205 8.18 2.67029e-07
      vertex -9.18 7.18 2.67029e-07
      vertex -9.11185 7.69764 2.67029e-07
    endloop
  endfacet
  facet normal 0 0 -1
    outer loop
      vertex 2.00899 -0.156815 2.67029e-07
      vertex 3.08099 0.00616455 2.67029e-07
      vertex 3.08099 -0.0278168 2.67029e-07
    endloop
  endfacet
  facet normal 0 0 -1
    outer loop
      vertex 2.00899 -0.156815 2.67029e-07
      vertex 2.00899 0.148163 2.67029e-07
      vertex 3.08099 0.00616455 2.67029e-07
    endloop
  endfacet
  facet normal 0 0 -1
    outer loop
      vertex -5.125 -1.37782 2.67029e-07
      vertex 2.00899 0.148163 2.67029e-07
      vertex 2.00899 -0.156815 2.67029e-07
    endloop
  endfacet
  facet normal -0 0 -1
    outer loop
      vertex 2.00899 0.148163 2.67029e-07
      vertex -5.125 -1.37782 2.67029e-07
      vertex -5.125 1.50517 2.67029e-07
    endloop
  endfacet
  facet normal -0.608768 0.793348 0
    outer loop
      vertex -8.18 8.91205 2.67029e-07
      vertex -8.59421 8.59421 7.56
      vertex -8.18 8.91205 7.56
    endloop
  endfacet
  facet normal -0.608768 0.793348 0
    outer loop
      vertex -8.59421 8.59421 7.56
      vertex -8.18 8.91205 2.67029e-07
      vertex -8.59421 8.59421 2.67029e-07
    endloop
  endfacet
  facet normal -0.991445 0.130529 0
    outer loop
      vertex -9.18 7.18 2.67029e-07
      vertex -9.11185 7.69764 7.56
      vertex -9.11185 7.69764 2.67029e-07
    endloop
  endfacet
  facet normal -0.991445 0.130529 0
    outer loop
      vertex -9.11185 7.69764 7.56
      vertex -9.18 7.18 2.67029e-07
      vertex -9.18 7.18 7.56
    endloop
  endfacet
  facet normal -0.382683 0.92388 0
    outer loop
      vertex -7.69764 9.11185 2.67029e-07
      vertex -8.18 8.91205 7.56
      vertex -7.69764 9.11185 7.56
    endloop
  endfacet
  facet normal -0.382683 0.92388 0
    outer loop
      vertex -8.18 8.91205 7.56
      vertex -7.69764 9.11185 2.67029e-07
      vertex -8.18 8.91205 2.67029e-07
    endloop
  endfacet
  facet normal -0.92388 0.382683 0
    outer loop
      vertex -9.11185 7.69764 2.67029e-07
      vertex -8.91205 8.18 7.56
      vertex -8.91205 8.18 2.67029e-07
    endloop
  endfacet
  facet normal -0.92388 0.382683 0
    outer loop
      vertex -8.91205 8.18 7.56
      vertex -9.11185 7.69764 2.67029e-07
      vertex -9.11185 7.69764 7.56
    endloop
  endfacet
  facet normal -0.130529 0.991445 0
    outer loop
      vertex -7.18 9.18 2.67029e-07
      vertex -7.69764 9.11185 7.56
      vertex -7.18 9.18 7.56
    endloop
  endfacet
  facet normal -0.130529 0.991445 0
    outer loop
      vertex -7.69764 9.11185 7.56
      vertex -7.18 9.18 2.67029e-07
      vertex -7.69764 9.11185 2.67029e-07
    endloop
  endfacet
  facet normal -0.793348 0.608768 0
    outer loop
      vertex -8.91205 8.18 2.67029e-07
      vertex -8.59421 8.59421 7.56
      vertex -8.59421 8.59421 2.67029e-07
    endloop
  endfacet
  facet normal -0.793348 0.608768 0
    outer loop
      vertex -8.59421 8.59421 7.56
      vertex -8.91205 8.18 2.67029e-07
      vertex -8.91205 8.18 7.56
    endloop
  endfacet
  facet normal 0.382683 -0.92388 0
    outer loop
      vertex 7.69764 -9.11185 2.67029e-07
      vertex 8.18 -8.91205 7.56
      vertex 7.69764 -9.11185 7.56
    endloop
  endfacet
  facet normal 0.382683 -0.92388 0
    outer loop
      vertex 8.18 -8.91205 7.56
      vertex 7.69764 -9.11185 2.67029e-07
      vertex 8.18 -8.91205 2.67029e-07
    endloop
  endfacet
  facet normal 0.608768 -0.793348 0
    outer loop
      vertex 8.18 -8.91205 2.67029e-07
      vertex 8.59421 -8.59421 7.56
      vertex 8.18 -8.91205 7.56
    endloop
  endfacet
  facet normal 0.608768 -0.793348 0
    outer loop
      vertex 8.59421 -8.59421 7.56
      vertex 8.18 -8.91205 2.67029e-07
      vertex 8.59421 -8.59421 2.67029e-07
    endloop
  endfacet
  facet normal 0.991445 -0.130529 0
    outer loop
      vertex 9.11185 -7.69764 7.56
      vertex 9.18 -7.18 2.67029e-07
      vertex 9.18 -7.18 7.56
    endloop
  endfacet
  facet normal 0.991445 -0.130529 0
    outer loop
      vertex 9.18 -7.18 2.67029e-07
      vertex 9.11185 -7.69764 7.56
      vertex 9.11185 -7.69764 2.67029e-07
    endloop
  endfacet
  facet normal 0.793348 -0.608768 0
    outer loop
      vertex 8.59421 -8.59421 7.56
      vertex 8.91205 -8.18 2.67029e-07
      vertex 8.91205 -8.18 7.56
    endloop
  endfacet
  facet normal 0.793348 -0.608768 0
    outer loop
      vertex 8.91205 -8.18 2.67029e-07
      vertex 8.59421 -8.59421 7.56
      vertex 8.59421 -8.59421 2.67029e-07
    endloop
  endfacet
  facet normal 0.130529 -0.991445 0
    outer loop
      vertex 7.18 -9.18 2.67029e-07
      vertex 7.69764 -9.11185 7.56
      vertex 7.18 -9.18 7.56
    endloop
  endfacet
  facet normal 0.130529 -0.991445 0
    outer loop
      vertex 7.69764 -9.11185 7.56
      vertex 7.18 -9.18 2.67029e-07
      vertex 7.69764 -9.11185 2.67029e-07
    endloop
  endfacet
  facet normal 0.92388 -0.382683 0
    outer loop
      vertex 8.91205 -8.18 7.56
      vertex 9.11185 -7.69764 2.67029e-07
      vertex 9.11185 -7.69764 7.56
    endloop
  endfacet
  facet normal 0.92388 -0.382683 0
    outer loop
      vertex 9.11185 -7.69764 2.67029e-07
      vertex 8.91205 -8.18 7.56
      vertex 8.91205 -8.18 2.67029e-07
    endloop
  endfacet
  facet normal -0.130529 -0.991445 0
    outer loop
      vertex -7.69764 -9.11185 2.67029e-07
      vertex -7.18 -9.18 7.56
      vertex -7.69764 -9.11185 7.56
    endloop
  endfacet
  facet normal -0.130529 -0.991445 -0
    outer loop
      vertex -7.18 -9.18 7.56
      vertex -7.69764 -9.11185 2.67029e-07
      vertex -7.18 -9.18 2.67029e-07
    endloop
  endfacet
  facet normal -0.608768 -0.793348 0
    outer loop
      vertex -8.59421 -8.59421 2.67029e-07
      vertex -8.18 -8.91205 7.56
      vertex -8.59421 -8.59421 7.56
    endloop
  endfacet
  facet normal -0.608768 -0.793348 -0
    outer loop
      vertex -8.18 -8.91205 7.56
      vertex -8.59421 -8.59421 2.67029e-07
      vertex -8.18 -8.91205 2.67029e-07
    endloop
  endfacet
  facet normal -0.793348 -0.608768 0
    outer loop
      vertex -8.59421 -8.59421 2.67029e-07
      vertex -8.91205 -8.18 7.56
      vertex -8.91205 -8.18 2.67029e-07
    endloop
  endfacet
  facet normal -0.793348 -0.608768 0
    outer loop
      vertex -8.91205 -8.18 7.56
      vertex -8.59421 -8.59421 2.67029e-07
      vertex -8.59421 -8.59421 7.56
    endloop
  endfacet
  facet normal -0.92388 -0.382683 0
    outer loop
      vertex -8.91205 -8.18 2.67029e-07
      vertex -9.11185 -7.69764 7.56
      vertex -9.11185 -7.69764 2.67029e-07
    endloop
  endfacet
  facet normal -0.92388 -0.382683 0
    outer loop
      vertex -9.11185 -7.69764 7.56
      vertex -8.91205 -8.18 2.67029e-07
      vertex -8.91205 -8.18 7.56
    endloop
  endfacet
  facet normal -0.991445 -0.130529 0
    outer loop
      vertex -9.11185 -7.69764 2.67029e-07
      vertex -9.18 -7.18 7.56
      vertex -9.18 -7.18 2.67029e-07
    endloop
  endfacet
  facet normal -0.991445 -0.130529 0
    outer loop
      vertex -9.18 -7.18 7.56
      vertex -9.11185 -7.69764 2.67029e-07
      vertex -9.11185 -7.69764 7.56
    endloop
  endfacet
  facet normal -0.382683 -0.92388 0
    outer loop
      vertex -8.18 -8.91205 2.67029e-07
      vertex -7.69764 -9.11185 7.56
      vertex -8.18 -8.91205 7.56
    endloop
  endfacet
  facet normal -0.382683 -0.92388 -0
    outer loop
      vertex -7.69764 -9.11185 7.56
      vertex -8.18 -8.91205 2.67029e-07
      vertex -7.69764 -9.11185 2.67029e-07
    endloop
  endfacet
  facet normal 0 1 -0
    outer loop
      vertex 7.18 9.18 2.67029e-07
      vertex -7.18 9.18 7.56
      vertex 7.18 9.18 7.56
    endloop
  endfacet
  facet normal 0 1 0
    outer loop
      vertex -7.18 9.18 7.56
      vertex 7.18 9.18 2.67029e-07
      vertex -7.18 9.18 2.67029e-07
    endloop
  endfacet
  facet normal 0 -1 0
    outer loop
      vertex -7.18 -9.18 2.67029e-07
      vertex 7.18 -9.18 7.56
      vertex -7.18 -9.18 7.56
    endloop
  endfacet
  facet normal 0 -1 -0
    outer loop
      vertex 7.18 -9.18 7.56
      vertex -7.18 -9.18 2.67029e-07
      vertex 7.18 -9.18 2.67029e-07
    endloop
  endfacet
  facet normal 1 -0 0
    outer loop
      vertex 9.18 -7.18 7.56
      vertex 9.18 7.18 2.67029e-07
      vertex 9.18 7.18 7.56
    endloop
  endfacet
  facet normal 1 0 0
    outer loop
      vertex 9.18 7.18 2.67029e-07
      vertex 9.18 -7.18 7.56
      vertex 9.18 -7.18 2.67029e-07
    endloop
  endfacet
  facet normal -1 0 0
    outer loop
      vertex -9.18 -7.18 2.67029e-07
      vertex -9.18 7.18 7.56
      vertex -9.18 7.18 2.67029e-07
    endloop
  endfacet
  facet normal -1 -0 0
    outer loop
      vertex -9.18 7.18 7.56
      vertex -9.18 -7.18 2.67029e-07
      vertex -9.18 -7.18 7.56
    endloop
  endfacet
  facet normal -0.991445 -0.130529 0
    outer loop
      vertex 7.18 5.18 2
      vertex 7.11185 5.69764 7.56
      vertex 7.11185 5.69764 2
    endloop
  endfacet
  facet normal -0.991445 -0.130529 0
    outer loop
      vertex 7.11185 5.69764 7.56
      vertex 7.18 5.18 2
      vertex 7.18 5.18 7.56
    endloop
  endfacet
  facet normal -0.92388 -0.382683 0
    outer loop
      vertex 7.11185 5.69764 2
      vertex 6.91205 6.18 7.56
      vertex 6.91205 6.18 2
    endloop
  endfacet
  facet normal -0.92388 -0.382683 0
    outer loop
      vertex 6.91205 6.18 7.56
      vertex 7.11185 5.69764 2
      vertex 7.11185 5.69764 7.56
    endloop
  endfacet
  facet normal -0.793348 -0.608768 0
    outer loop
      vertex 6.91205 6.18 2
      vertex 6.59421 6.59421 7.56
      vertex 6.59421 6.59421 2
    endloop
  endfacet
  facet normal -0.793348 -0.608768 0
    outer loop
      vertex 6.59421 6.59421 7.56
      vertex 6.91205 6.18 2
      vertex 6.91205 6.18 7.56
    endloop
  endfacet
  facet normal 0 0 1
    outer loop
      vertex 5.18 7.18 2
      vertex 7.18 5.18 2
      vertex 7.11185 5.69764 2
    endloop
  endfacet
  facet normal 0 0 1
    outer loop
      vertex 7.18 5.18 2
      vertex 2.7 2.57333 2
      vertex 7.18 -5.18 2
    endloop
  endfacet
  facet normal 0 0 1
    outer loop
      vertex 5.18 7.18 2
      vertex 7.11185 5.69764 2
      vertex 6.91205 6.18 2
    endloop
  endfacet
  facet normal -0 0 1
    outer loop
      vertex 2.7 -2.57333 2
      vertex 7.18 -5.18 2
      vertex 2.7 2.57333 2
    endloop
  endfacet
  facet normal 0 0 1
    outer loop
      vertex 5.18 7.18 2
      vertex 6.91205 6.18 2
      vertex 6.59421 6.59421 2
    endloop
  endfacet
  facet normal -0 0 1
    outer loop
      vertex 2.67728 -2.74588 2
      vertex 7.18 -5.18 2
      vertex 2.7 -2.57333 2
    endloop
  endfacet
  facet normal 0 0 1
    outer loop
      vertex 5.18 7.18 2
      vertex 6.59421 6.59421 2
      vertex 6.18 6.91205 2
    endloop
  endfacet
  facet normal -0 0 1
    outer loop
      vertex 2.61068 -2.90667 2
      vertex 7.18 -5.18 2
      vertex 2.67728 -2.74588 2
    endloop
  endfacet
  facet normal 0 0 1
    outer loop
      vertex 5.18 7.18 2
      vertex 6.18 6.91205 2
      vertex 5.69764 7.11185 2
    endloop
  endfacet
  facet normal -0 0 1
    outer loop
      vertex 2.50474 -3.04474 2
      vertex 7.18 -5.18 2
      vertex 2.61068 -2.90667 2
    endloop
  endfacet
  facet normal 0 0 1
    outer loop
      vertex 2.50474 3.04474 2
      vertex 7.18 5.18 2
      vertex 5.18 7.18 2
    endloop
  endfacet
  facet normal 0 0 1
    outer loop
      vertex 7.18 -5.18 2
      vertex 5.18 -7.18 2
      vertex 7.11185 -5.69764 2
    endloop
  endfacet
  facet normal 0 0 1
    outer loop
      vertex 7.11185 -5.69764 2
      vertex 5.18 -7.18 2
      vertex 6.91205 -6.18 2
    endloop
  endfacet
  facet normal 0 0 1
    outer loop
      vertex 7.18 5.18 2
      vertex 2.67728 2.74588 2
      vertex 2.7 2.57333 2
    endloop
  endfacet
  facet normal 0 0 1
    outer loop
      vertex 7.18 5.18 2
      vertex 2.61068 2.90667 2
      vertex 2.67728 2.74588 2
    endloop
  endfacet
  facet normal 0 0 1
    outer loop
      vertex 7.18 5.18 2
      vertex 2.50474 3.04474 2
      vertex 2.61068 2.90667 2
    endloop
  endfacet
  facet normal 0 0 1
    outer loop
      vertex 5.18 7.18 2
      vertex 2.36667 3.15068 2
      vertex 2.50474 3.04474 2
    endloop
  endfacet
  facet normal 0 0 1
    outer loop
      vertex 5.18 7.18 2
      vertex 2.20588 3.21728 2
      vertex 2.36667 3.15068 2
    endloop
  endfacet
  facet normal 0 0 1
    outer loop
      vertex 5.18 7.18 2
      vertex 2.03333 3.24 2
      vertex 2.20588 3.21728 2
    endloop
  endfacet
  facet normal 0 0 1
    outer loop
      vertex 5.18 7.18 2
      vertex -2.03333 3.24 2
      vertex 2.03333 3.24 2
    endloop
  endfacet
  facet normal -0 0 1
    outer loop
      vertex -5.18 7.18 2
      vertex -2.03333 3.24 2
      vertex 5.18 7.18 2
    endloop
  endfacet
  facet normal 0 0 1
    outer loop
      vertex -2.03333 3.24 2
      vertex -5.18 7.18 2
      vertex -2.20588 3.21728 2
    endloop
  endfacet
  facet normal 0 0 1
    outer loop
      vertex -2.67728 2.74588 2
      vertex -7.18 5.18 2
      vertex -2.7 2.57333 2
    endloop
  endfacet
  facet normal 0 0 1
    outer loop
      vertex -2.61068 2.90667 2
      vertex -7.18 5.18 2
      vertex -2.67728 2.74588 2
    endloop
  endfacet
  facet normal 0 0 1
    outer loop
      vertex -2.50474 3.04474 2
      vertex -7.18 5.18 2
      vertex -2.61068 2.90667 2
    endloop
  endfacet
  facet normal -0 0 1
    outer loop
      vertex -7.18 5.18 2
      vertex -2.50474 3.04474 2
      vertex -5.18 7.18 2
    endloop
  endfacet
  facet normal 0 0 1
    outer loop
      vertex -2.36667 3.15068 2
      vertex -5.18 7.18 2
      vertex -2.50474 3.04474 2
    endloop
  endfacet
  facet normal 0 0 1
    outer loop
      vertex -2.20588 3.21728 2
      vertex -5.18 7.18 2
      vertex -2.36667 3.15068 2
    endloop
  endfacet
  facet normal 0 0 1
    outer loop
      vertex 6.91205 -6.18 2
      vertex 5.18 -7.18 2
      vertex 6.59421 -6.59421 2
    endloop
  endfacet
  facet normal 0 0 1
    outer loop
      vertex 6.59421 -6.59421 2
      vertex 5.18 -7.18 2
      vertex 6.18 -6.91205 2
    endloop
  endfacet
  facet normal 0 0 1
    outer loop
      vertex 6.18 -6.91205 2
      vertex 5.18 -7.18 2
      vertex 5.69764 -7.11185 2
    endloop
  endfacet
  facet normal 0 0 1
    outer loop
      vertex 7.18 -5.18 2
      vertex 2.50474 -3.04474 2
      vertex 5.18 -7.18 2
    endloop
  endfacet
  facet normal -0 0 1
    outer loop
      vertex 2.36667 -3.15068 2
      vertex 5.18 -7.18 2
      vertex 2.50474 -3.04474 2
    endloop
  endfacet
  facet normal -0 0 1
    outer loop
      vertex 2.20588 -3.21728 2
      vertex 5.18 -7.18 2
      vertex 2.36667 -3.15068 2
    endloop
  endfacet
  facet normal -0 0 1
    outer loop
      vertex 2.03333 -3.24 2
      vertex 5.18 -7.18 2
      vertex 2.20588 -3.21728 2
    endloop
  endfacet
  facet normal -0 0 1
    outer loop
      vertex -2.03333 -3.24 2
      vertex 5.18 -7.18 2
      vertex 2.03333 -3.24 2
    endloop
  endfacet
  facet normal 0 0 1
    outer loop
      vertex -5.18 -7.18 2
      vertex -2.03333 -3.24 2
      vertex -2.20588 -3.21728 2
    endloop
  endfacet
  facet normal 0 0 1
    outer loop
      vertex -5.18 -7.18 2
      vertex -2.20588 -3.21728 2
      vertex -2.36667 -3.15068 2
    endloop
  endfacet
  facet normal 0 0 1
    outer loop
      vertex -2.7 2.57333 2
      vertex -7.18 5.18 2
      vertex -2.7 -2.57333 2
    endloop
  endfacet
  facet normal 0 0 1
    outer loop
      vertex -2.03333 -3.24 2
      vertex -5.18 -7.18 2
      vertex 5.18 -7.18 2
    endloop
  endfacet
  facet normal 0 0 1
    outer loop
      vertex -2.50474 -3.04474 2
      vertex -5.18 -7.18 2
      vertex -2.36667 -3.15068 2
    endloop
  endfacet
  facet normal 0 0 1
    outer loop
      vertex -7.18 -5.18 2
      vertex -2.50474 -3.04474 2
      vertex -2.61068 -2.90667 2
    endloop
  endfacet
  facet normal 0 0 1
    outer loop
      vertex -7.18 -5.18 2
      vertex -2.61068 -2.90667 2
      vertex -2.67728 -2.74588 2
    endloop
  endfacet
  facet normal 0 0 1
    outer loop
      vertex -7.18 -5.18 2
      vertex -2.7 -2.57333 2
      vertex -7.18 5.18 2
    endloop
  endfacet
  facet normal 0 0 1
    outer loop
      vertex -7.18 5.18 2
      vertex -5.18 7.18 2
      vertex -5.69764 7.11185 2
    endloop
  endfacet
  facet normal 0 0 1
    outer loop
      vertex -2.7 -2.57333 2
      vertex -7.18 -5.18 2
      vertex -2.67728 -2.74588 2
    endloop
  endfacet
  facet normal 0 0 1
    outer loop
      vertex -7.18 5.18 2
      vertex -5.69764 7.11185 2
      vertex -6.18 6.91205 2
    endloop
  endfacet
  facet normal 0 0 1
    outer loop
      vertex -2.50474 -3.04474 2
      vertex -7.18 -5.18 2
      vertex -5.18 -7.18 2
    endloop
  endfacet
  facet normal 0 0 1
    outer loop
      vertex -7.18 5.18 2
      vertex -6.18 6.91205 2
      vertex -6.59421 6.59421 2
    endloop
  endfacet
  facet normal 0 0 1
    outer loop
      vertex -5.18 -7.18 2
      vertex -7.18 -5.18 2
      vertex -5.69764 -7.11185 2
    endloop
  endfacet
  facet normal 0 0 1
    outer loop
      vertex -7.18 5.18 2
      vertex -6.59421 6.59421 2
      vertex -6.91205 6.18 2
    endloop
  endfacet
  facet normal 0 0 1
    outer loop
      vertex -5.69764 -7.11185 2
      vertex -7.18 -5.18 2
      vertex -6.18 -6.91205 2
    endloop
  endfacet
  facet normal 0 0 1
    outer loop
      vertex -7.18 5.18 2
      vertex -6.91205 6.18 2
      vertex -7.11185 5.69764 2
    endloop
  endfacet
  facet normal 0 0 1
    outer loop
      vertex -6.18 -6.91205 2
      vertex -7.18 -5.18 2
      vertex -6.59421 -6.59421 2
    endloop
  endfacet
  facet normal 0 0 1
    outer loop
      vertex -6.59421 -6.59421 2
      vertex -7.18 -5.18 2
      vertex -6.91205 -6.18 2
    endloop
  endfacet
  facet normal 0 0 1
    outer loop
      vertex -6.91205 -6.18 2
      vertex -7.18 -5.18 2
      vertex -7.11185 -5.69764 2
    endloop
  endfacet
  facet normal -0 0 1
    outer loop
      vertex -2.2 0.65 2
      vertex -0.65 -0.65 2
      vertex -0.65 0.65 2
    endloop
  endfacet
  facet normal 0 0 1
    outer loop
      vertex -0.65 -0.65 2
      vertex -2.2 0.65 2
      vertex -2.2 -0.65 2
    endloop
  endfacet
  facet normal 0 0 1
    outer loop
      vertex -0.65 0.65 2
      vertex 0.65 0.65 2
      vertex 0.65 2.2 2
    endloop
  endfacet
  facet normal 0 0 1
    outer loop
      vertex 0.65 0.65 2
      vertex -0.65 0.65 2
      vertex 0.65 -0.65 2
    endloop
  endfacet
  facet normal 0 0 1
    outer loop
      vertex -0.65 0.65 2
      vertex 0.65 2.2 2
      vertex -0.65 2.2 2
    endloop
  endfacet
  facet normal 0 0 1
    outer loop
      vertex -0.65 -0.65 2
      vertex 0.65 -0.65 2
      vertex -0.65 0.65 2
    endloop
  endfacet
  facet normal 0 0 1
    outer loop
      vertex 0.65 -0.65 2
      vertex -0.65 -0.65 2
      vertex 0.65 -2.2 2
    endloop
  endfacet
  facet normal 0 0 1
    outer loop
      vertex 0.65 -2.2 2
      vertex -0.65 -0.65 2
      vertex -0.65 -2.2 2
    endloop
  endfacet
  facet normal -0 0 1
    outer loop
      vertex 0.65 0.65 2
      vertex 2.2 -0.65 2
      vertex 2.2 0.65 2
    endloop
  endfacet
  facet normal 0 0 1
    outer loop
      vertex 2.2 -0.65 2
      vertex 0.65 0.65 2
      vertex 0.65 -0.65 2
    endloop
  endfacet
  facet normal -0.130529 -0.991445 0
    outer loop
      vertex 5.18 7.18 2
      vertex 5.69764 7.11185 7.56
      vertex 5.18 7.18 7.56
    endloop
  endfacet
  facet normal -0.130529 -0.991445 -0
    outer loop
      vertex 5.69764 7.11185 7.56
      vertex 5.18 7.18 2
      vertex 5.69764 7.11185 2
    endloop
  endfacet
  facet normal -0.608768 -0.793348 0
    outer loop
      vertex 6.18 6.91205 2
      vertex 6.59421 6.59421 7.56
      vertex 6.18 6.91205 7.56
    endloop
  endfacet
  facet normal -0.608768 -0.793348 -0
    outer loop
      vertex 6.59421 6.59421 7.56
      vertex 6.18 6.91205 2
      vertex 6.59421 6.59421 2
    endloop
  endfacet
  facet normal -0.382683 -0.92388 0
    outer loop
      vertex 5.69764 7.11185 2
      vertex 6.18 6.91205 7.56
      vertex 5.69764 7.11185 7.56
    endloop
  endfacet
  facet normal -0.382683 -0.92388 -0
    outer loop
      vertex 6.18 6.91205 7.56
      vertex 5.69764 7.11185 2
      vertex 6.18 6.91205 2
    endloop
  endfacet
  facet normal 0.608768 -0.793348 0
    outer loop
      vertex -6.59421 6.59421 2
      vertex -6.18 6.91205 7.56
      vertex -6.59421 6.59421 7.56
    endloop
  endfacet
  facet normal 0.608768 -0.793348 0
    outer loop
      vertex -6.18 6.91205 7.56
      vertex -6.59421 6.59421 2
      vertex -6.18 6.91205 2
    endloop
  endfacet
  facet normal 0.382683 -0.92388 0
    outer loop
      vertex -6.18 6.91205 2
      vertex -5.69764 7.11185 7.56
      vertex -6.18 6.91205 7.56
    endloop
  endfacet
  facet normal 0.382683 -0.92388 0
    outer loop
      vertex -5.69764 7.11185 7.56
      vertex -6.18 6.91205 2
      vertex -5.69764 7.11185 2
    endloop
  endfacet
  facet normal 0.92388 -0.382683 0
    outer loop
      vertex -7.11185 5.69764 7.56
      vertex -6.91205 6.18 2
      vertex -6.91205 6.18 7.56
    endloop
  endfacet
  facet normal 0.92388 -0.382683 0
    outer loop
      vertex -6.91205 6.18 2
      vertex -7.11185 5.69764 7.56
      vertex -7.11185 5.69764 2
    endloop
  endfacet
  facet normal 0.130529 -0.991445 0
    outer loop
      vertex -5.69764 7.11185 2
      vertex -5.18 7.18 7.56
      vertex -5.69764 7.11185 7.56
    endloop
  endfacet
  facet normal 0.130529 -0.991445 0
    outer loop
      vertex -5.18 7.18 7.56
      vertex -5.69764 7.11185 2
      vertex -5.18 7.18 2
    endloop
  endfacet
  facet normal 0.793348 -0.608768 0
    outer loop
      vertex -6.91205 6.18 7.56
      vertex -6.59421 6.59421 2
      vertex -6.59421 6.59421 7.56
    endloop
  endfacet
  facet normal 0.793348 -0.608768 0
    outer loop
      vertex -6.59421 6.59421 2
      vertex -6.91205 6.18 7.56
      vertex -6.91205 6.18 2
    endloop
  endfacet
  facet normal 0.991445 -0.130529 0
    outer loop
      vertex -7.18 5.18 7.56
      vertex -7.11185 5.69764 2
      vertex -7.11185 5.69764 7.56
    endloop
  endfacet
  facet normal 0.991445 -0.130529 0
    outer loop
      vertex -7.11185 5.69764 2
      vertex -7.18 5.18 7.56
      vertex -7.18 5.18 2
    endloop
  endfacet
  facet normal -0.92388 0.382683 0
    outer loop
      vertex 6.91205 -6.18 2
      vertex 7.11185 -5.69764 7.56
      vertex 7.11185 -5.69764 2
    endloop
  endfacet
  facet normal -0.92388 0.382683 0
    outer loop
      vertex 7.11185 -5.69764 7.56
      vertex 6.91205 -6.18 2
      vertex 6.91205 -6.18 7.56
    endloop
  endfacet
  facet normal -0.130529 0.991445 0
    outer loop
      vertex 5.69764 -7.11185 2
      vertex 5.18 -7.18 7.56
      vertex 5.69764 -7.11185 7.56
    endloop
  endfacet
  facet normal -0.130529 0.991445 0
    outer loop
      vertex 5.18 -7.18 7.56
      vertex 5.69764 -7.11185 2
      vertex 5.18 -7.18 2
    endloop
  endfacet
  facet normal -0.793348 0.608768 0
    outer loop
      vertex 6.59421 -6.59421 2
      vertex 6.91205 -6.18 7.56
      vertex 6.91205 -6.18 2
    endloop
  endfacet
  facet normal -0.793348 0.608768 0
    outer loop
      vertex 6.91205 -6.18 7.56
      vertex 6.59421 -6.59421 2
      vertex 6.59421 -6.59421 7.56
    endloop
  endfacet
  facet normal -0.382683 0.92388 0
    outer loop
      vertex 6.18 -6.91205 2
      vertex 5.69764 -7.11185 7.56
      vertex 6.18 -6.91205 7.56
    endloop
  endfacet
  facet normal -0.382683 0.92388 0
    outer loop
      vertex 5.69764 -7.11185 7.56
      vertex 6.18 -6.91205 2
      vertex 5.69764 -7.11185 2
    endloop
  endfacet
  facet normal -0.608768 0.793348 0
    outer loop
      vertex 6.59421 -6.59421 2
      vertex 6.18 -6.91205 7.56
      vertex 6.59421 -6.59421 7.56
    endloop
  endfacet
  facet normal -0.608768 0.793348 0
    outer loop
      vertex 6.18 -6.91205 7.56
      vertex 6.59421 -6.59421 2
      vertex 6.18 -6.91205 2
    endloop
  endfacet
  facet normal -0.991445 0.130529 0
    outer loop
      vertex 7.11185 -5.69764 2
      vertex 7.18 -5.18 7.56
      vertex 7.18 -5.18 2
    endloop
  endfacet
  facet normal -0.991445 0.130529 0
    outer loop
      vertex 7.18 -5.18 7.56
      vertex 7.11185 -5.69764 2
      vertex 7.11185 -5.69764 7.56
    endloop
  endfacet
  facet normal 0.608768 0.793348 -0
    outer loop
      vertex -6.18 -6.91205 2
      vertex -6.59421 -6.59421 7.56
      vertex -6.18 -6.91205 7.56
    endloop
  endfacet
  facet normal 0.608768 0.793348 0
    outer loop
      vertex -6.59421 -6.59421 7.56
      vertex -6.18 -6.91205 2
      vertex -6.59421 -6.59421 2
    endloop
  endfacet
  facet normal 0.793348 0.608768 0
    outer loop
      vertex -6.59421 -6.59421 7.56
      vertex -6.91205 -6.18 2
      vertex -6.91205 -6.18 7.56
    endloop
  endfacet
  facet normal 0.793348 0.608768 0
    outer loop
      vertex -6.91205 -6.18 2
      vertex -6.59421 -6.59421 7.56
      vertex -6.59421 -6.59421 2
    endloop
  endfacet
  facet normal 0.92388 0.382683 0
    outer loop
      vertex -6.91205 -6.18 7.56
      vertex -7.11185 -5.69764 2
      vertex -7.11185 -5.69764 7.56
    endloop
  endfacet
  facet normal 0.92388 0.382683 0
    outer loop
      vertex -7.11185 -5.69764 2
      vertex -6.91205 -6.18 7.56
      vertex -6.91205 -6.18 2
    endloop
  endfacet
  facet normal 0.991445 0.130529 0
    outer loop
      vertex -7.11185 -5.69764 7.56
      vertex -7.18 -5.18 2
      vertex -7.18 -5.18 7.56
    endloop
  endfacet
  facet normal 0.991445 0.130529 0
    outer loop
      vertex -7.18 -5.18 2
      vertex -7.11185 -5.69764 7.56
      vertex -7.11185 -5.69764 2
    endloop
  endfacet
  facet normal 0.382683 0.92388 -0
    outer loop
      vertex -5.69764 -7.11185 2
      vertex -6.18 -6.91205 7.56
      vertex -5.69764 -7.11185 7.56
    endloop
  endfacet
  facet normal 0.382683 0.92388 0
    outer loop
      vertex -6.18 -6.91205 7.56
      vertex -5.69764 -7.11185 2
      vertex -6.18 -6.91205 2
    endloop
  endfacet
  facet normal 0.130529 0.991445 -0
    outer loop
      vertex -5.18 -7.18 2
      vertex -5.69764 -7.11185 7.56
      vertex -5.18 -7.18 7.56
    endloop
  endfacet
  facet normal 0.130529 0.991445 0
    outer loop
      vertex -5.69764 -7.11185 7.56
      vertex -5.18 -7.18 2
      vertex -5.69764 -7.11185 2
    endloop
  endfacet
  facet normal 0 -1 0
    outer loop
      vertex -5.18 7.18 2
      vertex 5.18 7.18 7.56
      vertex -5.18 7.18 7.56
    endloop
  endfacet
  facet normal 0 -1 -0
    outer loop
      vertex 5.18 7.18 7.56
      vertex -5.18 7.18 2
      vertex 5.18 7.18 2
    endloop
  endfacet
  facet normal 0 1 -0
    outer loop
      vertex 5.18 -7.18 2
      vertex -5.18 -7.18 7.56
      vertex 5.18 -7.18 7.56
    endloop
  endfacet
  facet normal 0 1 0
    outer loop
      vertex -5.18 -7.18 7.56
      vertex 5.18 -7.18 2
      vertex -5.18 -7.18 2
    endloop
  endfacet
  facet normal -1 0 0
    outer loop
      vertex 7.18 -5.18 2
      vertex 7.18 5.18 7.56
      vertex 7.18 5.18 2
    endloop
  endfacet
  facet normal -1 -0 0
    outer loop
      vertex 7.18 5.18 7.56
      vertex 7.18 -5.18 2
      vertex 7.18 -5.18 7.56
    endloop
  endfacet
  facet normal 1 -0 0
    outer loop
      vertex -7.18 -5.18 7.56
      vertex -7.18 5.18 2
      vertex -7.18 5.18 7.56
    endloop
  endfacet
  facet normal 1 0 0
    outer loop
      vertex -7.18 5.18 2
      vertex -7.18 -5.18 7.56
      vertex -7.18 -5.18 2
    endloop
  endfacet
  facet normal 0 0 -1
    outer loop
      vertex 5.37099 -3.87982 0.398999
      vertex -1.00099 -1.91281 0.398999
      vertex 5.37099 -2.63182 0.398999
    endloop
  endfacet
  facet normal 0 0 -1
    outer loop
      vertex -5.125 -2.65881 0.398999
      vertex -1.00099 -1.91281 0.398999
      vertex 5.37099 -3.87982 0.398999
    endloop
  endfacet
  facet normal 0 0 -1
    outer loop
      vertex -5.125 -1.37782 0.398999
      vertex -2.06599 -1.81781 0.398999
      vertex -5.125 -2.65881 0.398999
    endloop
  endfacet
  facet normal -0 0 -1
    outer loop
      vertex -1.00099 -1.91281 0.398999
      vertex -5.125 -2.65881 0.398999
      vertex -2.06599 -1.81781 0.398999
    endloop
  endfacet
  facet normal 0 0 -1
    outer loop
      vertex 3.08099 0.00616455 0.398999
      vertex 5.37099 -0.542816 0.398999
      vertex 3.08099 -0.0278168 0.398999
    endloop
  endfacet
  facet normal 0 0 -1
    outer loop
      vertex 5.37099 -0.542816 0.398999
      vertex 2.00899 -0.156815 0.398999
      vertex 3.08099 -0.0278168 0.398999
    endloop
  endfacet
  facet normal 0 0 -1
    outer loop
      vertex -1.019 -1.64882 0.398999
      vertex 2.00899 -0.156815 0.398999
      vertex 5.37099 -0.542816 0.398999
    endloop
  endfacet
  facet normal 0 0 -1
    outer loop
      vertex -2.06599 -1.78381 0.398999
      vertex 2.00899 -0.156815 0.398999
      vertex -1.019 -1.64882 0.398999
    endloop
  endfacet
  facet normal 0 0 -1
    outer loop
      vertex -2.06599 -1.81781 0.398999
      vertex -5.125 -1.37782 0.398999
      vertex -2.06599 -1.78381 0.398999
    endloop
  endfacet
  facet normal 0 0 -1
    outer loop
      vertex -2.06599 -1.78381 0.398999
      vertex -5.125 -1.37782 0.398999
      vertex 2.00899 -0.156815 0.398999
    endloop
  endfacet
  facet normal 0 0 -1
    outer loop
      vertex 5.37099 -0.542816 0.398999
      vertex 3.08099 0.00616455 0.398999
      vertex 5.37099 0.704163 0.398999
    endloop
  endfacet
  facet normal 0 0 -1
    outer loop
      vertex 2.00899 0.148163 0.398999
      vertex 5.37099 0.704163 0.398999
      vertex 3.08099 0.00616455 0.398999
    endloop
  endfacet
  facet normal 0 0 -1
    outer loop
      vertex 2.00899 0.148163 0.398999
      vertex -1.26599 1.96617 0.398999
      vertex 5.37099 0.704163 0.398999
    endloop
  endfacet
  facet normal 0 0 -1
    outer loop
      vertex -5.125 1.50517 0.398999
      vertex -1.26599 1.96617 0.398999
      vertex 2.00899 0.148163 0.398999
    endloop
  endfacet
  facet normal -0 0 -1
    outer loop
      vertex -2.28299 2.09517 0.398999
      vertex -5.125 1.50517 0.398999
      vertex -2.28299 2.12917 0.398999
    endloop
  endfacet
  facet normal -0 0 -1
    outer loop
      vertex -1.26599 1.96617 0.398999
      vertex -5.125 1.50517 0.398999
      vertex -2.28299 2.09517 0.398999
    endloop
  endfacet
  facet normal 0 0 -1
    outer loop
      vertex -1.26199 2.21017 0.398999
      vertex 5.37099 4.07516 0.398999
      vertex 5.37099 3.00317 0.398999
    endloop
  endfacet
  facet normal 0 0 -1
    outer loop
      vertex -5.125 2.80017 0.398999
      vertex -1.26199 2.21017 0.398999
      vertex -2.28299 2.12917 0.398999
    endloop
  endfacet
  facet normal 0 0 -1
    outer loop
      vertex -5.125 2.80017 0.398999
      vertex -2.28299 2.12917 0.398999
      vertex -5.125 1.50517 0.398999
    endloop
  endfacet
  facet normal 0 0 -1
    outer loop
      vertex -1.26199 2.21017 0.398999
      vertex -5.125 2.80017 0.398999
      vertex 5.37099 4.07516 0.398999
    endloop
  endfacet
  facet normal 0.119472 -0.992838 0
    outer loop
      vertex 2.00899 -0.156815 2.67029e-07
      vertex 3.08099 -0.0278168 0.398999
      vertex 2.00899 -0.156815 0.398999
    endloop
  endfacet
  facet normal 0.119472 -0.992838 0
    outer loop
      vertex 3.08099 -0.0278168 0.398999
      vertex 2.00899 -0.156815 2.67029e-07
      vertex 3.08099 -0.0278168 2.67029e-07
    endloop
  endfacet
  facet normal 1 -0 0
    outer loop
      vertex 3.08099 -0.0278168 0.398999
      vertex 3.08099 0.00616455 2.67029e-07
      vertex 3.08099 0.00616455 0.398999
    endloop
  endfacet
  facet normal 1 0 0
    outer loop
      vertex 3.08099 0.00616455 2.67029e-07
      vertex 3.08099 -0.0278168 0.398999
      vertex 3.08099 -0.0278168 2.67029e-07
    endloop
  endfacet
  facet normal 0.131314 0.991341 -0
    outer loop
      vertex 3.08099 0.00616455 2.67029e-07
      vertex 2.00899 0.148163 0.398999
      vertex 3.08099 0.00616455 0.398999
    endloop
  endfacet
  facet normal 0.131314 0.991341 0
    outer loop
      vertex 2.00899 0.148163 0.398999
      vertex 3.08099 0.00616455 2.67029e-07
      vertex 2.00899 0.148163 2.67029e-07
    endloop
  endfacet
  facet normal 0.186867 0.982385 -0
    outer loop
      vertex 2.00899 0.148163 2.67029e-07
      vertex -5.125 1.50517 0.398999
      vertex 2.00899 0.148163 0.398999
    endloop
  endfacet
  facet normal 0.186867 0.982385 0
    outer loop
      vertex -5.125 1.50517 0.398999
      vertex 2.00899 0.148163 2.67029e-07
      vertex -5.125 1.50517 2.67029e-07
    endloop
  endfacet
  facet normal 1 -0 0
    outer loop
      vertex -5.125 1.50517 0.398999
      vertex -5.125 2.80017 2.67029e-07
      vertex -5.125 2.80017 0.398999
    endloop
  endfacet
  facet normal 1 0 0
    outer loop
      vertex -5.125 2.80017 2.67029e-07
      vertex -5.125 1.50517 0.398999
      vertex -5.125 1.50517 2.67029e-07
    endloop
  endfacet
  facet normal 0.120588 -0.992703 0
    outer loop
      vertex -5.125 2.80017 2.67029e-07
      vertex 5.37099 4.07516 0.398999
      vertex -5.125 2.80017 0.398999
    endloop
  endfacet
  facet normal 0.120588 -0.992703 0
    outer loop
      vertex 5.37099 4.07516 0.398999
      vertex -5.125 2.80017 2.67029e-07
      vertex 5.37099 4.07516 2.67029e-07
    endloop
  endfacet
  facet normal -1 0 0
    outer loop
      vertex 5.37099 3.00317 2.67029e-07
      vertex 5.37099 4.07516 0.398999
      vertex 5.37099 4.07516 2.67029e-07
    endloop
  endfacet
  facet normal -1 -0 0
    outer loop
      vertex 5.37099 4.07516 0.398999
      vertex 5.37099 3.00317 2.67029e-07
      vertex 5.37099 3.00317 0.398999
    endloop
  endfacet
  facet normal -0.118709 0.992929 0
    outer loop
      vertex 5.37099 3.00317 2.67029e-07
      vertex -1.26199 2.21017 0.398999
      vertex 5.37099 3.00317 0.398999
    endloop
  endfacet
  facet normal -0.118709 0.992929 0
    outer loop
      vertex -1.26199 2.21017 0.398999
      vertex 5.37099 3.00317 2.67029e-07
      vertex -1.26199 2.21017 2.67029e-07
    endloop
  endfacet
  facet normal -0.0790855 0.996868 0
    outer loop
      vertex -1.26199 2.21017 2.67029e-07
      vertex -2.28299 2.12917 0.398999
      vertex -1.26199 2.21017 0.398999
    endloop
  endfacet
  facet normal -0.0790855 0.996868 0
    outer loop
      vertex -2.28299 2.12917 0.398999
      vertex -1.26199 2.21017 2.67029e-07
      vertex -2.28299 2.12917 2.67029e-07
    endloop
  endfacet
  facet normal -1 0 0
    outer loop
      vertex -2.28299 2.09517 2.67029e-07
      vertex -2.28299 2.12917 0.398999
      vertex -2.28299 2.12917 2.67029e-07
    endloop
  endfacet
  facet normal -1 -0 0
    outer loop
      vertex -2.28299 2.12917 0.398999
      vertex -2.28299 2.09517 2.67029e-07
      vertex -2.28299 2.09517 0.398999
    endloop
  endfacet
  facet normal -0.125835 -0.992051 0
    outer loop
      vertex -2.28299 2.09517 2.67029e-07
      vertex -1.26599 1.96617 0.398999
      vertex -2.28299 2.09517 0.398999
    endloop
  endfacet
  facet normal -0.125835 -0.992051 -0
    outer loop
      vertex -1.26599 1.96617 0.398999
      vertex -2.28299 2.09517 2.67029e-07
      vertex -1.26599 1.96617 2.67029e-07
    endloop
  endfacet
  facet normal -0.186801 -0.982398 0
    outer loop
      vertex -1.26599 1.96617 2.67029e-07
      vertex 5.37099 0.704163 0.398999
      vertex -1.26599 1.96617 0.398999
    endloop
  endfacet
  facet normal -0.186801 -0.982398 -0
    outer loop
      vertex 5.37099 0.704163 0.398999
      vertex -1.26599 1.96617 2.67029e-07
      vertex 5.37099 0.704163 2.67029e-07
    endloop
  endfacet
  facet normal -1 0 0
    outer loop
      vertex 5.37099 -0.542816 2.67029e-07
      vertex 5.37099 0.704163 0.398999
      vertex 5.37099 0.704163 2.67029e-07
    endloop
  endfacet
  facet normal -1 -0 0
    outer loop
      vertex 5.37099 0.704163 0.398999
      vertex 5.37099 -0.542816 2.67029e-07
      vertex 5.37099 -0.542816 0.398999
    endloop
  endfacet
  facet normal -0.170548 0.985349 0
    outer loop
      vertex 5.37099 -0.542816 2.67029e-07
      vertex -1.019 -1.64882 0.398999
      vertex 5.37099 -0.542816 0.398999
    endloop
  endfacet
  facet normal -0.170548 0.985349 0
    outer loop
      vertex -1.019 -1.64882 0.398999
      vertex 5.37099 -0.542816 2.67029e-07
      vertex -1.019 -1.64882 2.67029e-07
    endloop
  endfacet
  facet normal -0.127873 0.991791 0
    outer loop
      vertex -1.019 -1.64882 2.67029e-07
      vertex -2.06599 -1.78381 0.398999
      vertex -1.019 -1.64882 0.398999
    endloop
  endfacet
  facet normal -0.127873 0.991791 0
    outer loop
      vertex -2.06599 -1.78381 0.398999
      vertex -1.019 -1.64882 2.67029e-07
      vertex -2.06599 -1.78381 2.67029e-07
    endloop
  endfacet
  facet normal -1 0 0
    outer loop
      vertex -2.06599 -1.81781 2.67029e-07
      vertex -2.06599 -1.78381 0.398999
      vertex -2.06599 -1.78381 2.67029e-07
    endloop
  endfacet
  facet normal -1 -0 0
    outer loop
      vertex -2.06599 -1.78381 0.398999
      vertex -2.06599 -1.81781 2.67029e-07
      vertex -2.06599 -1.81781 0.398999
    endloop
  endfacet
  facet normal -0.0888491 -0.996045 0
    outer loop
      vertex -2.06599 -1.81781 2.67029e-07
      vertex -1.00099 -1.91281 0.398999
      vertex -2.06599 -1.81781 0.398999
    endloop
  endfacet
  facet normal -0.0888491 -0.996045 -0
    outer loop
      vertex -1.00099 -1.91281 0.398999
      vertex -2.06599 -1.81781 2.67029e-07
      vertex -1.00099 -1.91281 2.67029e-07
    endloop
  endfacet
  facet normal -0.112128 -0.993694 0
    outer loop
      vertex -1.00099 -1.91281 2.67029e-07
      vertex 5.37099 -2.63182 0.398999
      vertex -1.00099 -1.91281 0.398999
    endloop
  endfacet
  facet normal -0.112128 -0.993694 -0
    outer loop
      vertex 5.37099 -2.63182 0.398999
      vertex -1.00099 -1.91281 2.67029e-07
      vertex 5.37099 -2.63182 2.67029e-07
    endloop
  endfacet
  facet normal -1 0 0
    outer loop
      vertex 5.37099 -3.87982 2.67029e-07
      vertex 5.37099 -2.63182 0.398999
      vertex 5.37099 -2.63182 2.67029e-07
    endloop
  endfacet
  facet normal -1 -0 0
    outer loop
      vertex 5.37099 -2.63182 0.398999
      vertex 5.37099 -3.87982 2.67029e-07
      vertex 5.37099 -3.87982 0.398999
    endloop
  endfacet
  facet normal 0.115552 0.993301 -0
    outer loop
      vertex 5.37099 -3.87982 2.67029e-07
      vertex -5.125 -2.65881 0.398999
      vertex 5.37099 -3.87982 0.398999
    endloop
  endfacet
  facet normal 0.115552 0.993301 0
    outer loop
      vertex -5.125 -2.65881 0.398999
      vertex 5.37099 -3.87982 2.67029e-07
      vertex -5.125 -2.65881 2.67029e-07
    endloop
  endfacet
  facet normal 1 -0 0
    outer loop
      vertex -5.125 -2.65881 0.398999
      vertex -5.125 -1.37782 2.67029e-07
      vertex -5.125 -1.37782 0.398999
    endloop
  endfacet
  facet normal 1 0 0
    outer loop
      vertex -5.125 -1.37782 2.67029e-07
      vertex -5.125 -2.65881 0.398999
      vertex -5.125 -2.65881 2.67029e-07
    endloop
  endfacet
  facet normal 0.1687 -0.985667 0
    outer loop
      vertex -5.125 -1.37782 2.67029e-07
      vertex 2.00899 -0.156815 0.398999
      vertex -5.125 -1.37782 0.398999
    endloop
  endfacet
  facet normal 0.1687 -0.985667 0
    outer loop
      vertex 2.00899 -0.156815 0.398999
      vertex -5.125 -1.37782 2.67029e-07
      vertex 2.00899 -0.156815 2.67029e-07
    endloop
  endfacet
endsolid OpenSCAD_Model
