solid OpenSCAD_Model
  facet normal -1 0 0
    outer loop
      vertex 0.65 0.65 2
      vertex 0.65 2.2 7.56
      vertex 0.65 2.2 2
    endloop
  endfacet
  facet normal -1 -0 0
    outer loop
      vertex 0.65 2.2 7.56
      vertex 0.65 0.65 2
      vertex 0.65 0.65 7.56
    endloop
  endfacet
  facet normal -1 0 0
    outer loop
      vertex 0.65 -2.2 2
      vertex 0.65 -0.65 7.56
      vertex 0.65 -0.65 2
    endloop
  endfacet
  facet normal -1 -0 0
    outer loop
      vertex 0.65 -0.65 7.56
      vertex 0.65 -2.2 2
      vertex 0.65 -2.2 7.56
    endloop
  endfacet
  facet normal 1 -0 0
    outer loop
      vertex -0.65 -2.2 7.56
      vertex -0.65 -0.65 2
      vertex -0.65 -0.65 7.56
    endloop
  endfacet
  facet normal 1 0 0
    outer loop
      vertex -0.65 -0.65 2
      vertex -0.65 -2.2 7.56
      vertex -0.65 -2.2 2
    endloop
  endfacet
  facet normal 1 -0 0
    outer loop
      vertex -0.65 0.65 7.56
      vertex -0.65 2.2 2
      vertex -0.65 2.2 7.56
    endloop
  endfacet
  facet normal 1 0 0
    outer loop
      vertex -0.65 2.2 2
      vertex -0.65 0.65 7.56
      vertex -0.65 0.65 2
    endloop
  endfacet
  facet normal 0 -1 0
    outer loop
      vertex -0.65 2.2 2
      vertex 0.65 2.2 7.56
      vertex -0.65 2.2 7.56
    endloop
  endfacet
  facet normal 0 -1 -0
    outer loop
      vertex 0.65 2.2 7.56
      vertex -0.65 2.2 2
      vertex 0.65 2.2 2
    endloop
  endfacet
  facet normal 0 1 -0
    outer loop
      vertex 0.65 -2.2 2
      vertex -0.65 -2.2 7.56
      vertex 0.65 -2.2 7.56
    endloop
  endfacet
  facet normal 0 1 0
    outer loop
      vertex -0.65 -2.2 7.56
      vertex 0.65 -2.2 2
      vertex -0.65 -2.2 2
    endloop
  endfacet
  facet normal -1 0 0
    outer loop
      vertex 2.2 -0.65 2
      vertex 2.2 0.65 7.56
      vertex 2.2 0.65 2
    endloop
  endfacet
  facet normal -1 -0 0
    outer loop
      vertex 2.2 0.65 7.56
      vertex 2.2 -0.65 2
      vertex 2.2 -0.65 7.56
    endloop
  endfacet
  facet normal 1 -0 0
    outer loop
      vertex -2.2 -0.65 7.56
      vertex -2.2 0.65 2
      vertex -2.2 0.65 7.56
    endloop
  endfacet
  facet normal 1 0 0
    outer loop
      vertex -2.2 0.65 2
      vertex -2.2 -0.65 7.56
      vertex -2.2 -0.65 2
    endloop
  endfacet
  facet normal 0 -1 0
    outer loop
      vertex -2.2 0.65 2
      vertex -0.65 0.65 7.56
      vertex -2.2 0.65 7.56
    endloop
  endfacet
  facet normal 0 -1 -0
    outer loop
      vertex -0.65 0.65 7.56
      vertex -2.2 0.65 2
      vertex -0.65 0.65 2
    endloop
  endfacet
  facet normal 0 -1 0
    outer loop
      vertex 0.65 0.65 2
      vertex 2.2 0.65 7.56
      vertex 0.65 0.65 7.56
    endloop
  endfacet
  facet normal 0 -1 -0
    outer loop
      vertex 2.2 0.65 7.56
      vertex 0.65 0.65 2
      vertex 2.2 0.65 2
    endloop
  endfacet
  facet normal 0 1 -0
    outer loop
      vertex -0.65 -0.65 2
      vertex -2.2 -0.65 7.56
      vertex -0.65 -0.65 7.56
    endloop
  endfacet
  facet normal 0 1 0
    outer loop
      vertex -2.2 -0.65 7.56
      vertex -0.65 -0.65 2
      vertex -2.2 -0.65 2
    endloop
  endfacet
  facet normal 0 1 -0
    outer loop
      vertex 2.2 -0.65 2
      vertex 0.65 -0.65 7.56
      vertex 2.2 -0.65 7.56
    endloop
  endfacet
  facet normal 0 1 0
    outer loop
      vertex 0.65 -0.65 7.56
      vertex 2.2 -0.65 2
      vertex 0.65 -0.65 2
    endloop
  endfacet
  facet normal 0.130545 0.991442 -0
    outer loop
      vertex 2.20588 3.21728 2
      vertex 2.03333 3.24 7.56
      vertex 2.20588 3.21728 7.56
    endloop
  endfacet
  facet normal 0.130545 0.991442 0
    outer loop
      vertex 2.03333 3.24 7.56
      vertex 2.20588 3.21728 2
      vertex 2.03333 3.24 2
    endloop
  endfacet
  facet normal 0.991442 0.130545 0
    outer loop
      vertex 2.7 2.57333 7.56
      vertex 2.67728 2.74588 2
      vertex 2.67728 2.74588 7.56
    endloop
  endfacet
  facet normal 0.991442 0.130545 0
    outer loop
      vertex 2.67728 2.74588 2
      vertex 2.7 2.57333 7.56
      vertex 2.7 2.57333 2
    endloop
  endfacet
  facet normal 0.923882 0.382677 0
    outer loop
      vertex 2.67728 2.74588 7.56
      vertex 2.61068 2.90667 2
      vertex 2.61068 2.90667 7.56
    endloop
  endfacet
  facet normal 0.923882 0.382677 0
    outer loop
      vertex 2.61068 2.90667 2
      vertex 2.67728 2.74588 7.56
      vertex 2.67728 2.74588 2
    endloop
  endfacet
  facet normal 0.793367 0.608744 0
    outer loop
      vertex 2.61068 2.90667 7.56
      vertex 2.50474 3.04474 2
      vertex 2.50474 3.04474 7.56
    endloop
  endfacet
  facet normal 0.793367 0.608744 0
    outer loop
      vertex 2.50474 3.04474 2
      vertex 2.61068 2.90667 7.56
      vertex 2.61068 2.90667 2
    endloop
  endfacet
  facet normal 0.608744 0.793367 -0
    outer loop
      vertex 2.50474 3.04474 2
      vertex 2.36667 3.15068 7.56
      vertex 2.50474 3.04474 7.56
    endloop
  endfacet
  facet normal 0.608744 0.793367 0
    outer loop
      vertex 2.36667 3.15068 7.56
      vertex 2.50474 3.04474 2
      vertex 2.36667 3.15068 2
    endloop
  endfacet
  facet normal 0.382677 0.923882 -0
    outer loop
      vertex 2.36667 3.15068 2
      vertex 2.20588 3.21728 7.56
      vertex 2.36667 3.15068 7.56
    endloop
  endfacet
  facet normal 0.382677 0.923882 0
    outer loop
      vertex 2.20588 3.21728 7.56
      vertex 2.36667 3.15068 2
      vertex 2.20588 3.21728 2
    endloop
  endfacet
  facet normal -0 0 1
    outer loop
      vertex -2.2 -0.65 7.56
      vertex -0.65 -2.2 7.56
      vertex -0.65 -0.65 7.56
    endloop
  endfacet
  facet normal 0 0 1
    outer loop
      vertex -0.65 -2.2 7.56
      vertex -2.2 -0.65 7.56
      vertex -2.7 -2.57333 7.56
    endloop
  endfacet
  facet normal 0 0 1
    outer loop
      vertex -0.65 -2.2 7.56
      vertex -2.7 -2.57333 7.56
      vertex -2.03333 -3.24 7.56
    endloop
  endfacet
  facet normal 0 0 1
    outer loop
      vertex -2.2 0.65 7.56
      vertex -2.7 2.57333 7.56
      vertex -2.2 -0.65 7.56
    endloop
  endfacet
  facet normal 0 0 1
    outer loop
      vertex -2.7 2.57333 7.56
      vertex -2.20588 3.21728 7.56
      vertex -2.36667 3.15068 7.56
    endloop
  endfacet
  facet normal 0 0 1
    outer loop
      vertex -2.7 -2.57333 7.56
      vertex -2.2 -0.65 7.56
      vertex -2.7 2.57333 7.56
    endloop
  endfacet
  facet normal 0 0 1
    outer loop
      vertex -2.7 2.57333 7.56
      vertex -2.36667 3.15068 7.56
      vertex -2.50474 3.04474 7.56
    endloop
  endfacet
  facet normal 0 0 1
    outer loop
      vertex -2.03333 -3.24 7.56
      vertex -2.7 -2.57333 7.56
      vertex -2.20588 -3.21728 7.56
    endloop
  endfacet
  facet normal 0 0 1
    outer loop
      vertex -2.7 2.57333 7.56
      vertex -2.50474 3.04474 7.56
      vertex -2.61068 2.90667 7.56
    endloop
  endfacet
  facet normal 0 0 1
    outer loop
      vertex -2.20588 -3.21728 7.56
      vertex -2.7 -2.57333 7.56
      vertex -2.36667 -3.15068 7.56
    endloop
  endfacet
  facet normal 0 0 1
    outer loop
      vertex -2.7 2.57333 7.56
      vertex -2.61068 2.90667 7.56
      vertex -2.67728 2.74588 7.56
    endloop
  endfacet
  facet normal 0 0 1
    outer loop
      vertex -2.36667 -3.15068 7.56
      vertex -2.7 -2.57333 7.56
      vertex -2.50474 -3.04474 7.56
    endloop
  endfacet
  facet normal 0 0 1
    outer loop
      vertex -2.50474 -3.04474 7.56
      vertex -2.7 -2.57333 7.56
      vertex -2.61068 -2.90667 7.56
    endloop
  endfacet
  facet normal 0 0 1
    outer loop
      vertex -2.61068 -2.90667 7.56
      vertex -2.7 -2.57333 7.56
      vertex -2.67728 -2.74588 7.56
    endloop
  endfacet
  facet normal 0 0 1
    outer loop
      vertex 2.03333 3.24 7.56
      vertex -0.65 2.2 7.56
      vertex 0.65 2.2 7.56
    endloop
  endfacet
  facet normal -0 0 1
    outer loop
      vertex -2.03333 3.24 7.56
      vertex -0.65 2.2 7.56
      vertex 2.03333 3.24 7.56
    endloop
  endfacet
  facet normal -0 0 1
    outer loop
      vertex -2.7 2.57333 7.56
      vertex -0.65 2.2 7.56
      vertex -2.03333 3.24 7.56
    endloop
  endfacet
  facet normal 0 0 1
    outer loop
      vertex -0.65 2.2 7.56
      vertex -2.2 0.65 7.56
      vertex -0.65 0.65 7.56
    endloop
  endfacet
  facet normal 0 0 1
    outer loop
      vertex -0.65 2.2 7.56
      vertex -2.7 2.57333 7.56
      vertex -2.2 0.65 7.56
    endloop
  endfacet
  facet normal 0 0 1
    outer loop
      vertex -2.7 2.57333 7.56
      vertex -2.03333 3.24 7.56
      vertex -2.20588 3.21728 7.56
    endloop
  endfacet
  facet normal 0 0 1
    outer loop
      vertex 2.03333 3.24 7.56
      vertex 2.7 2.57333 7.56
      vertex 2.67728 2.74588 7.56
    endloop
  endfacet
  facet normal 0 0 1
    outer loop
      vertex 2.7 2.57333 7.56
      vertex 2.2 0.65 7.56
      vertex 2.7 -2.57333 7.56
    endloop
  endfacet
  facet normal 0 0 1
    outer loop
      vertex 2.03333 3.24 7.56
      vertex 2.67728 2.74588 7.56
      vertex 2.61068 2.90667 7.56
    endloop
  endfacet
  facet normal -0 0 1
    outer loop
      vertex 2.2 -0.65 7.56
      vertex 2.7 -2.57333 7.56
      vertex 2.2 0.65 7.56
    endloop
  endfacet
  facet normal 0 0 1
    outer loop
      vertex 2.03333 3.24 7.56
      vertex 2.61068 2.90667 7.56
      vertex 2.50474 3.04474 7.56
    endloop
  endfacet
  facet normal -0 0 1
    outer loop
      vertex 0.65 -2.2 7.56
      vertex 2.7 -2.57333 7.56
      vertex 2.2 -0.65 7.56
    endloop
  endfacet
  facet normal 0 0 1
    outer loop
      vertex 2.03333 3.24 7.56
      vertex 2.50474 3.04474 7.56
      vertex 2.36667 3.15068 7.56
    endloop
  endfacet
  facet normal 0 -0 1
    outer loop
      vertex 2.03333 -3.24 7.56
      vertex 2.7 -2.57333 7.56
      vertex 0.65 -2.2 7.56
    endloop
  endfacet
  facet normal 0 0 1
    outer loop
      vertex 2.03333 3.24 7.56
      vertex 2.36667 3.15068 7.56
      vertex 2.20588 3.21728 7.56
    endloop
  endfacet
  facet normal 0 0 1
    outer loop
      vertex 2.7 -2.57333 7.56
      vertex 2.03333 -3.24 7.56
      vertex 2.67728 -2.74588 7.56
    endloop
  endfacet
  facet normal 0 0 1
    outer loop
      vertex 2.67728 -2.74588 7.56
      vertex 2.03333 -3.24 7.56
      vertex 2.61068 -2.90667 7.56
    endloop
  endfacet
  facet normal 0 0 1
    outer loop
      vertex 2.7 2.57333 7.56
      vertex 2.03333 3.24 7.56
      vertex 0.65 2.2 7.56
    endloop
  endfacet
  facet normal 0 0 1
    outer loop
      vertex 2.7 2.57333 7.56
      vertex 0.65 2.2 7.56
      vertex 2.2 0.65 7.56
    endloop
  endfacet
  facet normal 0 0 1
    outer loop
      vertex 2.2 0.65 7.56
      vertex 0.65 2.2 7.56
      vertex 0.65 0.65 7.56
    endloop
  endfacet
  facet normal 0 0 1
    outer loop
      vertex 2.61068 -2.90667 7.56
      vertex 2.03333 -3.24 7.56
      vertex 2.50474 -3.04474 7.56
    endloop
  endfacet
  facet normal 0 0 1
    outer loop
      vertex 2.36667 -3.15068 7.56
      vertex 2.03333 -3.24 7.56
      vertex 2.20588 -3.21728 7.56
    endloop
  endfacet
  facet normal 0 0 1
    outer loop
      vertex 0.65 -2.2 7.56
      vertex 2.2 -0.65 7.56
      vertex 0.65 -0.65 7.56
    endloop
  endfacet
  facet normal 0 0 1
    outer loop
      vertex 2.50474 -3.04474 7.56
      vertex 2.03333 -3.24 7.56
      vertex 2.36667 -3.15068 7.56
    endloop
  endfacet
  facet normal -0 0 1
    outer loop
      vertex -0.65 -2.2 7.56
      vertex 2.03333 -3.24 7.56
      vertex 0.65 -2.2 7.56
    endloop
  endfacet
  facet normal 0 0 1
    outer loop
      vertex 2.03333 -3.24 7.56
      vertex -0.65 -2.2 7.56
      vertex -2.03333 -3.24 7.56
    endloop
  endfacet
  facet normal -0.793367 0.608744 0
    outer loop
      vertex -2.61068 2.90667 2
      vertex -2.50474 3.04474 7.56
      vertex -2.50474 3.04474 2
    endloop
  endfacet
  facet normal -0.793367 0.608744 0
    outer loop
      vertex -2.50474 3.04474 7.56
      vertex -2.61068 2.90667 2
      vertex -2.61068 2.90667 7.56
    endloop
  endfacet
  facet normal -0.608744 0.793367 0
    outer loop
      vertex -2.36667 3.15068 2
      vertex -2.50474 3.04474 7.56
      vertex -2.36667 3.15068 7.56
    endloop
  endfacet
  facet normal -0.608744 0.793367 0
    outer loop
      vertex -2.50474 3.04474 7.56
      vertex -2.36667 3.15068 2
      vertex -2.50474 3.04474 2
    endloop
  endfacet
  facet normal -0.382677 0.923882 0
    outer loop
      vertex -2.20588 3.21728 2
      vertex -2.36667 3.15068 7.56
      vertex -2.20588 3.21728 7.56
    endloop
  endfacet
  facet normal -0.382677 0.923882 0
    outer loop
      vertex -2.36667 3.15068 7.56
      vertex -2.20588 3.21728 2
      vertex -2.36667 3.15068 2
    endloop
  endfacet
  facet normal -0.130545 0.991442 0
    outer loop
      vertex -2.03333 3.24 2
      vertex -2.20588 3.21728 7.56
      vertex -2.03333 3.24 7.56
    endloop
  endfacet
  facet normal -0.130545 0.991442 0
    outer loop
      vertex -2.20588 3.21728 7.56
      vertex -2.03333 3.24 2
      vertex -2.20588 3.21728 2
    endloop
  endfacet
  facet normal -0.991442 0.130545 0
    outer loop
      vertex -2.7 2.57333 2
      vertex -2.67728 2.74588 7.56
      vertex -2.67728 2.74588 2
    endloop
  endfacet
  facet normal -0.991442 0.130545 0
    outer loop
      vertex -2.67728 2.74588 7.56
      vertex -2.7 2.57333 2
      vertex -2.7 2.57333 7.56
    endloop
  endfacet
  facet normal -0.923882 0.382677 0
    outer loop
      vertex -2.67728 2.74588 2
      vertex -2.61068 2.90667 7.56
      vertex -2.61068 2.90667 2
    endloop
  endfacet
  facet normal -0.923882 0.382677 0
    outer loop
      vertex -2.61068 2.90667 7.56
      vertex -2.67728 2.74588 2
      vertex -2.67728 2.74588 7.56
    endloop
  endfacet
  facet normal 0.382677 -0.923882 0
    outer loop
      vertex 2.20588 -3.21728 2
      vertex 2.36667 -3.15068 7.56
      vertex 2.20588 -3.21728 7.56
    endloop
  endfacet
  facet normal 0.382677 -0.923882 0
    outer loop
      vertex 2.36667 -3.15068 7.56
      vertex 2.20588 -3.21728 2
      vertex 2.36667 -3.15068 2
    endloop
  endfacet
  facet normal 0.608744 -0.793367 0
    outer loop
      vertex 2.36667 -3.15068 2
      vertex 2.50474 -3.04474 7.56
      vertex 2.36667 -3.15068 7.56
    endloop
  endfacet
  facet normal 0.608744 -0.793367 0
    outer loop
      vertex 2.50474 -3.04474 7.56
      vertex 2.36667 -3.15068 2
      vertex 2.50474 -3.04474 2
    endloop
  endfacet
  facet normal 0.991442 -0.130545 0
    outer loop
      vertex 2.67728 -2.74588 7.56
      vertex 2.7 -2.57333 2
      vertex 2.7 -2.57333 7.56
    endloop
  endfacet
  facet normal 0.991442 -0.130545 0
    outer loop
      vertex 2.7 -2.57333 2
      vertex 2.67728 -2.74588 7.56
      vertex 2.67728 -2.74588 2
    endloop
  endfacet
  facet normal 0.793367 -0.608744 0
    outer loop
      vertex 2.50474 -3.04474 7.56
      vertex 2.61068 -2.90667 2
      vertex 2.61068 -2.90667 7.56
    endloop
  endfacet
  facet normal 0.793367 -0.608744 0
    outer loop
      vertex 2.61068 -2.90667 2
      vertex 2.50474 -3.04474 7.56
      vertex 2.50474 -3.04474 2
    endloop
  endfacet
  facet normal 0.130545 -0.991442 0
    outer loop
      vertex 2.03333 -3.24 2
      vertex 2.20588 -3.21728 7.56
      vertex 2.03333 -3.24 7.56
    endloop
  endfacet
  facet normal 0.130545 -0.991442 0
    outer loop
      vertex 2.20588 -3.21728 7.56
      vertex 2.03333 -3.24 2
      vertex 2.20588 -3.21728 2
    endloop
  endfacet
  facet normal 0.923882 -0.382677 0
    outer loop
      vertex 2.61068 -2.90667 7.56
      vertex 2.67728 -2.74588 2
      vertex 2.67728 -2.74588 7.56
    endloop
  endfacet
  facet normal 0.923882 -0.382677 0
    outer loop
      vertex 2.67728 -2.74588 2
      vertex 2.61068 -2.90667 7.56
      vertex 2.61068 -2.90667 2
    endloop
  endfacet
  facet normal -0.608744 -0.793367 0
    outer loop
      vertex -2.50474 -3.04474 2
      vertex -2.36667 -3.15068 7.56
      vertex -2.50474 -3.04474 7.56
    endloop
  endfacet
  facet normal -0.608744 -0.793367 -0
    outer loop
      vertex -2.36667 -3.15068 7.56
      vertex -2.50474 -3.04474 2
      vertex -2.36667 -3.15068 2
    endloop
  endfacet
  facet normal -0.793367 -0.608744 0
    outer loop
      vertex -2.50474 -3.04474 2
      vertex -2.61068 -2.90667 7.56
      vertex -2.61068 -2.90667 2
    endloop
  endfacet
  facet normal -0.793367 -0.608744 0
    outer loop
      vertex -2.61068 -2.90667 7.56
      vertex -2.50474 -3.04474 2
      vertex -2.50474 -3.04474 7.56
    endloop
  endfacet
  facet normal -0.382677 -0.923882 0
    outer loop
      vertex -2.36667 -3.15068 2
      vertex -2.20588 -3.21728 7.56
      vertex -2.36667 -3.15068 7.56
    endloop
  endfacet
  facet normal -0.382677 -0.923882 -0
    outer loop
      vertex -2.20588 -3.21728 7.56
      vertex -2.36667 -3.15068 2
      vertex -2.20588 -3.21728 2
    endloop
  endfacet
  facet normal -0.991442 -0.130545 0
    outer loop
      vertex -2.67728 -2.74588 2
      vertex -2.7 -2.57333 7.56
      vertex -2.7 -2.57333 2
    endloop
  endfacet
  facet normal -0.991442 -0.130545 0
    outer loop
      vertex -2.7 -2.57333 7.56
      vertex -2.67728 -2.74588 2
      vertex -2.67728 -2.74588 7.56
    endloop
  endfacet
  facet normal -0.130545 -0.991442 0
    outer loop
      vertex -2.20588 -3.21728 2
      vertex -2.03333 -3.24 7.56
      vertex -2.20588 -3.21728 7.56
    endloop
  endfacet
  facet normal -0.130545 -0.991442 -0
    outer loop
      vertex -2.03333 -3.24 7.56
      vertex -2.20588 -3.21728 2
      vertex -2.03333 -3.24 2
    endloop
  endfacet
  facet normal -0.923882 -0.382677 0
    outer loop
      vertex -2.61068 -2.90667 2
      vertex -2.67728 -2.74588 7.56
      vertex -2.67728 -2.74588 2
    endloop
  endfacet
  facet normal -0.923882 -0.382677 0
    outer loop
      vertex -2.67728 -2.74588 7.56
      vertex -2.61068 -2.90667 2
      vertex -2.61068 -2.90667 7.56
    endloop
  endfacet
  facet normal 0 1 -0
    outer loop
      vertex 2.03333 3.24 2
      vertex -2.03333 3.24 7.56
      vertex 2.03333 3.24 7.56
    endloop
  endfacet
  facet normal 0 1 0
    outer loop
      vertex -2.03333 3.24 7.56
      vertex 2.03333 3.24 2
      vertex -2.03333 3.24 2
    endloop
  endfacet
  facet normal 0 -1 0
    outer loop
      vertex -2.03333 -3.24 2
      vertex 2.03333 -3.24 7.56
      vertex -2.03333 -3.24 7.56
    endloop
  endfacet
  facet normal 0 -1 -0
    outer loop
      vertex 2.03333 -3.24 7.56
      vertex -2.03333 -3.24 2
      vertex 2.03333 -3.24 2
    endloop
  endfacet
  facet normal 1 -0 0
    outer loop
      vertex 2.7 -2.57333 7.56
      vertex 2.7 2.57333 2
      vertex 2.7 2.57333 7.56
    endloop
  endfacet
  facet normal 1 0 0
    outer loop
      vertex 2.7 2.57333 2
      vertex 2.7 -2.57333 7.56
      vertex 2.7 -2.57333 2
    endloop
  endfacet
  facet normal -1 0 0
    outer loop
      vertex -2.7 -2.57333 2
      vertex -2.7 2.57333 7.56
      vertex -2.7 2.57333 2
    endloop
  endfacet
  facet normal -1 -0 0
    outer loop
      vertex -2.7 2.57333 7.56
      vertex -2.7 -2.57333 2
      vertex -2.7 -2.57333 7.56
    endloop
  endfacet
  facet normal 0.92388 0.382683 0
    outer loop
      vertex 9.11185 7.69764 7.56
      vertex 8.91205 8.18 2.67029e-07
      vertex 8.91205 8.18 7.56
    endloop
  endfacet
  facet normal 0.92388 0.382683 0
    outer loop
      vertex 8.91205 8.18 2.67029e-07
      vertex 9.11185 7.69764 7.56
      vertex 9.11185 7.69764 2.67029e-07
    endloop
  endfacet
  facet normal 0.991445 0.130529 0
    outer loop
      vertex 9.18 7.18 7.56
      vertex 9.11185 7.69764 2.67029e-07
      vertex 9.11185 7.69764 7.56
    endloop
  endfacet
  facet normal 0.991445 0.130529 0
    outer loop
      vertex 9.11185 7.69764 2.67029e-07
      vertex 9.18 7.18 7.56
      vertex 9.18 7.18 2.67029e-07
    endloop
  endfacet
  facet normal 0.793348 0.608768 0
    outer loop
      vertex 8.91205 8.18 7.56
      vertex 8.59421 8.59421 2.67029e-07
      vertex 8.59421 8.59421 7.56
    endloop
  endfacet
  facet normal 0.793348 0.608768 0
    outer loop
      vertex 8.59421 8.59421 2.67029e-07
      vertex 8.91205 8.18 7.56
      vertex 8.91205 8.18 2.67029e-07
    endloop
  endfacet
  facet normal 0.608768 0.793348 -0
    outer loop
      vertex 8.59421 8.59421 2.67029e-07
      vertex 8.18 8.91205 7.56
      vertex 8.59421 8.59421 7.56
    endloop
  endfacet
  facet normal 0.608768 0.793348 0
    outer loop
      vertex 8.18 8.91205 7.56
      vertex 8.59421 8.59421 2.67029e-07
      vertex 8.18 8.91205 2.67029e-07
    endloop
  endfacet
  facet normal 0.130529 0.991445 -0
    outer loop
      vertex 7.69764 9.11185 2.67029e-07
      vertex 7.18 9.18 7.56
      vertex 7.69764 9.11185 7.56
    endloop
  endfacet
  facet normal 0.130529 0.991445 0
    outer loop
      vertex 7.18 9.18 7.56
      vertex 7.69764 9.11185 2.67029e-07
      vertex 7.18 9.18 2.67029e-07
    endloop
  endfacet
  facet normal 0 0 1
    outer loop
      vertex 9.18 7.18 7.56
      vertex 7.11185 5.69764 7.56
      vertex 7.18 5.18 7.56
    endloop
  endfacet
  facet normal 0 0 1
    outer loop
      vertex 7.69764 9.11185 7.56
      vertex 6.91205 6.18 7.56
      vertex 7.11185 5.69764 7.56
    endloop
  endfacet
  facet normal 0 0 1
    outer loop
      vertex 7.69764 9.11185 7.56
      vertex 6.59421 6.59421 7.56
      vertex 6.91205 6.18 7.56
    endloop
  endfacet
  facet normal 0 0 1
    outer loop
      vertex 7.18 9.18 7.56
      vertex 6.18 6.91205 7.56
      vertex 6.59421 6.59421 7.56
    endloop
  endfacet
  facet normal 0 0 1
    outer loop
      vertex 7.18 9.18 7.56
      vertex 5.69764 7.11185 7.56
      vertex 6.18 6.91205 7.56
    endloop
  endfacet
  facet normal 0 0 1
    outer loop
      vertex 7.18 9.18 7.56
      vertex 5.18 7.18 7.56
      vertex 5.69764 7.11185 7.56
    endloop
  endfacet
  facet normal 0 0 1
    outer loop
      vertex 7.18 9.18 7.56
      vertex -5.18 7.18 7.56
      vertex 5.18 7.18 7.56
    endloop
  endfacet
  facet normal -0 0 1
    outer loop
      vertex -7.18 9.18 7.56
      vertex -5.18 7.18 7.56
      vertex 7.18 9.18 7.56
    endloop
  endfacet
  facet normal 0 0 1
    outer loop
      vertex -5.18 7.18 7.56
      vertex -7.18 9.18 7.56
      vertex -5.69764 7.11185 7.56
    endloop
  endfacet
  facet normal 0 0 1
    outer loop
      vertex -7.18 9.18 7.56
      vertex -6.18 6.91205 7.56
      vertex -5.69764 7.11185 7.56
    endloop
  endfacet
  facet normal 0 0 1
    outer loop
      vertex -7.18 9.18 7.56
      vertex -6.59421 6.59421 7.56
      vertex -6.18 6.91205 7.56
    endloop
  endfacet
  facet normal -0 0 1
    outer loop
      vertex -7.69764 9.11185 7.56
      vertex -6.59421 6.59421 7.56
      vertex -7.18 9.18 7.56
    endloop
  endfacet
  facet normal -0 0 1
    outer loop
      vertex -8.18 8.91205 7.56
      vertex -6.59421 6.59421 7.56
      vertex -7.69764 9.11185 7.56
    endloop
  endfacet
  facet normal -0 0 1
    outer loop
      vertex -8.59421 8.59421 7.56
      vertex -6.59421 6.59421 7.56
      vertex -8.18 8.91205 7.56
    endloop
  endfacet
  facet normal 0 0 1
    outer loop
      vertex -7.11185 5.69764 7.56
      vertex -9.18 7.18 7.56
      vertex -7.18 5.18 7.56
    endloop
  endfacet
  facet normal 0 0 1
    outer loop
      vertex -7.18 5.18 7.56
      vertex -9.18 7.18 7.56
      vertex -7.18 -5.18 7.56
    endloop
  endfacet
  facet normal -0 0 1
    outer loop
      vertex -8.91205 8.18 7.56
      vertex -6.59421 6.59421 7.56
      vertex -8.59421 8.59421 7.56
    endloop
  endfacet
  facet normal 0 0 1
    outer loop
      vertex -9.18 -7.18 7.56
      vertex -7.18 -5.18 7.56
      vertex -9.18 7.18 7.56
    endloop
  endfacet
  facet normal -0 0 1
    outer loop
      vertex -9.11185 7.69764 7.56
      vertex -6.59421 6.59421 7.56
      vertex -8.91205 8.18 7.56
    endloop
  endfacet
  facet normal 0 0 1
    outer loop
      vertex -7.18 -5.18 7.56
      vertex -9.18 -7.18 7.56
      vertex -7.18 -9.18 7.56
    endloop
  endfacet
  facet normal -0 0 1
    outer loop
      vertex -9.18 7.18 7.56
      vertex -6.59421 6.59421 7.56
      vertex -9.11185 7.69764 7.56
    endloop
  endfacet
  facet normal 0 0 1
    outer loop
      vertex -7.18 -9.18 7.56
      vertex -9.18 -7.18 7.56
      vertex -7.69764 -9.11185 7.56
    endloop
  endfacet
  facet normal 0 0 1
    outer loop
      vertex -6.59421 6.59421 7.56
      vertex -9.18 7.18 7.56
      vertex -6.91205 6.18 7.56
    endloop
  endfacet
  facet normal 0 0 1
    outer loop
      vertex -7.69764 -9.11185 7.56
      vertex -9.18 -7.18 7.56
      vertex -8.18 -8.91205 7.56
    endloop
  endfacet
  facet normal 0 0 1
    outer loop
      vertex -6.91205 6.18 7.56
      vertex -9.18 7.18 7.56
      vertex -7.11185 5.69764 7.56
    endloop
  endfacet
  facet normal 0 0 1
    outer loop
      vertex -8.18 -8.91205 7.56
      vertex -9.18 -7.18 7.56
      vertex -8.59421 -8.59421 7.56
    endloop
  endfacet
  facet normal 0 0 1
    outer loop
      vertex -8.59421 -8.59421 7.56
      vertex -9.18 -7.18 7.56
      vertex -8.91205 -8.18 7.56
    endloop
  endfacet
  facet normal 0 0 1
    outer loop
      vertex -8.91205 -8.18 7.56
      vertex -9.18 -7.18 7.56
      vertex -9.11185 -7.69764 7.56
    endloop
  endfacet
  facet normal 0 0 1
    outer loop
      vertex 7.11185 5.69764 7.56
      vertex 9.18 7.18 7.56
      vertex 9.11185 7.69764 7.56
    endloop
  endfacet
  facet normal 0 0 1
    outer loop
      vertex 9.18 7.18 7.56
      vertex 7.18 5.18 7.56
      vertex 9.18 -7.18 7.56
    endloop
  endfacet
  facet normal 0 0 1
    outer loop
      vertex 7.11185 5.69764 7.56
      vertex 9.11185 7.69764 7.56
      vertex 8.91205 8.18 7.56
    endloop
  endfacet
  facet normal -0 0 1
    outer loop
      vertex 7.18 -5.18 7.56
      vertex 9.18 -7.18 7.56
      vertex 7.18 5.18 7.56
    endloop
  endfacet
  facet normal 0 0 1
    outer loop
      vertex 7.11185 5.69764 7.56
      vertex 8.91205 8.18 7.56
      vertex 8.59421 8.59421 7.56
    endloop
  endfacet
  facet normal -0 0 1
    outer loop
      vertex 7.11185 -5.69764 7.56
      vertex 9.18 -7.18 7.56
      vertex 7.18 -5.18 7.56
    endloop
  endfacet
  facet normal 0 0 1
    outer loop
      vertex 7.11185 5.69764 7.56
      vertex 8.59421 8.59421 7.56
      vertex 8.18 8.91205 7.56
    endloop
  endfacet
  facet normal -0 0 1
    outer loop
      vertex 6.91205 -6.18 7.56
      vertex 9.18 -7.18 7.56
      vertex 7.11185 -5.69764 7.56
    endloop
  endfacet
  facet normal 0 0 1
    outer loop
      vertex 7.11185 5.69764 7.56
      vertex 8.18 8.91205 7.56
      vertex 7.69764 9.11185 7.56
    endloop
  endfacet
  facet normal -0 0 1
    outer loop
      vertex 6.59421 -6.59421 7.56
      vertex 9.18 -7.18 7.56
      vertex 6.91205 -6.18 7.56
    endloop
  endfacet
  facet normal 0 0 1
    outer loop
      vertex 6.59421 6.59421 7.56
      vertex 7.69764 9.11185 7.56
      vertex 7.18 9.18 7.56
    endloop
  endfacet
  facet normal 0 0 1
    outer loop
      vertex 9.18 -7.18 7.56
      vertex 6.59421 -6.59421 7.56
      vertex 9.11185 -7.69764 7.56
    endloop
  endfacet
  facet normal 0 0 1
    outer loop
      vertex 9.11185 -7.69764 7.56
      vertex 6.59421 -6.59421 7.56
      vertex 8.91205 -8.18 7.56
    endloop
  endfacet
  facet normal 0 0 1
    outer loop
      vertex 8.91205 -8.18 7.56
      vertex 6.59421 -6.59421 7.56
      vertex 8.59421 -8.59421 7.56
    endloop
  endfacet
  facet normal 0 0 1
    outer loop
      vertex 8.59421 -8.59421 7.56
      vertex 6.59421 -6.59421 7.56
      vertex 8.18 -8.91205 7.56
    endloop
  endfacet
  facet normal 0 0 1
    outer loop
      vertex 8.18 -8.91205 7.56
      vertex 6.59421 -6.59421 7.56
      vertex 7.69764 -9.11185 7.56
    endloop
  endfacet
  facet normal 0 0 1
    outer loop
      vertex 7.69764 -9.11185 7.56
      vertex 6.59421 -6.59421 7.56
      vertex 7.18 -9.18 7.56
    endloop
  endfacet
  facet normal -0 0 1
    outer loop
      vertex 6.18 -6.91205 7.56
      vertex 7.18 -9.18 7.56
      vertex 6.59421 -6.59421 7.56
    endloop
  endfacet
  facet normal -0 0 1
    outer loop
      vertex 5.69764 -7.11185 7.56
      vertex 7.18 -9.18 7.56
      vertex 6.18 -6.91205 7.56
    endloop
  endfacet
  facet normal -0 0 1
    outer loop
      vertex 5.18 -7.18 7.56
      vertex 7.18 -9.18 7.56
      vertex 5.69764 -7.11185 7.56
    endloop
  endfacet
  facet normal -0 0 1
    outer loop
      vertex -5.18 -7.18 7.56
      vertex 7.18 -9.18 7.56
      vertex 5.18 -7.18 7.56
    endloop
  endfacet
  facet normal 0 0 1
    outer loop
      vertex -7.18 -9.18 7.56
      vertex -5.18 -7.18 7.56
      vertex -5.69764 -7.11185 7.56
    endloop
  endfacet
  facet normal 0 0 1
    outer loop
      vertex -5.18 -7.18 7.56
      vertex -7.18 -9.18 7.56
      vertex 7.18 -9.18 7.56
    endloop
  endfacet
  facet normal 0 0 1
    outer loop
      vertex -6.18 -6.91205 7.56
      vertex -7.18 -9.18 7.56
      vertex -5.69764 -7.11185 7.56
    endloop
  endfacet
  facet normal 0 0 1
    outer loop
      vertex -6.59421 -6.59421 7.56
      vertex -7.18 -9.18 7.56
      vertex -6.18 -6.91205 7.56
    endloop
  endfacet
  facet normal 0 0 1
    outer loop
      vertex -6.91205 -6.18 7.56
      vertex -7.18 -9.18 7.56
      vertex -6.59421 -6.59421 7.56
    endloop
  endfacet
  facet normal 0 0 1
    outer loop
      vertex -7.11185 -5.69764 7.56
      vertex -7.18 -9.18 7.56
      vertex -6.91205 -6.18 7.56
    endloop
  endfacet
  facet normal 0 0 1
    outer loop
      vertex -7.18 -9.18 7.56
      vertex -7.11185 -5.69764 7.56
      vertex -7.18 -5.18 7.56
    endloop
  endfacet
  facet normal 0.382683 0.92388 -0
    outer loop
      vertex 8.18 8.91205 2.67029e-07
      vertex 7.69764 9.11185 7.56
      vertex 8.18 8.91205 7.56
    endloop
  endfacet
  facet normal 0.382683 0.92388 0
    outer loop
      vertex 7.69764 9.11185 7.56
      vertex 8.18 8.91205 2.67029e-07
      vertex 7.69764 9.11185 2.67029e-07
    endloop
  endfacet
  facet normal 0 0 -1
    outer loop
      vertex -0.324997 -1.16081 2.67029e-07
      vertex -5.125 -1.16081 2.67029e-07
      vertex -0.324997 2.83417 2.67029e-07
    endloop
  endfacet
  facet normal 0 0 -1
    outer loop
      vertex 0.69899 2.83417 2.67029e-07
      vertex 4.34698 -1.16081 2.67029e-07
      vertex 0.69899 -1.16081 2.67029e-07
    endloop
  endfacet
  facet normal 0 0 -1
    outer loop
      vertex 7.18 -9.18 2.67029e-07
      vertex 9.18 -7.18 2.67029e-07
      vertex 9.11185 -7.69764 2.67029e-07
    endloop
  endfacet
  facet normal 0 0 -1
    outer loop
      vertex 9.18 -7.18 2.67029e-07
      vertex 5.37099 -2.53082 2.67029e-07
      vertex 9.18 7.18 2.67029e-07
    endloop
  endfacet
  facet normal 0 0 -1
    outer loop
      vertex 7.18 -9.18 2.67029e-07
      vertex 9.11185 -7.69764 2.67029e-07
      vertex 8.91205 -8.18 2.67029e-07
    endloop
  endfacet
  facet normal 0 0 -1
    outer loop
      vertex 5.37099 3.25417 2.67029e-07
      vertex 9.18 7.18 2.67029e-07
      vertex 5.37099 -2.53082 2.67029e-07
    endloop
  endfacet
  facet normal 0 0 -1
    outer loop
      vertex 7.18 -9.18 2.67029e-07
      vertex 8.91205 -8.18 2.67029e-07
      vertex 8.59421 -8.59421 2.67029e-07
    endloop
  endfacet
  facet normal 0 -0 -1
    outer loop
      vertex 7.18 9.18 2.67029e-07
      vertex 9.18 7.18 2.67029e-07
      vertex 5.37099 3.25417 2.67029e-07
    endloop
  endfacet
  facet normal 0 0 -1
    outer loop
      vertex 7.18 -9.18 2.67029e-07
      vertex 8.59421 -8.59421 2.67029e-07
      vertex 8.18 -8.91205 2.67029e-07
    endloop
  endfacet
  facet normal 0 0 -1
    outer loop
      vertex 9.18 7.18 2.67029e-07
      vertex 7.18 9.18 2.67029e-07
      vertex 9.11185 7.69764 2.67029e-07
    endloop
  endfacet
  facet normal 0 0 -1
    outer loop
      vertex 7.18 -9.18 2.67029e-07
      vertex 8.18 -8.91205 2.67029e-07
      vertex 7.69764 -9.11185 2.67029e-07
    endloop
  endfacet
  facet normal 0 0 -1
    outer loop
      vertex 9.11185 7.69764 2.67029e-07
      vertex 7.18 9.18 2.67029e-07
      vertex 8.91205 8.18 2.67029e-07
    endloop
  endfacet
  facet normal -0 0 -1
    outer loop
      vertex 9.18 -7.18 2.67029e-07
      vertex 7.18 -9.18 2.67029e-07
      vertex 5.37099 -2.53082 2.67029e-07
    endloop
  endfacet
  facet normal 0 0 -1
    outer loop
      vertex 8.91205 8.18 2.67029e-07
      vertex 7.18 9.18 2.67029e-07
      vertex 8.59421 8.59421 2.67029e-07
    endloop
  endfacet
  facet normal 0 0 -1
    outer loop
      vertex 8.59421 8.59421 2.67029e-07
      vertex 7.18 9.18 2.67029e-07
      vertex 8.18 8.91205 2.67029e-07
    endloop
  endfacet
  facet normal 0 0 -1
    outer loop
      vertex 7.18 -9.18 2.67029e-07
      vertex -5.125 -2.53082 2.67029e-07
      vertex 5.37099 -2.53082 2.67029e-07
    endloop
  endfacet
  facet normal 0 0 -1
    outer loop
      vertex -9.18 -7.18 2.67029e-07
      vertex -5.125 -2.53082 2.67029e-07
      vertex -7.18 -9.18 2.67029e-07
    endloop
  endfacet
  facet normal 0 0 -1
    outer loop
      vertex -7.18 -9.18 2.67029e-07
      vertex -5.125 -2.53082 2.67029e-07
      vertex 7.18 -9.18 2.67029e-07
    endloop
  endfacet
  facet normal 0 0 -1
    outer loop
      vertex 8.18 8.91205 2.67029e-07
      vertex 7.18 9.18 2.67029e-07
      vertex 7.69764 9.11185 2.67029e-07
    endloop
  endfacet
  facet normal 0 0 -1
    outer loop
      vertex 4.34698 3.25417 2.67029e-07
      vertex 7.18 9.18 2.67029e-07
      vertex 5.37099 3.25417 2.67029e-07
    endloop
  endfacet
  facet normal 0 0 -1
    outer loop
      vertex 4.34698 -1.16081 2.67029e-07
      vertex 0.69899 2.83417 2.67029e-07
      vertex 4.34698 3.25417 2.67029e-07
    endloop
  endfacet
  facet normal -0 0 -1
    outer loop
      vertex 4.34698 3.25417 2.67029e-07
      vertex 0.69899 2.83417 2.67029e-07
      vertex 7.18 9.18 2.67029e-07
    endloop
  endfacet
  facet normal 0 0 -1
    outer loop
      vertex -0.324997 2.83417 2.67029e-07
      vertex 7.18 9.18 2.67029e-07
      vertex 0.69899 2.83417 2.67029e-07
    endloop
  endfacet
  facet normal 0 0 -1
    outer loop
      vertex -9.18 7.18 2.67029e-07
      vertex -0.324997 2.83417 2.67029e-07
      vertex -5.125 -1.16081 2.67029e-07
    endloop
  endfacet
  facet normal 0 0 -1
    outer loop
      vertex -0.324997 2.83417 2.67029e-07
      vertex -7.18 9.18 2.67029e-07
      vertex 7.18 9.18 2.67029e-07
    endloop
  endfacet
  facet normal -0 0 -1
    outer loop
      vertex -5.125 -2.53082 2.67029e-07
      vertex -9.18 -7.18 2.67029e-07
      vertex -5.125 -1.16081 2.67029e-07
    endloop
  endfacet
  facet normal 0 0 -1
    outer loop
      vertex -9.18 -7.18 2.67029e-07
      vertex -7.18 -9.18 2.67029e-07
      vertex -7.69764 -9.11185 2.67029e-07
    endloop
  endfacet
  facet normal 0 0 -1
    outer loop
      vertex -9.18 7.18 2.67029e-07
      vertex -5.125 -1.16081 2.67029e-07
      vertex -9.18 -7.18 2.67029e-07
    endloop
  endfacet
  facet normal 0 0 -1
    outer loop
      vertex -9.18 -7.18 2.67029e-07
      vertex -7.69764 -9.11185 2.67029e-07
      vertex -8.18 -8.91205 2.67029e-07
    endloop
  endfacet
  facet normal 0 0 -1
    outer loop
      vertex -0.324997 2.83417 2.67029e-07
      vertex -9.18 7.18 2.67029e-07
      vertex -7.18 9.18 2.67029e-07
    endloop
  endfacet
  facet normal 0 0 -1
    outer loop
      vertex -9.18 -7.18 2.67029e-07
      vertex -8.18 -8.91205 2.67029e-07
      vertex -8.59421 -8.59421 2.67029e-07
    endloop
  endfacet
  facet normal 0 0 -1
    outer loop
      vertex -7.18 9.18 2.67029e-07
      vertex -9.18 7.18 2.67029e-07
      vertex -7.69764 9.11185 2.67029e-07
    endloop
  endfacet
  facet normal 0 0 -1
    outer loop
      vertex -9.18 -7.18 2.67029e-07
      vertex -8.59421 -8.59421 2.67029e-07
      vertex -8.91205 -8.18 2.67029e-07
    endloop
  endfacet
  facet normal 0 0 -1
    outer loop
      vertex -7.69764 9.11185 2.67029e-07
      vertex -9.18 7.18 2.67029e-07
      vertex -8.18 8.91205 2.67029e-07
    endloop
  endfacet
  facet normal 0 0 -1
    outer loop
      vertex -9.18 -7.18 2.67029e-07
      vertex -8.91205 -8.18 2.67029e-07
      vertex -9.11185 -7.69764 2.67029e-07
    endloop
  endfacet
  facet normal 0 0 -1
    outer loop
      vertex -8.18 8.91205 2.67029e-07
      vertex -9.18 7.18 2.67029e-07
      vertex -8.59421 8.59421 2.67029e-07
    endloop
  endfacet
  facet normal 0 0 -1
    outer loop
      vertex -8.59421 8.59421 2.67029e-07
      vertex -9.18 7.18 2.67029e-07
      vertex -8.91205 8.18 2.67029e-07
    endloop
  endfacet
  facet normal 0 0 -1
    outer loop
      vertex -8.91205 8.18 2.67029e-07
      vertex -9.18 7.18 2.67029e-07
      vertex -9.11185 7.69764 2.67029e-07
    endloop
  endfacet
  facet normal -0.608768 0.793348 0
    outer loop
      vertex -8.18 8.91205 2.67029e-07
      vertex -8.59421 8.59421 7.56
      vertex -8.18 8.91205 7.56
    endloop
  endfacet
  facet normal -0.608768 0.793348 0
    outer loop
      vertex -8.59421 8.59421 7.56
      vertex -8.18 8.91205 2.67029e-07
      vertex -8.59421 8.59421 2.67029e-07
    endloop
  endfacet
  facet normal -0.991445 0.130529 0
    outer loop
      vertex -9.18 7.18 2.67029e-07
      vertex -9.11185 7.69764 7.56
      vertex -9.11185 7.69764 2.67029e-07
    endloop
  endfacet
  facet normal -0.991445 0.130529 0
    outer loop
      vertex -9.11185 7.69764 7.56
      vertex -9.18 7.18 2.67029e-07
      vertex -9.18 7.18 7.56
    endloop
  endfacet
  facet normal -0.382683 0.92388 0
    outer loop
      vertex -7.69764 9.11185 2.67029e-07
      vertex -8.18 8.91205 7.56
      vertex -7.69764 9.11185 7.56
    endloop
  endfacet
  facet normal -0.382683 0.92388 0
    outer loop
      vertex -8.18 8.91205 7.56
      vertex -7.69764 9.11185 2.67029e-07
      vertex -8.18 8.91205 2.67029e-07
    endloop
  endfacet
  facet normal -0.92388 0.382683 0
    outer loop
      vertex -9.11185 7.69764 2.67029e-07
      vertex -8.91205 8.18 7.56
      vertex -8.91205 8.18 2.67029e-07
    endloop
  endfacet
  facet normal -0.92388 0.382683 0
    outer loop
      vertex -8.91205 8.18 7.56
      vertex -9.11185 7.69764 2.67029e-07
      vertex -9.11185 7.69764 7.56
    endloop
  endfacet
  facet normal -0.130529 0.991445 0
    outer loop
      vertex -7.18 9.18 2.67029e-07
      vertex -7.69764 9.11185 7.56
      vertex -7.18 9.18 7.56
    endloop
  endfacet
  facet normal -0.130529 0.991445 0
    outer loop
      vertex -7.69764 9.11185 7.56
      vertex -7.18 9.18 2.67029e-07
      vertex -7.69764 9.11185 2.67029e-07
    endloop
  endfacet
  facet normal -0.793348 0.608768 0
    outer loop
      vertex -8.91205 8.18 2.67029e-07
      vertex -8.59421 8.59421 7.56
      vertex -8.59421 8.59421 2.67029e-07
    endloop
  endfacet
  facet normal -0.793348 0.608768 0
    outer loop
      vertex -8.59421 8.59421 7.56
      vertex -8.91205 8.18 2.67029e-07
      vertex -8.91205 8.18 7.56
    endloop
  endfacet
  facet normal 0.382683 -0.92388 0
    outer loop
      vertex 7.69764 -9.11185 2.67029e-07
      vertex 8.18 -8.91205 7.56
      vertex 7.69764 -9.11185 7.56
    endloop
  endfacet
  facet normal 0.382683 -0.92388 0
    outer loop
      vertex 8.18 -8.91205 7.56
      vertex 7.69764 -9.11185 2.67029e-07
      vertex 8.18 -8.91205 2.67029e-07
    endloop
  endfacet
  facet normal 0.608768 -0.793348 0
    outer loop
      vertex 8.18 -8.91205 2.67029e-07
      vertex 8.59421 -8.59421 7.56
      vertex 8.18 -8.91205 7.56
    endloop
  endfacet
  facet normal 0.608768 -0.793348 0
    outer loop
      vertex 8.59421 -8.59421 7.56
      vertex 8.18 -8.91205 2.67029e-07
      vertex 8.59421 -8.59421 2.67029e-07
    endloop
  endfacet
  facet normal 0.991445 -0.130529 0
    outer loop
      vertex 9.11185 -7.69764 7.56
      vertex 9.18 -7.18 2.67029e-07
      vertex 9.18 -7.18 7.56
    endloop
  endfacet
  facet normal 0.991445 -0.130529 0
    outer loop
      vertex 9.18 -7.18 2.67029e-07
      vertex 9.11185 -7.69764 7.56
      vertex 9.11185 -7.69764 2.67029e-07
    endloop
  endfacet
  facet normal 0.793348 -0.608768 0
    outer loop
      vertex 8.59421 -8.59421 7.56
      vertex 8.91205 -8.18 2.67029e-07
      vertex 8.91205 -8.18 7.56
    endloop
  endfacet
  facet normal 0.793348 -0.608768 0
    outer loop
      vertex 8.91205 -8.18 2.67029e-07
      vertex 8.59421 -8.59421 7.56
      vertex 8.59421 -8.59421 2.67029e-07
    endloop
  endfacet
  facet normal 0.130529 -0.991445 0
    outer loop
      vertex 7.18 -9.18 2.67029e-07
      vertex 7.69764 -9.11185 7.56
      vertex 7.18 -9.18 7.56
    endloop
  endfacet
  facet normal 0.130529 -0.991445 0
    outer loop
      vertex 7.69764 -9.11185 7.56
      vertex 7.18 -9.18 2.67029e-07
      vertex 7.69764 -9.11185 2.67029e-07
    endloop
  endfacet
  facet normal 0.92388 -0.382683 0
    outer loop
      vertex 8.91205 -8.18 7.56
      vertex 9.11185 -7.69764 2.67029e-07
      vertex 9.11185 -7.69764 7.56
    endloop
  endfacet
  facet normal 0.92388 -0.382683 0
    outer loop
      vertex 9.11185 -7.69764 2.67029e-07
      vertex 8.91205 -8.18 7.56
      vertex 8.91205 -8.18 2.67029e-07
    endloop
  endfacet
  facet normal -0.130529 -0.991445 0
    outer loop
      vertex -7.69764 -9.11185 2.67029e-07
      vertex -7.18 -9.18 7.56
      vertex -7.69764 -9.11185 7.56
    endloop
  endfacet
  facet normal -0.130529 -0.991445 -0
    outer loop
      vertex -7.18 -9.18 7.56
      vertex -7.69764 -9.11185 2.67029e-07
      vertex -7.18 -9.18 2.67029e-07
    endloop
  endfacet
  facet normal -0.608768 -0.793348 0
    outer loop
      vertex -8.59421 -8.59421 2.67029e-07
      vertex -8.18 -8.91205 7.56
      vertex -8.59421 -8.59421 7.56
    endloop
  endfacet
  facet normal -0.608768 -0.793348 -0
    outer loop
      vertex -8.18 -8.91205 7.56
      vertex -8.59421 -8.59421 2.67029e-07
      vertex -8.18 -8.91205 2.67029e-07
    endloop
  endfacet
  facet normal -0.793348 -0.608768 0
    outer loop
      vertex -8.59421 -8.59421 2.67029e-07
      vertex -8.91205 -8.18 7.56
      vertex -8.91205 -8.18 2.67029e-07
    endloop
  endfacet
  facet normal -0.793348 -0.608768 0
    outer loop
      vertex -8.91205 -8.18 7.56
      vertex -8.59421 -8.59421 2.67029e-07
      vertex -8.59421 -8.59421 7.56
    endloop
  endfacet
  facet normal -0.92388 -0.382683 0
    outer loop
      vertex -8.91205 -8.18 2.67029e-07
      vertex -9.11185 -7.69764 7.56
      vertex -9.11185 -7.69764 2.67029e-07
    endloop
  endfacet
  facet normal -0.92388 -0.382683 0
    outer loop
      vertex -9.11185 -7.69764 7.56
      vertex -8.91205 -8.18 2.67029e-07
      vertex -8.91205 -8.18 7.56
    endloop
  endfacet
  facet normal -0.991445 -0.130529 0
    outer loop
      vertex -9.11185 -7.69764 2.67029e-07
      vertex -9.18 -7.18 7.56
      vertex -9.18 -7.18 2.67029e-07
    endloop
  endfacet
  facet normal -0.991445 -0.130529 0
    outer loop
      vertex -9.18 -7.18 7.56
      vertex -9.11185 -7.69764 2.67029e-07
      vertex -9.11185 -7.69764 7.56
    endloop
  endfacet
  facet normal -0.382683 -0.92388 0
    outer loop
      vertex -8.18 -8.91205 2.67029e-07
      vertex -7.69764 -9.11185 7.56
      vertex -8.18 -8.91205 7.56
    endloop
  endfacet
  facet normal -0.382683 -0.92388 -0
    outer loop
      vertex -7.69764 -9.11185 7.56
      vertex -8.18 -8.91205 2.67029e-07
      vertex -7.69764 -9.11185 2.67029e-07
    endloop
  endfacet
  facet normal 0 1 -0
    outer loop
      vertex 7.18 9.18 2.67029e-07
      vertex -7.18 9.18 7.56
      vertex 7.18 9.18 7.56
    endloop
  endfacet
  facet normal 0 1 0
    outer loop
      vertex -7.18 9.18 7.56
      vertex 7.18 9.18 2.67029e-07
      vertex -7.18 9.18 2.67029e-07
    endloop
  endfacet
  facet normal 0 -1 0
    outer loop
      vertex -7.18 -9.18 2.67029e-07
      vertex 7.18 -9.18 7.56
      vertex -7.18 -9.18 7.56
    endloop
  endfacet
  facet normal 0 -1 -0
    outer loop
      vertex 7.18 -9.18 7.56
      vertex -7.18 -9.18 2.67029e-07
      vertex 7.18 -9.18 2.67029e-07
    endloop
  endfacet
  facet normal 1 -0 0
    outer loop
      vertex 9.18 -7.18 7.56
      vertex 9.18 7.18 2.67029e-07
      vertex 9.18 7.18 7.56
    endloop
  endfacet
  facet normal 1 0 0
    outer loop
      vertex 9.18 7.18 2.67029e-07
      vertex 9.18 -7.18 7.56
      vertex 9.18 -7.18 2.67029e-07
    endloop
  endfacet
  facet normal -1 0 0
    outer loop
      vertex -9.18 -7.18 2.67029e-07
      vertex -9.18 7.18 7.56
      vertex -9.18 7.18 2.67029e-07
    endloop
  endfacet
  facet normal -1 -0 0
    outer loop
      vertex -9.18 7.18 7.56
      vertex -9.18 -7.18 2.67029e-07
      vertex -9.18 -7.18 7.56
    endloop
  endfacet
  facet normal -0.991445 -0.130529 0
    outer loop
      vertex 7.18 5.18 2
      vertex 7.11185 5.69764 7.56
      vertex 7.11185 5.69764 2
    endloop
  endfacet
  facet normal -0.991445 -0.130529 0
    outer loop
      vertex 7.11185 5.69764 7.56
      vertex 7.18 5.18 2
      vertex 7.18 5.18 7.56
    endloop
  endfacet
  facet normal -0.92388 -0.382683 0
    outer loop
      vertex 7.11185 5.69764 2
      vertex 6.91205 6.18 7.56
      vertex 6.91205 6.18 2
    endloop
  endfacet
  facet normal -0.92388 -0.382683 0
    outer loop
      vertex 6.91205 6.18 7.56
      vertex 7.11185 5.69764 2
      vertex 7.11185 5.69764 7.56
    endloop
  endfacet
  facet normal -0.793348 -0.608768 0
    outer loop
      vertex 6.91205 6.18 2
      vertex 6.59421 6.59421 7.56
      vertex 6.59421 6.59421 2
    endloop
  endfacet
  facet normal -0.793348 -0.608768 0
    outer loop
      vertex 6.59421 6.59421 7.56
      vertex 6.91205 6.18 2
      vertex 6.91205 6.18 7.56
    endloop
  endfacet
  facet normal 0 0 1
    outer loop
      vertex 5.18 7.18 2
      vertex 7.18 5.18 2
      vertex 7.11185 5.69764 2
    endloop
  endfacet
  facet normal 0 0 1
    outer loop
      vertex 7.18 5.18 2
      vertex 2.7 2.57333 2
      vertex 7.18 -5.18 2
    endloop
  endfacet
  facet normal 0 0 1
    outer loop
      vertex 5.18 7.18 2
      vertex 7.11185 5.69764 2
      vertex 6.91205 6.18 2
    endloop
  endfacet
  facet normal -0 0 1
    outer loop
      vertex 2.7 -2.57333 2
      vertex 7.18 -5.18 2
      vertex 2.7 2.57333 2
    endloop
  endfacet
  facet normal 0 0 1
    outer loop
      vertex 5.18 7.18 2
      vertex 6.91205 6.18 2
      vertex 6.59421 6.59421 2
    endloop
  endfacet
  facet normal -0 0 1
    outer loop
      vertex 2.67728 -2.74588 2
      vertex 7.18 -5.18 2
      vertex 2.7 -2.57333 2
    endloop
  endfacet
  facet normal 0 0 1
    outer loop
      vertex 5.18 7.18 2
      vertex 6.59421 6.59421 2
      vertex 6.18 6.91205 2
    endloop
  endfacet
  facet normal -0 0 1
    outer loop
      vertex 2.61068 -2.90667 2
      vertex 7.18 -5.18 2
      vertex 2.67728 -2.74588 2
    endloop
  endfacet
  facet normal 0 0 1
    outer loop
      vertex 5.18 7.18 2
      vertex 6.18 6.91205 2
      vertex 5.69764 7.11185 2
    endloop
  endfacet
  facet normal -0 0 1
    outer loop
      vertex 2.50474 -3.04474 2
      vertex 7.18 -5.18 2
      vertex 2.61068 -2.90667 2
    endloop
  endfacet
  facet normal 0 0 1
    outer loop
      vertex 2.50474 3.04474 2
      vertex 7.18 5.18 2
      vertex 5.18 7.18 2
    endloop
  endfacet
  facet normal 0 0 1
    outer loop
      vertex 7.18 -5.18 2
      vertex 5.18 -7.18 2
      vertex 7.11185 -5.69764 2
    endloop
  endfacet
  facet normal 0 0 1
    outer loop
      vertex 7.11185 -5.69764 2
      vertex 5.18 -7.18 2
      vertex 6.91205 -6.18 2
    endloop
  endfacet
  facet normal 0 0 1
    outer loop
      vertex 7.18 5.18 2
      vertex 2.67728 2.74588 2
      vertex 2.7 2.57333 2
    endloop
  endfacet
  facet normal 0 0 1
    outer loop
      vertex 7.18 5.18 2
      vertex 2.61068 2.90667 2
      vertex 2.67728 2.74588 2
    endloop
  endfacet
  facet normal 0 0 1
    outer loop
      vertex 7.18 5.18 2
      vertex 2.50474 3.04474 2
      vertex 2.61068 2.90667 2
    endloop
  endfacet
  facet normal 0 0 1
    outer loop
      vertex 5.18 7.18 2
      vertex 2.36667 3.15068 2
      vertex 2.50474 3.04474 2
    endloop
  endfacet
  facet normal 0 0 1
    outer loop
      vertex 5.18 7.18 2
      vertex 2.20588 3.21728 2
      vertex 2.36667 3.15068 2
    endloop
  endfacet
  facet normal 0 0 1
    outer loop
      vertex 5.18 7.18 2
      vertex 2.03333 3.24 2
      vertex 2.20588 3.21728 2
    endloop
  endfacet
  facet normal 0 0 1
    outer loop
      vertex 5.18 7.18 2
      vertex -2.03333 3.24 2
      vertex 2.03333 3.24 2
    endloop
  endfacet
  facet normal -0 0 1
    outer loop
      vertex -5.18 7.18 2
      vertex -2.03333 3.24 2
      vertex 5.18 7.18 2
    endloop
  endfacet
  facet normal 0 0 1
    outer loop
      vertex -2.03333 3.24 2
      vertex -5.18 7.18 2
      vertex -2.20588 3.21728 2
    endloop
  endfacet
  facet normal 0 0 1
    outer loop
      vertex -2.67728 2.74588 2
      vertex -7.18 5.18 2
      vertex -2.7 2.57333 2
    endloop
  endfacet
  facet normal 0 0 1
    outer loop
      vertex -2.61068 2.90667 2
      vertex -7.18 5.18 2
      vertex -2.67728 2.74588 2
    endloop
  endfacet
  facet normal 0 0 1
    outer loop
      vertex -2.50474 3.04474 2
      vertex -7.18 5.18 2
      vertex -2.61068 2.90667 2
    endloop
  endfacet
  facet normal -0 0 1
    outer loop
      vertex -7.18 5.18 2
      vertex -2.50474 3.04474 2
      vertex -5.18 7.18 2
    endloop
  endfacet
  facet normal 0 0 1
    outer loop
      vertex -2.36667 3.15068 2
      vertex -5.18 7.18 2
      vertex -2.50474 3.04474 2
    endloop
  endfacet
  facet normal 0 0 1
    outer loop
      vertex -2.20588 3.21728 2
      vertex -5.18 7.18 2
      vertex -2.36667 3.15068 2
    endloop
  endfacet
  facet normal 0 0 1
    outer loop
      vertex 6.91205 -6.18 2
      vertex 5.18 -7.18 2
      vertex 6.59421 -6.59421 2
    endloop
  endfacet
  facet normal 0 0 1
    outer loop
      vertex 6.59421 -6.59421 2
      vertex 5.18 -7.18 2
      vertex 6.18 -6.91205 2
    endloop
  endfacet
  facet normal 0 0 1
    outer loop
      vertex 6.18 -6.91205 2
      vertex 5.18 -7.18 2
      vertex 5.69764 -7.11185 2
    endloop
  endfacet
  facet normal 0 0 1
    outer loop
      vertex 7.18 -5.18 2
      vertex 2.50474 -3.04474 2
      vertex 5.18 -7.18 2
    endloop
  endfacet
  facet normal -0 0 1
    outer loop
      vertex 2.36667 -3.15068 2
      vertex 5.18 -7.18 2
      vertex 2.50474 -3.04474 2
    endloop
  endfacet
  facet normal -0 0 1
    outer loop
      vertex 2.20588 -3.21728 2
      vertex 5.18 -7.18 2
      vertex 2.36667 -3.15068 2
    endloop
  endfacet
  facet normal -0 0 1
    outer loop
      vertex 2.03333 -3.24 2
      vertex 5.18 -7.18 2
      vertex 2.20588 -3.21728 2
    endloop
  endfacet
  facet normal -0 0 1
    outer loop
      vertex -2.03333 -3.24 2
      vertex 5.18 -7.18 2
      vertex 2.03333 -3.24 2
    endloop
  endfacet
  facet normal 0 0 1
    outer loop
      vertex -5.18 -7.18 2
      vertex -2.03333 -3.24 2
      vertex -2.20588 -3.21728 2
    endloop
  endfacet
  facet normal 0 0 1
    outer loop
      vertex -5.18 -7.18 2
      vertex -2.20588 -3.21728 2
      vertex -2.36667 -3.15068 2
    endloop
  endfacet
  facet normal 0 0 1
    outer loop
      vertex -2.7 2.57333 2
      vertex -7.18 5.18 2
      vertex -2.7 -2.57333 2
    endloop
  endfacet
  facet normal 0 0 1
    outer loop
      vertex -2.03333 -3.24 2
      vertex -5.18 -7.18 2
      vertex 5.18 -7.18 2
    endloop
  endfacet
  facet normal 0 0 1
    outer loop
      vertex -2.50474 -3.04474 2
      vertex -5.18 -7.18 2
      vertex -2.36667 -3.15068 2
    endloop
  endfacet
  facet normal 0 0 1
    outer loop
      vertex -7.18 -5.18 2
      vertex -2.50474 -3.04474 2
      vertex -2.61068 -2.90667 2
    endloop
  endfacet
  facet normal 0 0 1
    outer loop
      vertex -7.18 -5.18 2
      vertex -2.61068 -2.90667 2
      vertex -2.67728 -2.74588 2
    endloop
  endfacet
  facet normal 0 0 1
    outer loop
      vertex -7.18 -5.18 2
      vertex -2.7 -2.57333 2
      vertex -7.18 5.18 2
    endloop
  endfacet
  facet normal 0 0 1
    outer loop
      vertex -7.18 5.18 2
      vertex -5.18 7.18 2
      vertex -5.69764 7.11185 2
    endloop
  endfacet
  facet normal 0 0 1
    outer loop
      vertex -2.7 -2.57333 2
      vertex -7.18 -5.18 2
      vertex -2.67728 -2.74588 2
    endloop
  endfacet
  facet normal 0 0 1
    outer loop
      vertex -7.18 5.18 2
      vertex -5.69764 7.11185 2
      vertex -6.18 6.91205 2
    endloop
  endfacet
  facet normal 0 0 1
    outer loop
      vertex -2.50474 -3.04474 2
      vertex -7.18 -5.18 2
      vertex -5.18 -7.18 2
    endloop
  endfacet
  facet normal 0 0 1
    outer loop
      vertex -7.18 5.18 2
      vertex -6.18 6.91205 2
      vertex -6.59421 6.59421 2
    endloop
  endfacet
  facet normal 0 0 1
    outer loop
      vertex -5.18 -7.18 2
      vertex -7.18 -5.18 2
      vertex -5.69764 -7.11185 2
    endloop
  endfacet
  facet normal 0 0 1
    outer loop
      vertex -7.18 5.18 2
      vertex -6.59421 6.59421 2
      vertex -6.91205 6.18 2
    endloop
  endfacet
  facet normal 0 0 1
    outer loop
      vertex -5.69764 -7.11185 2
      vertex -7.18 -5.18 2
      vertex -6.18 -6.91205 2
    endloop
  endfacet
  facet normal 0 0 1
    outer loop
      vertex -7.18 5.18 2
      vertex -6.91205 6.18 2
      vertex -7.11185 5.69764 2
    endloop
  endfacet
  facet normal 0 0 1
    outer loop
      vertex -6.18 -6.91205 2
      vertex -7.18 -5.18 2
      vertex -6.59421 -6.59421 2
    endloop
  endfacet
  facet normal 0 0 1
    outer loop
      vertex -6.59421 -6.59421 2
      vertex -7.18 -5.18 2
      vertex -6.91205 -6.18 2
    endloop
  endfacet
  facet normal 0 0 1
    outer loop
      vertex -6.91205 -6.18 2
      vertex -7.18 -5.18 2
      vertex -7.11185 -5.69764 2
    endloop
  endfacet
  facet normal -0 0 1
    outer loop
      vertex -2.2 0.65 2
      vertex -0.65 -0.65 2
      vertex -0.65 0.65 2
    endloop
  endfacet
  facet normal 0 0 1
    outer loop
      vertex -0.65 -0.65 2
      vertex -2.2 0.65 2
      vertex -2.2 -0.65 2
    endloop
  endfacet
  facet normal 0 0 1
    outer loop
      vertex -0.65 0.65 2
      vertex 0.65 0.65 2
      vertex 0.65 2.2 2
    endloop
  endfacet
  facet normal 0 0 1
    outer loop
      vertex 0.65 0.65 2
      vertex -0.65 0.65 2
      vertex 0.65 -0.65 2
    endloop
  endfacet
  facet normal 0 0 1
    outer loop
      vertex -0.65 0.65 2
      vertex 0.65 2.2 2
      vertex -0.65 2.2 2
    endloop
  endfacet
  facet normal 0 0 1
    outer loop
      vertex -0.65 -0.65 2
      vertex 0.65 -0.65 2
      vertex -0.65 0.65 2
    endloop
  endfacet
  facet normal 0 0 1
    outer loop
      vertex 0.65 -0.65 2
      vertex -0.65 -0.65 2
      vertex 0.65 -2.2 2
    endloop
  endfacet
  facet normal 0 0 1
    outer loop
      vertex 0.65 -2.2 2
      vertex -0.65 -0.65 2
      vertex -0.65 -2.2 2
    endloop
  endfacet
  facet normal -0 0 1
    outer loop
      vertex 0.65 0.65 2
      vertex 2.2 -0.65 2
      vertex 2.2 0.65 2
    endloop
  endfacet
  facet normal 0 0 1
    outer loop
      vertex 2.2 -0.65 2
      vertex 0.65 0.65 2
      vertex 0.65 -0.65 2
    endloop
  endfacet
  facet normal -0.130529 -0.991445 0
    outer loop
      vertex 5.18 7.18 2
      vertex 5.69764 7.11185 7.56
      vertex 5.18 7.18 7.56
    endloop
  endfacet
  facet normal -0.130529 -0.991445 -0
    outer loop
      vertex 5.69764 7.11185 7.56
      vertex 5.18 7.18 2
      vertex 5.69764 7.11185 2
    endloop
  endfacet
  facet normal -0.608768 -0.793348 0
    outer loop
      vertex 6.18 6.91205 2
      vertex 6.59421 6.59421 7.56
      vertex 6.18 6.91205 7.56
    endloop
  endfacet
  facet normal -0.608768 -0.793348 -0
    outer loop
      vertex 6.59421 6.59421 7.56
      vertex 6.18 6.91205 2
      vertex 6.59421 6.59421 2
    endloop
  endfacet
  facet normal -0.382683 -0.92388 0
    outer loop
      vertex 5.69764 7.11185 2
      vertex 6.18 6.91205 7.56
      vertex 5.69764 7.11185 7.56
    endloop
  endfacet
  facet normal -0.382683 -0.92388 -0
    outer loop
      vertex 6.18 6.91205 7.56
      vertex 5.69764 7.11185 2
      vertex 6.18 6.91205 2
    endloop
  endfacet
  facet normal 0.608768 -0.793348 0
    outer loop
      vertex -6.59421 6.59421 2
      vertex -6.18 6.91205 7.56
      vertex -6.59421 6.59421 7.56
    endloop
  endfacet
  facet normal 0.608768 -0.793348 0
    outer loop
      vertex -6.18 6.91205 7.56
      vertex -6.59421 6.59421 2
      vertex -6.18 6.91205 2
    endloop
  endfacet
  facet normal 0.382683 -0.92388 0
    outer loop
      vertex -6.18 6.91205 2
      vertex -5.69764 7.11185 7.56
      vertex -6.18 6.91205 7.56
    endloop
  endfacet
  facet normal 0.382683 -0.92388 0
    outer loop
      vertex -5.69764 7.11185 7.56
      vertex -6.18 6.91205 2
      vertex -5.69764 7.11185 2
    endloop
  endfacet
  facet normal 0.92388 -0.382683 0
    outer loop
      vertex -7.11185 5.69764 7.56
      vertex -6.91205 6.18 2
      vertex -6.91205 6.18 7.56
    endloop
  endfacet
  facet normal 0.92388 -0.382683 0
    outer loop
      vertex -6.91205 6.18 2
      vertex -7.11185 5.69764 7.56
      vertex -7.11185 5.69764 2
    endloop
  endfacet
  facet normal 0.130529 -0.991445 0
    outer loop
      vertex -5.69764 7.11185 2
      vertex -5.18 7.18 7.56
      vertex -5.69764 7.11185 7.56
    endloop
  endfacet
  facet normal 0.130529 -0.991445 0
    outer loop
      vertex -5.18 7.18 7.56
      vertex -5.69764 7.11185 2
      vertex -5.18 7.18 2
    endloop
  endfacet
  facet normal 0.793348 -0.608768 0
    outer loop
      vertex -6.91205 6.18 7.56
      vertex -6.59421 6.59421 2
      vertex -6.59421 6.59421 7.56
    endloop
  endfacet
  facet normal 0.793348 -0.608768 0
    outer loop
      vertex -6.59421 6.59421 2
      vertex -6.91205 6.18 7.56
      vertex -6.91205 6.18 2
    endloop
  endfacet
  facet normal 0.991445 -0.130529 0
    outer loop
      vertex -7.18 5.18 7.56
      vertex -7.11185 5.69764 2
      vertex -7.11185 5.69764 7.56
    endloop
  endfacet
  facet normal 0.991445 -0.130529 0
    outer loop
      vertex -7.11185 5.69764 2
      vertex -7.18 5.18 7.56
      vertex -7.18 5.18 2
    endloop
  endfacet
  facet normal -0.92388 0.382683 0
    outer loop
      vertex 6.91205 -6.18 2
      vertex 7.11185 -5.69764 7.56
      vertex 7.11185 -5.69764 2
    endloop
  endfacet
  facet normal -0.92388 0.382683 0
    outer loop
      vertex 7.11185 -5.69764 7.56
      vertex 6.91205 -6.18 2
      vertex 6.91205 -6.18 7.56
    endloop
  endfacet
  facet normal -0.130529 0.991445 0
    outer loop
      vertex 5.69764 -7.11185 2
      vertex 5.18 -7.18 7.56
      vertex 5.69764 -7.11185 7.56
    endloop
  endfacet
  facet normal -0.130529 0.991445 0
    outer loop
      vertex 5.18 -7.18 7.56
      vertex 5.69764 -7.11185 2
      vertex 5.18 -7.18 2
    endloop
  endfacet
  facet normal -0.793348 0.608768 0
    outer loop
      vertex 6.59421 -6.59421 2
      vertex 6.91205 -6.18 7.56
      vertex 6.91205 -6.18 2
    endloop
  endfacet
  facet normal -0.793348 0.608768 0
    outer loop
      vertex 6.91205 -6.18 7.56
      vertex 6.59421 -6.59421 2
      vertex 6.59421 -6.59421 7.56
    endloop
  endfacet
  facet normal -0.382683 0.92388 0
    outer loop
      vertex 6.18 -6.91205 2
      vertex 5.69764 -7.11185 7.56
      vertex 6.18 -6.91205 7.56
    endloop
  endfacet
  facet normal -0.382683 0.92388 0
    outer loop
      vertex 5.69764 -7.11185 7.56
      vertex 6.18 -6.91205 2
      vertex 5.69764 -7.11185 2
    endloop
  endfacet
  facet normal -0.608768 0.793348 0
    outer loop
      vertex 6.59421 -6.59421 2
      vertex 6.18 -6.91205 7.56
      vertex 6.59421 -6.59421 7.56
    endloop
  endfacet
  facet normal -0.608768 0.793348 0
    outer loop
      vertex 6.18 -6.91205 7.56
      vertex 6.59421 -6.59421 2
      vertex 6.18 -6.91205 2
    endloop
  endfacet
  facet normal -0.991445 0.130529 0
    outer loop
      vertex 7.11185 -5.69764 2
      vertex 7.18 -5.18 7.56
      vertex 7.18 -5.18 2
    endloop
  endfacet
  facet normal -0.991445 0.130529 0
    outer loop
      vertex 7.18 -5.18 7.56
      vertex 7.11185 -5.69764 2
      vertex 7.11185 -5.69764 7.56
    endloop
  endfacet
  facet normal 0.608768 0.793348 -0
    outer loop
      vertex -6.18 -6.91205 2
      vertex -6.59421 -6.59421 7.56
      vertex -6.18 -6.91205 7.56
    endloop
  endfacet
  facet normal 0.608768 0.793348 0
    outer loop
      vertex -6.59421 -6.59421 7.56
      vertex -6.18 -6.91205 2
      vertex -6.59421 -6.59421 2
    endloop
  endfacet
  facet normal 0.793348 0.608768 0
    outer loop
      vertex -6.59421 -6.59421 7.56
      vertex -6.91205 -6.18 2
      vertex -6.91205 -6.18 7.56
    endloop
  endfacet
  facet normal 0.793348 0.608768 0
    outer loop
      vertex -6.91205 -6.18 2
      vertex -6.59421 -6.59421 7.56
      vertex -6.59421 -6.59421 2
    endloop
  endfacet
  facet normal 0.92388 0.382683 0
    outer loop
      vertex -6.91205 -6.18 7.56
      vertex -7.11185 -5.69764 2
      vertex -7.11185 -5.69764 7.56
    endloop
  endfacet
  facet normal 0.92388 0.382683 0
    outer loop
      vertex -7.11185 -5.69764 2
      vertex -6.91205 -6.18 7.56
      vertex -6.91205 -6.18 2
    endloop
  endfacet
  facet normal 0.991445 0.130529 0
    outer loop
      vertex -7.11185 -5.69764 7.56
      vertex -7.18 -5.18 2
      vertex -7.18 -5.18 7.56
    endloop
  endfacet
  facet normal 0.991445 0.130529 0
    outer loop
      vertex -7.18 -5.18 2
      vertex -7.11185 -5.69764 7.56
      vertex -7.11185 -5.69764 2
    endloop
  endfacet
  facet normal 0.382683 0.92388 -0
    outer loop
      vertex -5.69764 -7.11185 2
      vertex -6.18 -6.91205 7.56
      vertex -5.69764 -7.11185 7.56
    endloop
  endfacet
  facet normal 0.382683 0.92388 0
    outer loop
      vertex -6.18 -6.91205 7.56
      vertex -5.69764 -7.11185 2
      vertex -6.18 -6.91205 2
    endloop
  endfacet
  facet normal 0.130529 0.991445 -0
    outer loop
      vertex -5.18 -7.18 2
      vertex -5.69764 -7.11185 7.56
      vertex -5.18 -7.18 7.56
    endloop
  endfacet
  facet normal 0.130529 0.991445 0
    outer loop
      vertex -5.69764 -7.11185 7.56
      vertex -5.18 -7.18 2
      vertex -5.69764 -7.11185 2
    endloop
  endfacet
  facet normal 0 -1 0
    outer loop
      vertex -5.18 7.18 2
      vertex 5.18 7.18 7.56
      vertex -5.18 7.18 7.56
    endloop
  endfacet
  facet normal 0 -1 -0
    outer loop
      vertex 5.18 7.18 7.56
      vertex -5.18 7.18 2
      vertex 5.18 7.18 2
    endloop
  endfacet
  facet normal 0 1 -0
    outer loop
      vertex 5.18 -7.18 2
      vertex -5.18 -7.18 7.56
      vertex 5.18 -7.18 7.56
    endloop
  endfacet
  facet normal 0 1 0
    outer loop
      vertex -5.18 -7.18 7.56
      vertex 5.18 -7.18 2
      vertex -5.18 -7.18 2
    endloop
  endfacet
  facet normal -1 0 0
    outer loop
      vertex 7.18 -5.18 2
      vertex 7.18 5.18 7.56
      vertex 7.18 5.18 2
    endloop
  endfacet
  facet normal -1 -0 0
    outer loop
      vertex 7.18 5.18 7.56
      vertex 7.18 -5.18 2
      vertex 7.18 -5.18 7.56
    endloop
  endfacet
  facet normal 1 -0 0
    outer loop
      vertex -7.18 -5.18 7.56
      vertex -7.18 5.18 2
      vertex -7.18 5.18 7.56
    endloop
  endfacet
  facet normal 1 0 0
    outer loop
      vertex -7.18 5.18 2
      vertex -7.18 -5.18 7.56
      vertex -7.18 -5.18 2
    endloop
  endfacet
  facet normal 0 0 -1
    outer loop
      vertex 5.37099 -2.53082 0.398999
      vertex 4.34698 -1.16081 0.398999
      vertex 5.37099 3.25417 0.398999
    endloop
  endfacet
  facet normal 0 0 -1
    outer loop
      vertex 5.37099 -2.53082 0.398999
      vertex 0.69899 -1.16081 0.398999
      vertex 4.34698 -1.16081 0.398999
    endloop
  endfacet
  facet normal 0 0 -1
    outer loop
      vertex 0.69899 -1.16081 0.398999
      vertex -0.324997 -1.16081 0.398999
      vertex 0.69899 2.83417 0.398999
    endloop
  endfacet
  facet normal 0 0 -1
    outer loop
      vertex 5.37099 -2.53082 0.398999
      vertex -0.324997 -1.16081 0.398999
      vertex 0.69899 -1.16081 0.398999
    endloop
  endfacet
  facet normal 0 0 -1
    outer loop
      vertex -5.125 -2.53082 0.398999
      vertex -0.324997 -1.16081 0.398999
      vertex 5.37099 -2.53082 0.398999
    endloop
  endfacet
  facet normal -0 0 -1
    outer loop
      vertex -0.324997 -1.16081 0.398999
      vertex -5.125 -2.53082 0.398999
      vertex -5.125 -1.16081 0.398999
    endloop
  endfacet
  facet normal -0 0 -1
    outer loop
      vertex 5.37099 3.25417 0.398999
      vertex 4.34698 -1.16081 0.398999
      vertex 4.34698 3.25417 0.398999
    endloop
  endfacet
  facet normal -0 0 -1
    outer loop
      vertex 0.69899 2.83417 0.398999
      vertex -0.324997 -1.16081 0.398999
      vertex -0.324997 2.83417 0.398999
    endloop
  endfacet
  facet normal 1 -0 0
    outer loop
      vertex -0.324997 -1.16081 0.398999
      vertex -0.324997 2.83417 2.67029e-07
      vertex -0.324997 2.83417 0.398999
    endloop
  endfacet
  facet normal 1 0 0
    outer loop
      vertex -0.324997 2.83417 2.67029e-07
      vertex -0.324997 -1.16081 0.398999
      vertex -0.324997 -1.16081 2.67029e-07
    endloop
  endfacet
  facet normal 0 -1 0
    outer loop
      vertex -0.324997 2.83417 2.67029e-07
      vertex 0.69899 2.83417 0.398999
      vertex -0.324997 2.83417 0.398999
    endloop
  endfacet
  facet normal 0 -1 -0
    outer loop
      vertex 0.69899 2.83417 0.398999
      vertex -0.324997 2.83417 2.67029e-07
      vertex 0.69899 2.83417 2.67029e-07
    endloop
  endfacet
  facet normal -1 0 0
    outer loop
      vertex 0.69899 -1.16081 2.67029e-07
      vertex 0.69899 2.83417 0.398999
      vertex 0.69899 2.83417 2.67029e-07
    endloop
  endfacet
  facet normal -1 -0 0
    outer loop
      vertex 0.69899 2.83417 0.398999
      vertex 0.69899 -1.16081 2.67029e-07
      vertex 0.69899 -1.16081 0.398999
    endloop
  endfacet
  facet normal 0 -1 0
    outer loop
      vertex 0.69899 -1.16081 2.67029e-07
      vertex 4.34698 -1.16081 0.398999
      vertex 0.69899 -1.16081 0.398999
    endloop
  endfacet
  facet normal 0 -1 -0
    outer loop
      vertex 4.34698 -1.16081 0.398999
      vertex 0.69899 -1.16081 2.67029e-07
      vertex 4.34698 -1.16081 2.67029e-07
    endloop
  endfacet
  facet normal 1 -0 0
    outer loop
      vertex 4.34698 -1.16081 0.398999
      vertex 4.34698 3.25417 2.67029e-07
      vertex 4.34698 3.25417 0.398999
    endloop
  endfacet
  facet normal 1 0 0
    outer loop
      vertex 4.34698 3.25417 2.67029e-07
      vertex 4.34698 -1.16081 0.398999
      vertex 4.34698 -1.16081 2.67029e-07
    endloop
  endfacet
  facet normal 0 -1 0
    outer loop
      vertex 4.34698 3.25417 2.67029e-07
      vertex 5.37099 3.25417 0.398999
      vertex 4.34698 3.25417 0.398999
    endloop
  endfacet
  facet normal 0 -1 -0
    outer loop
      vertex 5.37099 3.25417 0.398999
      vertex 4.34698 3.25417 2.67029e-07
      vertex 5.37099 3.25417 2.67029e-07
    endloop
  endfacet
  facet normal -1 0 0
    outer loop
      vertex 5.37099 -2.53082 2.67029e-07
      vertex 5.37099 3.25417 0.398999
      vertex 5.37099 3.25417 2.67029e-07
    endloop
  endfacet
  facet normal -1 -0 0
    outer loop
      vertex 5.37099 3.25417 0.398999
      vertex 5.37099 -2.53082 2.67029e-07
      vertex 5.37099 -2.53082 0.398999
    endloop
  endfacet
  facet normal 0 1 -0
    outer loop
      vertex 5.37099 -2.53082 2.67029e-07
      vertex -5.125 -2.53082 0.398999
      vertex 5.37099 -2.53082 0.398999
    endloop
  endfacet
  facet normal 0 1 0
    outer loop
      vertex -5.125 -2.53082 0.398999
      vertex 5.37099 -2.53082 2.67029e-07
      vertex -5.125 -2.53082 2.67029e-07
    endloop
  endfacet
  facet normal 1 -0 0
    outer loop
      vertex -5.125 -2.53082 0.398999
      vertex -5.125 -1.16081 2.67029e-07
      vertex -5.125 -1.16081 0.398999
    endloop
  endfacet
  facet normal 1 0 0
    outer loop
      vertex -5.125 -1.16081 2.67029e-07
      vertex -5.125 -2.53082 0.398999
      vertex -5.125 -2.53082 2.67029e-07
    endloop
  endfacet
  facet normal 0 -1 0
    outer loop
      vertex -5.125 -1.16081 2.67029e-07
      vertex -0.324997 -1.16081 0.398999
      vertex -5.125 -1.16081 0.398999
    endloop
  endfacet
  facet normal 0 -1 -0
    outer loop
      vertex -0.324997 -1.16081 0.398999
      vertex -5.125 -1.16081 2.67029e-07
      vertex -0.324997 -1.16081 2.67029e-07
    endloop
  endfacet
endsolid OpenSCAD_Model
