solid OpenSCAD_Model
  facet normal -0 0 1
    outer loop
      vertex 4.21899 3.93916 0.4
      vertex 4.21899 0.779175 0.4
      vertex 5.37099 3.93916 0.4
    endloop
  endfacet
  facet normal 0 0 1
    outer loop
      vertex 5.37099 3.93916 0.4
      vertex 4.21899 0.779175 0.4
      vertex 5.37099 -3.74382 0.4
    endloop
  endfacet
  facet normal 0 0 1
    outer loop
      vertex 5.37099 -3.74382 0.4
      vertex 4.21899 0.779175 0.4
      vertex 4.21899 -0.59082 0.4
    endloop
  endfacet
  facet normal 0 0 1
    outer loop
      vertex 4.21899 0.779175 0.4
      vertex -5.125 0.779175 0.4
      vertex 4.21899 -0.59082 0.4
    endloop
  endfacet
  facet normal 0 0 1
    outer loop
      vertex 4.21899 -0.59082 0.4
      vertex -5.125 0.779175 0.4
      vertex -5.125 -0.59082 0.4
    endloop
  endfacet
  facet normal 0 0 1
    outer loop
      vertex 5.37099 -3.74382 0.4
      vertex 4.21899 -0.59082 0.4
      vertex 4.21899 -3.74382 0.4
    endloop
  endfacet
  facet normal -0 0 -1
    outer loop
      vertex 5.37099 3.93916 -5.96046e-09
      vertex 4.21899 0.779175 -5.96046e-09
      vertex 4.21899 3.93916 -5.96046e-09
    endloop
  endfacet
  facet normal 0 0 -1
    outer loop
      vertex 5.37099 -3.74382 -5.96046e-09
      vertex 4.21899 0.779175 -5.96046e-09
      vertex 5.37099 3.93916 -5.96046e-09
    endloop
  endfacet
  facet normal 0 0 -1
    outer loop
      vertex 4.21899 -0.59082 -5.96046e-09
      vertex 4.21899 0.779175 -5.96046e-09
      vertex 5.37099 -3.74382 -5.96046e-09
    endloop
  endfacet
  facet normal 0 0 -1
    outer loop
      vertex 4.21899 -0.59082 -5.96046e-09
      vertex -5.125 0.779175 -5.96046e-09
      vertex 4.21899 0.779175 -5.96046e-09
    endloop
  endfacet
  facet normal 0 0 -1
    outer loop
      vertex -5.125 -0.59082 -5.96046e-09
      vertex -5.125 0.779175 -5.96046e-09
      vertex 4.21899 -0.59082 -5.96046e-09
    endloop
  endfacet
  facet normal 0 0 -1
    outer loop
      vertex 4.21899 -3.74382 -5.96046e-09
      vertex 4.21899 -0.59082 -5.96046e-09
      vertex 5.37099 -3.74382 -5.96046e-09
    endloop
  endfacet
  facet normal -1 -0 0
    outer loop
      vertex 4.21899 3.93916 0.4
      vertex 4.21899 0.779175 -5.96046e-09
      vertex 4.21899 0.779175 0.4
    endloop
  endfacet
  facet normal -1 0 -0
    outer loop
      vertex 4.21899 3.93916 0.4
      vertex 4.21899 3.93916 -5.96046e-09
      vertex 4.21899 0.779175 -5.96046e-09
    endloop
  endfacet
  facet normal 0 1 0
    outer loop
      vertex 5.37099 3.93916 0.4
      vertex 4.21899 3.93916 -5.96046e-09
      vertex 4.21899 3.93916 0.4
    endloop
  endfacet
  facet normal 0 1 0
    outer loop
      vertex 5.37099 3.93916 0.4
      vertex 5.37099 3.93916 -5.96046e-09
      vertex 4.21899 3.93916 -5.96046e-09
    endloop
  endfacet
  facet normal 1 -0 0
    outer loop
      vertex 5.37099 -3.74382 0.4
      vertex 5.37099 3.93916 -5.96046e-09
      vertex 5.37099 3.93916 0.4
    endloop
  endfacet
  facet normal 1 0 0
    outer loop
      vertex 5.37099 -3.74382 0.4
      vertex 5.37099 -3.74382 -5.96046e-09
      vertex 5.37099 3.93916 -5.96046e-09
    endloop
  endfacet
  facet normal 0 -1 0
    outer loop
      vertex 4.21899 -3.74382 0.4
      vertex 5.37099 -3.74382 -5.96046e-09
      vertex 5.37099 -3.74382 0.4
    endloop
  endfacet
  facet normal 0 -1 0
    outer loop
      vertex 4.21899 -3.74382 0.4
      vertex 4.21899 -3.74382 -5.96046e-09
      vertex 5.37099 -3.74382 -5.96046e-09
    endloop
  endfacet
  facet normal -1 -0 0
    outer loop
      vertex 4.21899 -0.59082 0.4
      vertex 4.21899 -3.74382 -5.96046e-09
      vertex 4.21899 -3.74382 0.4
    endloop
  endfacet
  facet normal -1 0 -0
    outer loop
      vertex 4.21899 -0.59082 0.4
      vertex 4.21899 -0.59082 -5.96046e-09
      vertex 4.21899 -3.74382 -5.96046e-09
    endloop
  endfacet
  facet normal 0 -1 0
    outer loop
      vertex -5.125 -0.59082 0.4
      vertex 4.21899 -0.59082 -5.96046e-09
      vertex 4.21899 -0.59082 0.4
    endloop
  endfacet
  facet normal 0 -1 0
    outer loop
      vertex -5.125 -0.59082 0.4
      vertex -5.125 -0.59082 -5.96046e-09
      vertex 4.21899 -0.59082 -5.96046e-09
    endloop
  endfacet
  facet normal -1 -0 0
    outer loop
      vertex -5.125 0.779175 0.4
      vertex -5.125 -0.59082 -5.96046e-09
      vertex -5.125 -0.59082 0.4
    endloop
  endfacet
  facet normal -1 0 -0
    outer loop
      vertex -5.125 0.779175 0.4
      vertex -5.125 0.779175 -5.96046e-09
      vertex -5.125 -0.59082 -5.96046e-09
    endloop
  endfacet
  facet normal 0 1 0
    outer loop
      vertex 4.21899 0.779175 0.4
      vertex -5.125 0.779175 -5.96046e-09
      vertex -5.125 0.779175 0.4
    endloop
  endfacet
  facet normal 0 1 0
    outer loop
      vertex 4.21899 0.779175 0.4
      vertex 4.21899 0.779175 -5.96046e-09
      vertex -5.125 0.779175 -5.96046e-09
    endloop
  endfacet
endsolid OpenSCAD_Model
